<mxfile host="app.diagrams.net" modified="2023-09-09T10:09:43.331Z" agent="Mozilla/5.0 (Macintosh; Intel Mac OS X 10_15_7) AppleWebKit/605.1.15 (KHTML, like Gecko) Version/16.4 Safari/605.1.15" etag="_cZx3bS8NyxnXBXfBsv_" version="21.7.2" type="github">
  <diagram name="페이지-1" id="-X32wLAPWnnn3E49otwI">
    <mxGraphModel dx="3593" dy="1813" grid="0" gridSize="10" guides="1" tooltips="1" connect="1" arrows="1" fold="1" page="0" pageScale="1" pageWidth="827" pageHeight="1169" math="0" shadow="0">
      <root>
        <mxCell id="0" />
        <mxCell id="1" parent="0" />
        <mxCell id="wrIWGmj25VYRmt1726Kr-1" value="" style="sketch=0;points=[[0,0,0],[0.25,0,0],[0.5,0,0],[0.75,0,0],[1,0,0],[0,1,0],[0.25,1,0],[0.5,1,0],[0.75,1,0],[1,1,0],[0,0.25,0],[0,0.5,0],[0,0.75,0],[1,0.25,0],[1,0.5,0],[1,0.75,0]];outlineConnect=0;fontColor=#232F3E;gradientColor=#F78E04;gradientDirection=north;fillColor=#D05C17;strokeColor=#ffffff;dashed=0;verticalLabelPosition=bottom;verticalAlign=top;align=center;html=1;fontSize=12;fontStyle=0;aspect=fixed;shape=mxgraph.aws4.resourceIcon;resIcon=mxgraph.aws4.lambda;" vertex="1" parent="1">
          <mxGeometry x="361" y="32.29" width="120" height="120" as="geometry" />
        </mxCell>
        <mxCell id="wrIWGmj25VYRmt1726Kr-2" value="" style="dashed=0;outlineConnect=0;html=1;align=center;labelPosition=center;verticalLabelPosition=bottom;verticalAlign=top;shape=mxgraph.webicons.chrome;gradientColor=#DFDEDE" vertex="1" parent="1">
          <mxGeometry x="-680" y="25" width="123" height="127" as="geometry" />
        </mxCell>
        <mxCell id="wrIWGmj25VYRmt1726Kr-3" value="" style="endArrow=none;html=1;rounded=0;" edge="1" parent="1" target="wrIWGmj25VYRmt1726Kr-4">
          <mxGeometry width="50" height="50" relative="1" as="geometry">
            <mxPoint x="-618" y="1304.29" as="sourcePoint" />
            <mxPoint x="-249.21" y="220" as="targetPoint" />
          </mxGeometry>
        </mxCell>
        <mxCell id="wrIWGmj25VYRmt1726Kr-4" value="&lt;font style=&quot;font-size: 36px;&quot;&gt;Client&lt;/font&gt;" style="rounded=0;whiteSpace=wrap;html=1;fillColor=none;strokeColor=none;" vertex="1" parent="1">
          <mxGeometry x="-678.5" y="163.5" width="120" height="60" as="geometry" />
        </mxCell>
        <mxCell id="wrIWGmj25VYRmt1726Kr-5" value="&lt;span style=&quot;font-size: 36px;&quot;&gt;AWS API Gateway&lt;/span&gt;" style="rounded=0;whiteSpace=wrap;html=1;fillColor=none;strokeColor=none;" vertex="1" parent="1">
          <mxGeometry x="-251" y="174.5" width="303" height="60" as="geometry" />
        </mxCell>
        <mxCell id="wrIWGmj25VYRmt1726Kr-6" value="" style="endArrow=none;html=1;rounded=0;" edge="1" parent="1" target="wrIWGmj25VYRmt1726Kr-5">
          <mxGeometry width="50" height="50" relative="1" as="geometry">
            <mxPoint x="-100.21000000000002" y="1304.29" as="sourcePoint" />
            <mxPoint x="-100.21000000000002" y="234.5" as="targetPoint" />
          </mxGeometry>
        </mxCell>
        <mxCell id="wrIWGmj25VYRmt1726Kr-7" value="&lt;span style=&quot;font-size: 36px;&quot;&gt;AWS Lambda&lt;/span&gt;" style="rounded=0;whiteSpace=wrap;html=1;fillColor=none;strokeColor=none;" vertex="1" parent="1">
          <mxGeometry x="301" y="177.29" width="240" height="60" as="geometry" />
        </mxCell>
        <mxCell id="wrIWGmj25VYRmt1726Kr-8" value="" style="endArrow=none;html=1;rounded=0;" edge="1" parent="1" target="wrIWGmj25VYRmt1726Kr-7">
          <mxGeometry width="50" height="50" relative="1" as="geometry">
            <mxPoint x="420.28999999999996" y="1304.29" as="sourcePoint" />
            <mxPoint x="420.28999999999996" y="237.29" as="targetPoint" />
          </mxGeometry>
        </mxCell>
        <mxCell id="wrIWGmj25VYRmt1726Kr-9" value="" style="endArrow=none;html=1;rounded=0;" edge="1" parent="1">
          <mxGeometry width="50" height="50" relative="1" as="geometry">
            <mxPoint x="939.75" y="1304.29" as="sourcePoint" />
            <mxPoint x="940.423366093366" y="236.57999999999976" as="targetPoint" />
          </mxGeometry>
        </mxCell>
        <mxCell id="wrIWGmj25VYRmt1726Kr-10" value="&lt;font style=&quot;font-size: 24px;&quot;&gt;&lt;b&gt;http://whichcafe.com 요청&lt;/b&gt;&lt;/font&gt;" style="rounded=0;whiteSpace=wrap;html=1;fillColor=none;strokeColor=none;" vertex="1" parent="1">
          <mxGeometry x="-506" y="234.5" width="299" height="53" as="geometry" />
        </mxCell>
        <mxCell id="wrIWGmj25VYRmt1726Kr-11" value="" style="endArrow=classic;html=1;rounded=0;" edge="1" parent="1">
          <mxGeometry width="50" height="50" relative="1" as="geometry">
            <mxPoint x="-618.5" y="287.5" as="sourcePoint" />
            <mxPoint x="-99.5" y="287.5" as="targetPoint" />
          </mxGeometry>
        </mxCell>
        <mxCell id="wrIWGmj25VYRmt1726Kr-12" value="" style="shape=image;html=1;verticalLabelPosition=bottom;verticalAlign=top;imageAspect=1;aspect=fixed;image=data:image/png,iVBORw0KGgoAAAANSUhEUgAAAgAAAAIACAYAAAD0eNT6AAAABHNCSVQICAgIfAhkiAAAAAlwSFlzAAALEwAACxMBAJqcGAAAIABJREFUeJzs3Xd8XGeVP/7P89w2M+rdVbIcS7Kd2E7iBFhI4vRqAml2nARSbNhdFli2wvKDBZayBdhlWXaXH3EaSRZCem8QklDTY8exLbk7buoa9bnlOd8/7siRbdlWmZk7c+e8Xy9eNpI8OlG599znOc85AGOMMcYYY4wxxhhjjDHGGGOMMcYYY4wxxhhjjDHGGGOMMcYYY4wxxhhjjDHGGGOMMcYYY4wxxhhjjDHGGGOMMcYYY4wxxhhjjDHGGGOMMcYYY4wxxhhjjDHGGGOMMcYYY4wxxhhjjDHGGGOMMcYYY4wxxhhjjDHGGGOMMcYYY4wxxhhjjDHGGGOMMcYYY4wxxhhjjDHGGGOMMcYYY4wxxhhjjDHGGGOMMcYYY4wxxhhjjDHGGGOMMcYYY4wxxhhjjDHGGGOMsVwigg6AMZZ9CJDvLlwYU5pm6BFHWsp2ZYeXmLNrV0IAFHR8jLGp4wSAsTxDgNh06vxp0lELoaGJlJgnBNUpJWZJqBpIVACycMx/rJSrIHskqBUC+0iI3URimwC1gLBh/vzmreJ+eBn+T2KMTQInAIyF3MbT51eIBH1YgD4IwukK4lQpUZmOz6UUhqSgtyHoVUD8nqT47YK3mvel43MxxqaGEwDGQmbDwoXlUldnC9C5guhsSHFisBGpFkC8AOBZaakXGl/d2htsPIwxgBMAxnIeAbL55MalROIyABcTcLoEZNBxjUkpV0n5slB4DBKPLljXvDPokBjLV5wAMJaDdtTVRexS8zwF+XEBtRyQ04KOaXLoTUXyAaXJ+096a+PWoKNhLJ9wAsBYjnh78eKCiExcSoSrBNRlRy3Uy1n0JpH4me659zW8u+29oKNhLOw4AWAsi+3+0KzowGDBpQJYqQjLpUQ06JjSTQEklXoJQtxjGO4DJ7yxPR50TIyFEScAjGWZ15cuNYq83gs8T66SUn08fE/646eAYQE8IojuampqeZ6PGDKWOpwAMJYFCBAtixs+QBA3KBIrpURV0DFlHaX2kZQ/hcKdC95pbg46HMZyHScAjAWoeVHDXBLiBhDdACkbgo4nZxD9QQi6Q1h0Hx8rZGxyOAFgLMO2LZ1b4rraCg/ykxI4I+h4cplSGBISDwC4ff665pcFoIKOibFcwQkAYxlA10Db3Nx0PgRuIuDjEogEHVPYKGC7AG7XlHdX4ztb9wQdD2PZjhMAxtKo+ZSGBcqTNwpSn4CUM4KOJx8ofxXgOSlwu+z3HmvcujURdEyMZSNOABhLsR1L6kqHKXItBG4SwAeDjievkeokyLsJ4raF6zdvCDocxrIJJwCMpQBdA21Ty/zzJNRNCuIKXuLPPkrhVSHFbZrl/pwLBxnjBICxKdlwysJ5uufepIS4UQKzgo6HjYOiQQj8AsBtTetbficACjokxoLACQBjE7SpqakIFq5JLvGfGXQ8bCpUM0He5njGTxdv2NAadDSMZRInAIyNAwGiZVHDmSTEzRB0DSALgo6JpZBSLkE+LjW1trFhy7PccZDlA04AGDuGlkXzZnlSu1EQ3QQh5gUdD0s/pbBXCroDwO3z17fsCDoextKFEwDGDtMyb56lCrXLFeEWABdKQAYdEwsGEX4pQGvloHqEjxOysOEEgLGk5iUNJxPELQBdD8jyoONh2UR1Ecmf8nFCFiacALC8tmHhwnLdcFcRxGoBnBJ0PCz7EfCKULSWbHHfgubmvqDjYWyyOAFgeYcAuenk+ecJolsIuEICVtAxsVykBgjy56TE2gXvbH6FjxOyXMMJAMsbm5Y0zQFwkyC6GULUBh0PCxFF70JiLXTcM/+Nlo6gw2FsPDgBYKG2o64uYpeYH1eQq0ngPMk/8yytlE2QD0uh1ja+veUFnk7IshlfDFkotSyed4oHbTUI1wuJ0qDjYXlIqZ0k5W0S6o6mdVv2Bh0OY4fjBICFxoaFC8uloa4TilYLiZODjmcyzNo62Hv2AIr70ISFApQEPQWBtftLpj95zksvuUHHxBjACQDLcWEr6Cs44yxM++o/If7oQ4g/8iCcffzgGCpK7YcUd0pX3db47tZtQYfD8hsnACwnvXvKgjrN824C0c2Qsi7oeFJGCMz+yZ2Inf5BgAgDr/wB8YfuR/+LvwLZdtDRsVRS6tcK2q3R3qGH63ftGg46HJZ/OAFgOaNl3jxLxeTHAaxWQpwf1oK+yImLUHfv/Ye8zYv3oPfxR9Dz0AOwt28NKLLMMmvrIKIxJJo3BR1KmqkuQNyjSN7KTYZYJoXyAsrCZfNJjYuhYTVAN+RLh74Z//YfKLrwkjHfN7T+bcQf/AX6nn8GanAww5Gllzl3HorOvxBF518Eq7EJO6+5HIktLUGHlTEEvCKIbnVd/b6TNm7sDzoeFm6cALCstG3p3BLbMVYJqNUQ8rSg48k0c3Yt5jzyNISmHfVj1MAAep95EvGH7sfwxg0A5WAfGiFgNTSi6PyLUHTBRTDrTzj4rqE3X8fuW24IMLggqX4i+TMp1NrGdVte4yZDLB04AWBZgwCx6eT5Zwmi1aRwtZSIBh1TkKq/9FWUXXv9uD420dKM+MP3o/epx+HF42mObIqEQGTBQhSel7zp145dwrHvS3+DvmeezHBw2Ui9QyRv9Vzt3pM2buwKOhoWHpwAsMBtOqVpBnniRgl1C4/cfZ9WXoG5TzwPGYuN+9+QbaPvV88h/tD9GHzjNUBlSR8aIRA5afHBJ31jxsxjfrjb2YntF58NcpwMBZj9FJCQpB4gIdfOX9f8Eq8KsKniBIAF4vWlS41Ct+8yAKuVEpdIiaOvdeexik9/BpWf+fyk/q3z3m7EH3kA8UcfhtvRnuLIxkFKRJec4t/0z7sA+rTp4/6nnT/5H3T8zw/TGFyOU2oLpLjN9sw7F2/Y0Bp0OCw3cQLAMmrToqYmCNwiBN0IiJqg48l2MhpF/ePPQ6+snPyLKA/9L7+E+MP3Y+C3L4O8NDYZkhpipy5F0QUXofC8C6FXVk38NZSHbZecB7f1QOrjCxulXIJ8XIBubZrf8py4H9xBio0bJwAs7d5evLjAEolrCFgtgTOCjifXlF69EjVf+UZKXsvtaEf8kYcQf/RBOO/tTslrCl1H7LQPoPCCi1F07vnQyqZ2UKPvV89j3998LiWx5RMC3gNwu6drt5/0xsbUfHNZqHECwNKCANGypOF0IrEaglYBsijomHKV0HXMefAJmHVzUvq6g6/+EfGH70ffC78EJRITi8kwEPvgh1F0/oUoPOd8aCUlKYvrvU/fhMFX/5iy18s3yq8NeBYkbh00Ch4/7Y03uJCCjYkTAJZSG0+fXyGG6QYh1RpAnhR0PGFRdN4FmPH9/0rLa3u9veh94lHEH77/mGfuhWWh4E8+gqLzL0Lh2edCFqY+p7N3bMeOKy/LzSONWUgBbZLoLgW5duH6zfnTUIGNCycAbMoIkJuWzD8filZLqT4OSDPomEJHCNTe9TNEF6d3xtHwhvXoeegB9D37JNTAAGQkgoIzzkLR+Reh4KxzJnQiYTLa/vVb6P7ZPWn9HPmKgJcF6NZYdPDB2j/uGQo6HhY8TgDYpG1YurBWd9ybQ9ePP0tFT1mK2jvuzcjnUkNDGF7/NiJLToGMRDL2ObddcBZUf19GPl++IoUeIegeIWlt09tb1gUdDwsOJwBsQjYsXGhqmne5kGqNgrwwrP34s9XMH/wPCs8+N+gw0qLn/p+j9dtfDzqMvKIUXhNSrMUw/WxBczNnXnmGL95sXFpOnrfQI201KXxSSkzhTBqbCnPuPNQ/8BggZdChpFy+9f3PLmqAIH8uSd3auH7Lq9xkKD9wAsCOasPChYW67q4EsBpC/EnQ8TDftH/8JkquvCboMFIqv/v+Zxu1Idl6+B5uPRxunACwQxAgNi2a/0EhaY2AWgnIwqBjYofSq2sw9/FnIazM7M1nwr4v/jX6nn0q6DDYKH7rYXqQhLiVWw+HEycADACweWljJVx8AgqrIcWJQcfDjq3yc3+NitWfDjqMlHA7OrD9knO47382I9oKgbWuo9910saN3KIxJDgByGOHHN+DugJSGkHHxMZHFhZh7pPPQyspDTqUKeO+/7lDKXhC4HEp1a2NDVue5dbDuY0TgDy05cQTZnuadjOIbuHjezlICESXnILqv/sHRE5cFHQ0U6M8bLv4XLhtPM8m1yhgjwBuV1LefuJbm3YFHQ+bOE4A8sSGhQtNTfc+SgKrAVzMx/dyjzmnHsWXfhTFl10OY+asoMNJib5fPod9fzu5aYcsOyiAJNRzpORaz9MeO2njRjvomNj48E0g5JpPaVhASqxWSnxSSkxiNBsLklZegeKLL0XxZZfn/tP+GLjvf7gohXYp6E4icduCd5qbg46HHRsnACG0YeHCQk33Vgio1RDyw0HHwyZGRiIoPOc8FF92OQo+fAYgtaBDSgt7xzbsuHI59/0PKQJeFkRrY7HBB7j1cHbiBCAkCBAtixs+oIRcI6Cu5eN7OUZqiJ3+QRQvvxxF512Y9p772YBsG/0v/grxxx7G4B9+B/K4niyMlEJcCNwjpbqVWw9nF04Aclzy+N4NAK3m6Xs5RghYDU0ovuxyFF+6HHpVddARBcbtaPcnEj72COztW4MOh6ULqddJaLdqlvvzxle39gYdTr7jBCAHESBbTm44V5FcI6Cu4Ol7uUWvmXawmM+a1xB0OFln+N13EH/0YfQ9+yS8eDzocFg6KBqEwH1Kk7cueGvzH7nJUDA4AcghLYvmzVJCjhzfmxN0PGz8ZGERis6/EMWXXY7YaR8ABP/qHQ85jr9F8OjDGPzDb3mLIKwUvQuJtcqUdy98bXNn0OHkE74KZbnXly41itze5YrkGhK4WALhmwITUkLXUfCRM1F82eUoXHYuhGUFHVLOcjs60Pvko+h97GEktvEWQTgpGxAPgrC2aX3LiwJQQUcUdpwAZKmNi+c3CtBqErhJAvm7OZxrhEB00WIUX3Y5ii6+LBSd+rLN8MYN/hbBM0/wFkFIKWAbSNwGHXcufHPz/qDjCStOALLI60uXxoqc3qv9Sn6cGXQ8bPzM2bUouuxyFF92OczZtUGHkxf8LYIX/FMEv/8NbxGEkFLwIPAEINa2ltU8c85LL7lBxxQmnABkgY2L5p8KSWugcL2UKA46HjY+WmkZii68BMXLP4bo4iVBh5PX3M5O9D75GHofewiJrVuCDoelgVLYKwXdAeD2+etbdgQdTxhwAhCQHUvqShPCuo5IrBHAKUHHw8ZHWBEULjvHb9JzxlkQWjib9OSy4Y3vovexh9D79JPw4j1Bh8NSTAEkiX4JgbVyQD3auHVrIuiYchUnABlEgGhZ1HCmknINAddIIDwD3cNMCERPPQ0lH/04ii64CLKAeyzlAnJd9L/0a/Q+9hAGfvcbkMurx2GjFDqExE814d3W+PbWjUHHk2s4AciA9SedVGNq9o3JZj2NQcfDJk5oGrSyMmjlldArKqBVJP8c6/+XlwOSD2tkE6/L3yKIP/4IEi3coj6USP2ehFybIOsXJ69fPxB0OLmAE4A0oWugtWxpuEh5co2A+iik1IOOiWWIlNBKSkclBpXvJwgVldDLKw7+XSuv4G2EDEts3oj4Yw+j96kn4PV0Bx0OSznVByX+j3Sxdv5bzW9wk6Gj4wQgxTYvbqwHcIsicbOUmBl0PCzLSQmtqPjQBGHUysLopEGrqIQwjKAjDgVyHDj79iL+4H3oeeA+qMHBoENiaaAI66SgW21l/d/id97hbO8wnACkQMu8eZaKyY8TxBohcH7Q8bCQEgKysGjMlYQjtyMq87bxkNfVCbe9DW5bK5y2toN/d9tG/mz1iwN5CmHeUMAwFB6AJtYueHvzy7wq4OMEYAreXbLgRElqjYD6BISsCDoexg4SAjJWcESCUHzpckRPPjXo6CZFDQ0dvIG/f1NP/r01+ffODpDjBB0qy2ZKbYEUa23PvGvxhg2tQYcTJE4AJmjDwoWFuu6uhMAaQHwo6HgYmwhj5izUP/Rkdq0OKA9ue/vBm7kz8qR+2JO7GugPOlIWJkq5BPm41NTaxoYtz4r7kXedpDgBGAcCRMuShtMV5KcE1LWA5HNgLGdV/OlfoPLPP5eRz+XF40c+tR/+Z1c3oPLu2suyiAL2COAOALcvWNe8M+h4MoUTgGPYsHBhuaZ7Nwih1gByUdDxMJYKwrJQ/+ATMGbNTsvrD77yexz45tfgtreBEtyjheWOg02GgNvkoHok7E2GOAE4DAGyeXHj2RBYoyCulEAWrZUylhoFZ56NWf/147S89p7P/ikGfvtSWl6bsYwh1UmQdxPEbQvXb94QdDjpwAlA0qZTmmbAxU0ksVoCc4OOh7F0m/mD/0bh2eel9DWdvXuw/aMXAoonuWYSAejzCN2uwtaBATTEIphtGRCCL/GpQMArQtFassV9C5qb+4KOJ1Xy+qfj18uW6dO6D1wihFqjlLxMSnBHFpY3jBkzUf/wUyktCGz/j++i667bUvZ67NhsRej2CN0u4BFBCOC1bn/+QVSTmBe10FgQQaHGnSlTQw0AuE9Jbe2Ctzb/MdePE+ZlApBs1rMaRDdDyhlBx8NYUCo+/RlUfubzKXktsm1su3AZd9dLMwLQ6xG6XcKAd+j9Z3QCMNoMy0BDLILaiAHJqwIpoQibBHCbAefueeu3twUdz2TkzU8CN+th7EjCslD/wOMwZtdO+bXijz+CA1/9UgqiYmNJKKDbU+hxCd5RnjuPlgCMiEiBE6IRNBZYKNZ5wTMllHIhxWNC0G25dpww9AnAxsXzTxKg1UKoTwKyPOh4GMs2BWechVk/+smUX2fXDSswvGF9CiJiIxQBvYrQ7RAG1fFXmwWA13rGNwJ5mqmjIRZBXczivc8UUQp7paA7BdHtTe9s2R50PMcTygSAm/UwNjEz/+NHKDxn8gtjwxs3YNd1V6cwovw2TIRuB4h76qhP+2OZSAIwwpQSJ0RNNBZYKNV5ZlnKKPVrkvK2gujAQ7V/3DMUdDhjCU0CcLBZD8k1QqhV3KwnA4SAjEYhC4sgYzEIXQd0A0LXD/4Pmg4oD+S6/jx21zn4dxoagtffDzU4wFXjAfMLAp+EsCKT+vcHvvZlxB99KMVR5RcFIO76lfxDk/x1mEwCMFqlYaCpwMKcqAmdawVSQinEIfF/Qonb5r+z+c1sKhzM+e8wN+tJMSmhV1bBmDETelUV9Kpq6JX+n1pVNfSyMv+GX1gEragQkClYPCSCGuj3k4G+PnjxHrjt7fA6koNc2tv9FrGtB+Du2wvycmaLLadUrPkzVH72CxP+d15vL7ZfeBbU8HAaogq/YUXocoG4qzDVNHiqCcAIQwrMjVhoLLBQbvCqQKooYL1QuF2YdO/8N1o6go4nJxMAAuTmJU3LBNEaJcRV3Kxn4mQ0CquhEea8Jph1dTBn18KYXQeztnbST4GZQJ4HZ+8eOLt3wX5vN5zdO5HYthWJ5s3+hDc2acI0MefBJ2BOsCCw66d3oP3f/zVNUYWTR0DcI/RM4Wl/LKlKAEYrN3Q0xSzURy0YMidvGdlHKSdZOHj7vpIZz53z0ktuEGHk1Hdz0ylNM8gTN0LQagmcEHQ8uUIWFCC6aAkiJy2C1TgfVtMCmLV1fslwiLitBzDcvBmJls1IbHoXQ2+/CbezM+iwckrBR87ErP++dUL/ZsdHL4T93u40RRQuQx6hyyPEPYDSNI749RQnACM0IVAfNdFUYKHCMHLr5pHNlNpPQt4tNXVn01tbNmXyU2f995Cb9UycVlaO2GmnI3ryUkRPWYrI/PmpWarPQfaunRh66w0MvfUGBt98HQ7fqI5rxvf/C0XnXTCujx34/W+x5zNr0hxRbvPg7+13uYTEOCr5pypdCcBopbqOxgILJ0RNmJKbDKUKAa8Iortssn6++J130t5QI2sTAG7WMwFSIrLgRBScuQyFZ5yFyImLQvd0nyr2rp0Y+O1LGPjNSxh883WQbQcdUtYxpk1H/aNPj2sraO9f/jn6X/p1BqLKPYPJp/1elzJa9ZWJBGCEBqAuaqGhIIIaU8/eG0rOUTZIPiqkujOdWwRZ9f3iZj0TICWipyxF8SXLUXTu+dDKK4KOKOeooSEM/O436Hv6cfT/9mWeXDdKxepPo/Jzf33Mj3H278P2yy7gUb6juOQf3et2CImAar0zmQCMVqxraIpZmBuLIMK1Aqmj1H5IcQcIa+evb9mRypfOiu/Su0sWnChJrRFQn4CQfCc7BmteA4qXfwzFF18Gfdr0oMMJDTXQj75fPofeJx/D4Ouv5v2xRGGamHP/YzDr5hz1Y9p/+O/oun3qDYRyHQEY8IAeT2X8aX8sQSUAI6QQqI34rYenW1wrkCoKIKHwlAD9d9M7Lc8KTPnQSHDfm7cXLy6wkFgpQGsgxJ8EFUcuELqOwnPOR9mqGxA99bSgwwk9e9dO9Pz8HsQfewRqoD/ocAJT8Ccfwaz/HXuwDzkOtl10Nryu/C2ydMm/6Xc7BDvou/4oQScAoxVpEg0FEcyLWojyQKKUUYRNEvR9Oajuady6ddJLlxlNAAgQm09pWio8+hQErQJkUSY/f66RsRhKr70BZddeD726Juhw8o4aHET80YfQdedauK0Hgg4nEDO++58ouuCiI97e+9Tj2P/lvwsgomARAf2K0OMS+hQhTYX8U5JNCcAIKYBZlomGWAQzLAO8Q5AaCtgDiH/VB9xbJ5MIZOTbsH7RojJdOteDaI0UWJKJz5nLhBVB6TXXomL1p6GV8fiCoJFto+f+n6Hztp/k3ROvPm066h95GjJyaEHg7k9ei6H1bwcUVeY5BHS7/rl9Jwtv+qNlYwIwWoEmMS8WQUPMQgGvCqSGUrtIk1+e/3bzzybSaTBtCQABomVRwxlKyk8RcI0Esre7TLYQAsWXLEfVF/6Wn/izkBoaQteda9F1x615dXqg/JZPo+rz7xcEJpo3Yee1VyIrH39TrM8ldHsK/V4W9W89jmxPAEYIADOTtQKzLB5TnAoK+K0m1afH208g5V/xlg/MK1YJ+QlS4jNCYmGqXz+sjBkzUfOVb6Dgw2cEHQo7DnvHNhz4+lcwtO6toEPJCGEYfkHgnHoAwIF/+iriD90fcFTpYxPQ7RB6PAU3V+76o+RKAjBaVCZXBQosFPGqwBQpGxBfbFrX8p/HWw1IWQKwcfH8k6RQfwHQJwBZkKrXzQclV1yN6i9+5YhlVpbFiNB9711o/8H3/CFHIVfwoQ9j1o9vh+rvw7YLzoIaysrhZpNG8J/2uzzCwETG72WhXEwARpth+asCtRFeFZgKpfCLwoKBm441iXDKX91NJzd9GB6+LCQum+pr5RthGKj+u39A6Yrrgg6FTdLg669i3999AV53V9ChpN2M7/4Ablsb2r77naBDSRmbKLm3Tzn5tD+WXE8ARkSkwNxYBE0xC8V6fnYynSoFvFAYHVh+tCRg0glA88kN5yuSXxXAWZMPL3/JgkLM+uH/Irr09KBDYVPkHNiPPX92C+ydKe3RkXX0mmmQlgV7966gQ5kShfef9gdz/Gl/LGFJAEabZupoKIigNmJB50WBiSF17/z1W24Y610T/lJuXDz/JAj6rgQunnpk+UlGIpj137fyzT9E3NYD2H3z9XD27Q06FHYUCfX+036Yexe+0dOTMwWLE2VKgblRC40FEZTxqsC4kcLHFrzT/Njhbx93ArB+0aIyUyT+RQmxRgJcpTFZUsOsH/4vCs7ghZOwcd7bjV03rsq7o4LZjMifvNcd0qf9sYQ5ARit0jDQVGBhTtSEzrUCx0bq9/PXb/nI4W8e11dt0+KmiwSp23koz9SV33gLqv7q74MOg6VJ36+ex76//XxeHJHLZsMK6PYU4i4hT+77B+VLAjDCEAL1MQtNMQvlhh50OFlJASSGUbKgublv9NuP+dX69bJl+vSe/d8H8HkIfuifKnNOPSr/4gtBh8HSqOi8C1B0wcXoe+7poEPJOwr+2N1ulzCUgbG7LDs4RGgZGEbLwDDKDX9M8dyIBYPbDR4kARGXbi2Ad0e//agJwNuLFxdEevb/HBDL0x5dnqj4089CmGbQYbA0q/rLv0HfL5/N+4FCmTKkCN0OIe7R1KejsJzW5bj4Y4+L18Qg6qMmGmMWKk0eSEQA9iSMI74MYz7Wb1i40DRF4hm++aeOVlKKovMvDDoMlgHGzFmInf6hoMMINY+ALpewbdjD9mGFbr75H8RrH4BHhK2DCfyyqw9bBnjMd79HGHa9wcPfPuYKgG64/wkIbkmXQoXnXQBhGEGHwTKk+NLlGHzl90GHETqDitDtAr2eAq/yj02Ak4Ca5LHBOj42CABoSyiMVfJ3RAKwaUnTOQD+LAMx5RWzrj7oEFgGjbTNZVPnEdDj+q15h/kxnx3FSOOgxpiFEj4ieFCvS+h2FQSO/JockQAQ8PecMKWeMWNm0CGwDDJmzg46hFDwCDjg+NX8+f5Uy8Y23TTQWBDB7Kg5xi0uvzmKsGP46F0vDkkAfr1smY6uAxfwKf/UI9cJOgSWQWTzvmMqaAKYaUrUGP4qQLdHsHnt/5jyYQuAhwcdn0fAliEXzjFWzQ5JAGZ07aslKTmJSgNnz3tBh8AyyNm7J+gQQkUXQKUhUGkIDHp+G99eXhXIKzw+ePxc5d/8B4/T8vKQBKB5UJU2FnI2lQ6Jls1Bh8AyiL/f6RPTBGKagGcmVwVcQoJXBUKrQJNoiFmYF7VQwHv7x5VQhC2DHobH8TtxSALQ57qDQ56OKH+NU67/5RfhxePQSkqCDoVlQPzRh4IOIfQ0ABW6QIUuMJRcFYh7fvtfltukAGZZJhpiEcywDHBPn/GJuwrbhxS8cf4OHFEE2O54qNU4A0g1SiTQ+/jDKLvhpqBDYWk2/M46JFqagw4jr0Q1gZmawDQC4h6hx1UY4hMDOadIk2gosDAvGkGU9/bHjQDsGVZos72xbtUjAAAgAElEQVQJbYsdmQDYCjWmhMUpV8p13vq/KLp4OfTKyqBDYemiFFr/5VtBR5G3NAGU6wLluoZhRehyCXE3z5oECZFTsyikEKiN+JX807hr34QNeoQdQ96k2l8fkWIRgG2DXn79wmSIF4+j9VtfCzoMlkZdd67F8LvvBB0Gg38ufIYp0RTTMMOUiOXJA2Wu1MYV6xpOL47hmpoyLCsrwnS++U8IAdib8LBpwJ307IsxOwEOKsLOIQ9zuRgg5fpf/BW6bv8Jym/5dNChsBQb+MPv0PHjHwUdBjuMBFCmC5TpGhJE6HKAuKfybkpgNtAAzIlaaCiIoNrU+YY/Sb2uwq5hNeXi16MOA+pKHh7kJCD12v/rPyALC1G64rqgQ2EpMvT2m9j3158F2XbQobBjsITAdBOoIQ29yVqBAV7uTLsyXUNjQQRzoyZMmSdLMWmQUIQ9CQ/dTmqy12OOA+5y/GrCE6Ian7lMJSK0/su3QI6DsutvDDoaNkWDr/wee//mL6GGhoIOhY2TFECpLlCqa0gQ0O34rYZ5VSB1dCFQHzXRUBBBpcFP+1PhEbDf9tCWUCndnj9mAgD487U3Dng4IaYhyoWBqaMU2r77zxjevAnTvvpPPCY4R3XddTs6fvh9kHecjhssa1kCmGYK1EBDr0vocQn9OdxXgALuBVhh6GiMWaiPWjD4njElBL8wf1/Cg5uGb+lxEwAAGFaETf0uZkU0VJu8fJNKvY8/AnvbFkz/9r/BrD8h6HDYOHnxHrR++xvoe+7poENhKSIAlOgCJbqAfXBVgODmUEV9UAwpMDfi7+1XGLxtPFUEoNMh7Et4aW19Pa4EAAAUgN3DHnpchbqoDosTu5QZ3vgudq68AuW3fBoVa/4MQh/3t4UFoPfJx9D2vX+B190VdCgsTUwB1JgC1RDo8wjdTm6vCqRLlamjKRZBXdSEztvEU0YAuh2FfQk1rk5+UzXhO02vS3i338F0S2K6yZleqpBto/PHP0Lfc8+g+q/+FgVnnh10SOwwiZZmtP/Hv2HgD78LOhSWIQJAsSZQrAk4yl8R6HYJKarBykmmlDghaqKxwEIpP6ykBJFfc7ffzsyNf8SkvnuKgL3DCp02YVZEolTnbYFUsbdvxZ7P/RmiS05B5We/gNjpHww6pLxn79qJjv/5IfqefwZQXDKerwwpUCUFKnWgX/mTCfs9yr6eO2mKZ5ploDFqoTZm8djdFCEAHbbCAXvqR/omY0rp27AibB30UKQrzI5oiHHBR8oMrXsL733qRsRO+wDKbrgRhcvOzZ0OHyExvGE9uv/vbvQ9+xQX+bGDhACKNIEiTcAloMdT6HYIdpYkAqm8SkSkwLxYBI0xC0U8iCdlPADtCYVWR8EJcGspJes3fa5fJFimS8yISEQ4EUiZwddfxeDrr8KYOQulK65DyRVXQysuDjqs0CLXRd9zT6P7Z/dg+J11QYfDspwugEpdokIHBjw/Gcj1McUCwHTLX+KfzWN3U8ohoC2h0O6kp6p/og75zt5bVzefpLZpSi8o4CcCFicC6SCsCArPPAtFl3wUhWedDWEYQYcUCkNvvIbep59A3/PPwov3BB0Oy2Eu+Z0GuxzADmB/4K14Lzya+FZVTJOYF7PQEIugkAfxpFRCEfbbCl12as/xT4TwtBOu371l++i3pbyCY6SYodtVKNMlppsSUY0TgVShxDD6fvkc+n75HGRRMYrOuwCF516Agg9+CMKKBB1e7lAKQ+veQv+LL6Dv2afgHNgfdEQsJHQBVIysCiigx1WIZ+mqgAAwM2KiKWZhpmVA8NN+Sg14hP0Jhbinsq9WBGlIAEYcTAQchRJDYLopUcBZZUqpvl7EH3kQ8UcehLAsxJaejoIzlqHwzGUwZtcGHV7W8bq7MPC736D/ty9j8A+/hRePBx0SC7kCCRSYEtNMv6lal0tpL/YS40g1CjQNDTEL82IWX5fToNshtNoe+rOotaSHxBHBpHwL4FiKNIEaU0OpwVlmuuk10xA9ZSlip5yK6ClLYTU05V0RobPnPQy99QYG33oTQ2+9Dnvnjpwak8rCaWhkTLEHUBp+Ht+Ox8dsXiSEQK31/thd3qFNLQWg01ZozfBRvvHSlFe/ateunaPfltFDnH0eoW/IRSQhUGNKVBiSfwjTxG09gL5nnkTfM08CAGRhESILFsJqWoBI03xYTQtgnjAPQgtHZa/93m4kNm9ConkThps3I7HpXbgd7UGHxdgRolJgpikwjYBez08G0nnDKNI1NCaf9iM8iCflHALabQ9ttsqKwr6JCKSLw7Ai7Br2sNf2UKVrqDYF94xOM9Xfh8HXXsHga68cfJswTZhz5sKsrYUxuw5mbR2M2jqYs2uhV9cEGO3YvHgPnN27YO/eBfu93XB274KzZzcS27ZBDfQHHR5jE6KJkTHFAsMjqwIupaRITAqBuoiJxpiFGsvgQTxpMOQBrbaHLie4wr6pCrSNk6v8CUcHbKDckKixJPcSyCCybSRaNiPRsvmI9wnDgFZRCb2qGnpllf9nVRW0snJohYWQhUWQRUXQior8v8digG5AGMaxVxWUB3JckOtCDQ1B9fdB9ffB6/P/VH198HrjcNvb4La1we1oh9vRDq+9DWp4OI1fDcaCE5ECM0xxsFag2yUMTWJVICKBpcVR1EctWPy0nxa9rr/MH8+1x/0xZEUfR3/wgUKno1CoCdRYfndBTgWCQ44D98B+uJOpjhcCQtP8mQa6AXj+DZ88jzvpsakRItR1HBLvrwokiNDlEHo8QB3jv1kIgRINKNdE8sRVNGPx5ouRe1RrQk0qMctWWZEAjNbvEfoHPZhSodqQqDIFtDwrXst5RP4N33UB8FM7mzituBjmnHp/i2pOvf+/+rno+O//RN8vnws6vIywhMB0U6AmWSvQ4yoMjMqfo9JPFIo1AT5pnR4uAW22h3ZbhXL+Q9YlACNsRdiT8LDPFqgwBKpNiShvDzAWGkLTYMycBbM+eZOvqz/4d62s/IiP73v+WfT96vkAIg2WFECpLlCqa0iQ33m1UBOI8Ap/2gwpQmtC5fT+/nhkbQIwQhGh3Sa02wpFukCNwccIGcslWknJoU/yySd7Y3btuEdfe12daP3210O9/D8elgAsvv6lTdz1z+/3hmB/fzyyPgEYrc8l9LkurIRAtSlQYWjQ+XeBscAJXX//ab7u/SV7c049tNKyKb/+gX/6Krye7hREytihFAGdrr+/n43n99MppxKAEQlFeG+YsDdBKDf8ngK8PcBY+mklpe8v2Y/aozdm16atp0T8sYfR/+ILaXltlr/sg/v7BC9PV5ZyMgEYoYjQYRM6RrYHTIkSPj3A2JQIXYcxu/b9J/nRT/MlpRmNxT2wH23/9p2Mfk4Wbv0eodX229Tnu5xOAEbztweSpwdMgUreHmDsmLTSsrGf5mfNzpoOkfu/9mWo/r6gw2A5jgB0O/75/YEs6s8ftNAkACNsRdgzTNg3rFBmStSY3FyI5S9hGDBm1R7xJG/W1UMrKQk6vGPq/vm9GHzlD0GHwXKYf4xPod1RcPJsf388QpcAjBgZzNBpKxRoEjWmQJnB2wMshISAVlb+/k1+1HE6c9YsQGbH0/xE2Lt3oeMH3w06DJajBj1Cmx3+Y3xTFdoEYLQBT2H7EKAPK1SZAlWGBpPP0LIcIwzDn9kw+mk+uU+vFRcHHV7qKIUDX/kit35mE9bjEFodD315coxvqvIiARjhEmF/gnAgoVCq+6sChTpnAiyLCAG9vBzGHP/mbtX7N3hjzlyYM2fm5NP8RHXduRZD698OOgyWIzwC2h2Fdlshwcv8E5JXCcAIAtDtKnS7QFQqVJsSFYaA5JbDLEOEacKcXXtEAZ45px6yKERP8xOUaGlGx49/FHQYLAcMK3+Zv8PmZf7JyssEYLSh5GjiPQmgwpCoNiUiXDTIUkEI6BUVRzTGMevqYcycBfC0tkOQ62L/V74Isu2gQ2FZbGQaX69L4Of9qcn7BGCEN1ItaisU6RLVhkSJIbhokB2XsKxRT/OHtryVhUVBh5czOn/8ozFHUzOmiNDh+E/8+datL504ATgMwc8we10FMyFQZUpUGZJ7CuQ7IaBXVI5ZgGfMmMlP81M0/M46dN1xa9BhsCxjK0KrTeh0PHBdX+pxAnAMtiLsHfawf9hDmSFRZUoU8tzNUBOWBbO2buyn+YLCoMMLJUoksP+rXwJ5XtChsCzR5xLaHA89LuX7/Ke04gRgHBSATkeh01GISYFqS6LckOBnvhwlBPTKqiOe5A8+zXMxaEa1//D7sHfuCDoMFjAFoMtRaLMVBrlbX0ZwAjBBg4qwc8jDnoSHCl1DtSlhcSaQtcz6ubDmNR7a8rauHrKgIOjQGIDB115B98/uCToMFiCbgPaEh3ZH8TJ/hnECMEmuAlptD222h2JdoMrUUMqFAllH9fXCnFOP0qtWQK+ZFnQ4bBQ1MIADX/syoPgQVz7q8whtCYVul7//QeEEYIoIQNwlxF0XlgSqDA2VhgT3F8oObkcHOm/9X3Td/hMULDsXZStXIfbBDwcdFgPQ9r1/hrNvb9BhsAwiAF22QqvDy/zZgBOAFEooYE/Cwz7bLxqsNiQKuGgwK5Dnof+F59H/wvP+isA116LkY1fyMb2ADPzmRcQfeTDoMFiGOIrQ5hA6bA8O3/cD4Wja4OFvO+TudG9d3XyS2qbMhRR+BZpAtSFRbvIgomwjo1EUXbIcZSuvg9W0IOhw8oYXj2PnVcvhdrQHHQpLswHX783f7XDTnkAp1Xb9rp3TBA79NvAKQJoNeIQdnof37JGiQQGLOw1mBTU0hPhD9yP+8AOILlqM0hXXoeiiSyEMI+jQQq31O9/gm3+IEYBux+/WN8DL/FmBBB48/OYP8ApAxgmAiwazmFZWjpKPXYnSFav8I4EspfqefQr7vvjXQYfB0sAlSnZTJTh8eD97KOVohr5g1dat2w5/FycAAbKkQJUhuWgwG0kNBR85E2UrV6HgI2dxb4AUcDs6sPOq5fDiPUGHwlJowCO02grdjuJl/mxE+PoNO7d/Y6x38RZAgBKK/KLBBHcazDrKw8BvXsTAb16EMWs2Sq9eiZIrroZWUhp0ZDnrwDe+wjf/EOlyFVoThAGPj/FlLVK/mllX923s3D7mu3kFIMsc7DSoS3CpQHYRloWiCy5G2crrEFm0JOhwckr84Qdw4BtfCToMNkXuyNA0R8HhoTzZbp2jvLNv3rXrqFk3JwBZShMClYZIdhrkTCDbRBaeiNJrVqH40uUQViTocLKas38fdl59OdRAf9ChsEka9Ahttocuh8DP+7mA3hSGcdH1LS0dx/qoQ+4sd9TVTTOktj+9gbGJEACPJ85iWnExij96BUpXXgezti7ocLLSe2s+icHXXw06DDZBREC36/fm7+dq/txB6slhy1q1prm573gfesj9hABxT/3c7QKYk7bg2KSZUqDaFKg0NB5PnG2kROz0D6Hs2utQuOxcHg+c1H3vT9H23e8EHQabAFcBHa6HtoSCzff93EL4jrlz+z+uAMY1WvOI28jd9fX/n4D4VuojY6kiAL/TIBcNZiV92nSUXrUCJVeugF5REXQ4gbF37sDOlVeAEsNBh8LGwV/mV+hyFXh7P8co1QbIm27Ytf3pifyzI+4eP62pKZCR6EZIWZu66Fi6xDT/KGGFISD5qFpWEYaBwnMvQNmKVYguPT3ocDJLKez65LUY3rA+6EjYMRABPcll/j5e5s9R9IgS4k8/uX1720T/5Zh3jHvnzj2DPPUCpOSWaDlCE0CF4XcajHDRYNaxGhr9osHlH4OMxYIOJ+061/4YHT/6QdBhsKPgZf4QUKqNNPmFG7Zv//lYXf7G46h3invr66/3IO6Wx/gYlp2KdP/0QKkmuX9NlpEFhSi+7HKUrrwO1gnzgg4nLRLNm7DrhhUgxwk6FHaYIUVoTfAyfy5TAEnQTwzH+fLKPXu6pvJax7w93F1ffwMpukNKyQ2DcpApgUpDQ5UhYPCqQHYRAtFTT0PZilUoPP8iCE0LOqKUINfFrlVXIrGlJehQWJI/slyhNcHL/CHwR0/gczdu3/56Kl7suHeFe+vrzyeI+wFwC7QcJQCU6n7RYBEfH8g6emUVSq68BqVXr4ReXRN0OFPS/sN/R9ftPwk6DAbAI0K7TWhzFGx+3M9pCtglBP5h6/bt930DqWvFMK67wU9ra+sh5f1SyKWp+sQsGFENftGgqSEcz5zhITQNBcvORdnKVYh98MNBhzNhQ+vfxu6brgfUuE4gsTQZUn5v/i6HoHgoT05TQLck9R2H6Ec379qV8uM0434c/MXChWZicPjrQuCLAPiQc46TACpMf1UgytsDWcecU4/Sa1ah5GNXQBYWBR3OcanhYexa8THYu3cFHUre6nEIrY6HPpdv+rlOKdUvhfyhQ953j9XKd6omfOW/u77+dCixVkgsTkdALPMKNb9osMyQXPGZZWQ0iqJLlqNs5XWwmhYEHc5Rtf7zN9Fz371Bh5F3PAI6HA9tNiHBy/xhMECgH0nD+N7x2vimwqSu9///0qVGrKvrc6ToG1LKwlQHxYKhC7+nQJUpYPKqQHYRAtFFi1G64joUXXQphJE9J3QHX/kD3vvz1YDiLvGZMpys5u90FPfmDwOlEqYm1zq6/vVM3PhHTOkqf3dt7XQh9W8pgZv5uGB4CAGUaBLVpkCxzrs92UYrK0fJx69C6TXXwpgxM9BY1EA/dlz1UbgHeIRIJvS4fre+Xpdv+2GgC6DG1FBlSr+9O9FLJMRdGMYDC8bRy3+qUnLT/umcOUsgxD9LiEtS8Xose1gH5w9IaNxUILtIDQUfORNlK1eh4CNnIYimDwe++iXEH38k4583nygAHbZCq614mT8kTCkwzZSoPFoHV0WDJMWDgujOpvUtL4oUVv6PltIrxr1z5iwjkt+ExJmpfF0WPCmS8wcMiQKeP5B1jFmzUXr1SpRccTW0ksyc2O1/8QXs/au/8PvJspRLENCW8NDhKPDx/XCISIFploaKiUx2VWoXSblWQt3RtG7L3lTGk/IrOQHi7vr684WifxRSnpHq12fBK9AEqg2JMlPycZAsIywLRRdegrIVqxBZtCRtn8fr6cbOq5bD7exM2+fIV72uf4yv11WT6+/Ksk6hLjHdlCiZQh8WpeBJSY8QxI/mr2t+abLtf0dL26McAeKeuhOWCeF9BUKel67Pw4KjS6BC11BtSVi8KJB1IgtP9OcPXLocwoqk9LX3/d1fou/5Z1P6mvlMEdDpKLQ5Hoa4jUJolOoS06zUT20l4C0IfO9AybRfnPPSS+5kXycjl+17TzhhqVL0RQKu5mLB8BEAipPzB0q4aDDraMXFKP7oFShdeR3M2ropv17v009g/z/8bQoiY7byO/W12wSPt1JCQQq/ZqomAw9GCtguCN8+UDbtp5NJBDJyM96wcGGhrrsrhwmfbbPVyR3coSq0TClQZUpUGcmqVpY9pETBBz6E0pXXoXDZuYCceLLmtrdh51XL4fX2piHA/NHv+cf4urmaPzR0IVBjClQZGjL/HKSaAfGlpnUtj05kayCtWwDNJzeeRkp8Sgi1Cni/X4CrgPZk8wqHE4FQEvCLBmsMiQLOBLKOPm06Sq9agZIrV0CvqBj3v9vzF5/CwO9+k8bIwosAdDqENtvDIFf1hUZUCtRYEhXZ0EhN0XMC9OdN72zZPp4PT3m8ry9dGit0+lZB4DOAOPVYH8u/EPkhpgFVhl/5OuaRFxYYYRgoPO9ClK1Yheippx3zY3seuA+t3/pahiILD5f8s/ttNsHlB57QKNYlpmVjrxRFg0LSFxrXbVl7vNWAlF2N3z15QYNU6jMg3CTkxCcH9rl+H+seh39BwkoX/vyBKkMiwp0Gs47V0OgXDS7/GGQsdsj7nL17sHPFx6AGBgKKLvcMekCr46HL5mr+sBAAKpL7+1k/Q4XoTtfV//SkjRvto33IlP8LNi6af6qU3j8oyKtSUeCXIKDN9tCRUOBi2PAq1v29stKJnIdlGSELClF82eUou/Y6mHPnAUTYvfoTGHozJSPIQ40AxF2F1oRCH69qhoYugOrk8DQ9h1YxifCUNuhd2bh1a2Ks90/6v2Tz4sYzQPgqpLhw8uEdnQegk7tfhZ4pgCpTQ5UpcuoXKy8Igeipp8GsrUP84QeCjiarjQzlabUJNl+vQiOq+a16y43c7XlCwNoF65o/Ndb7JnzF3bh4fqMA/asQ+PjUQzs+gt8Yo832EOcxl6HlFw0KVJtays/MMpYuCeU37em0ecUyTEp0gRpTZt/+/mQRXTJ/fcszh7953Ffalg/MK1YJ+U0o+gyk1FMb3fgMK7+YpsPmCVhhFpV+TwEuGmTZqjd5jI+79YWHFP7+frUhEQ3ZQwgBLy9Y17zs8LeP679y05Kms4VSd0LKqXcRSQEv2TWLtwfCTRv5hTS5aJAFzz+1pNBmKz61FCJGcuBZlR7E+f3MUAApRys+aePG/tFvP+aTPAFy8+KmfxbA30+maUi6aMmCjCpT8vZAiHmE5PEphWJNoNqSKNFkEEPvWB5zCGi3PT7GFzIFmr/MX5YN5/fTTAJiSDizAWwa/fajJgC7PzQr2jwUu1sAV6U9ukkS8PdqSnT94PYA78WFU69H6B30YAqPiwZZRgwpf5m/y+Etx7AQAijTBWoMLe8alB0YPHLrfswE4PWlS43+of4nJHBu+sNKjYgUqI1omBnR0GkrtDsKQ7xMFzo2AXsTHvYlgDJdojoNgzZYfhs5xtfL14/Q0IRAlekXGZt5eLkYcAk9Hh3RxGPMBKDQ7fseIHLm5j+ahvfPa/Z6ye0Bh7hQJ2QIQJer0OUqxDSBKoOLBtnkKQI6kzf+Ya4rCo2oBtQYGsrz/NrQaiuMVfJ3RALQvKjhTIL4fCaCSrdiTaA4qsO2/IlbHY4Cz94In0GPsMvzsDfhdxqsNiQsLhpk4+AoQptNaHc9vjaESGlyOmlojvFNQZ9HyaFT2hHvOyIBICn+PhNBZZIpBWZZGmaYGrodhVaHq3jDyCWgNaHQllAo0iVqTMHjidmYBj3//H6Xw8f4wsIfwyv41NAoLgE7hjwQxj7yd0gCQNdAa95MFyOkXzyZ7EVfYUoMeAqtNqGbLwCh4zePUuh1AVMqVBsSVaaAlsdLgMwXdwmtCY/390PESvYNqTQkuBzofYoIWwbVMTtTHpIANDc31kKKQJr8ZFqBJjE3CrgRifZk0aDNS4ChYyvCnoSHfXZyPLEpEQtpgsvGRgA6HIU228MQHxEKjaJkNX+JLvho8GE8ArYOehg4TqJ7yM3+XVvVnGgduU8QZroQmG5pmG5p6Hb9M+d93FMgdBT5syU6bYVCTaDKlCjPg/O/+cwjQqvtHw/m8/vhIAGU58o0voDYirB1yBvXNvchCcCArfqH83hUa5kuUaZLbjkccv0eoX/Iw55hD5WGhipL5uXRoLDy+/MTOhwFxTf+UDAlksv8GvLs+P6E9LmEbUPeuBPeI5b7222F2ZH8WgU43MGeApaGTsfvAMZHg8LHIWC/7WG/7fk9BUyJIr665KwBj3DAVuhxFfi+Hw6Fmn92v4zHhh8TEbDfVthvexP62R8zAaix8rNZwuH8lsMaqk2/E11bQiHu8cUljLpdhW5X8SCiHBR3CQdsj7fuQkLAX+avNiUKuKrvuIYVYeeQh/5JFLYekQAoANsGPcwv0DjjGqVYEyiOabBJQ7vtoZ37gofSkCLsGvawJzFypEiDxScJsw6R3wjqQEJhiFfnQkEXIjnjRcDg5Pu4iPwGP/tsD5P9FRiz4n/AU9g1BMyJ5vdWwFhMAcy0NMyw/KfGtoSaVObFstvoArISXaDK9KuNWbAUgA5b4YB97ONNLHcUaP6Nn4tyx6/fI+wa8qac/B71yF+H45e/1UV5JWAsAkC5LlGuSwx6fqfBLoe46ChkCECPS+hxXURGzhubErwokFkeAe2OhwMJXnkLi3LDn8ZXoPFv03g5irAnodDppKY8/Zhn/jscBQ+E+qjOF7xjiGkCczQNsyx/Xni7zf3Ew2hYEXYPe9ib8FCR7CnALYfTyyO/sK/dVuAt/tynC/jTPA0Jk28q46YIOGArtCa8lE67PW7Tn26HMOy5OCGm5e3xwPHSBVBj+jeGXpfQ7njo4UFEoeMR0Ja8KRXr/lMM9xxPLZeAA7aH9gSP9w6DWHIoTxmvnk0IwX+o3Jfw0tKoblxd/4YUYWO/i7qIhgpO28alWBco1nXYEf9kRYftweFMIFQIfgV63PUQ1ZR/ekDn0wNT4SrgQPLoLW+n5TYhgFLdfyDikd0T1+Mq7E2kd6z9uNv+KgA7hj10u4TaKB8THC+/aFBihiW5aDDEhpJFOXvyfO74ZPlL/YS2FC9xsszTRn4HDAmTV40nrMch7LPH18lvqibc97/HVejrU5gR0VBtctXmeHHRYH7wiHAgQWhNKJQljxHy08/RecmjTK22B86Lc1tUCtRY/jWO7/sT1+0q7E94GMxgBjypwT8egPeGPXQ6HmZFdBTzBW5CRooGZyeLBtu4aDB0CECXQ+hyXBRqAjXJbmbM5x+zVMk+/UFHwyZLAChJLvNzF82JIwDdjt/BL4hBVVOa/DfoAS0DLkp0gVmWDm4bMDF+p0G/4xV3Ggwvf/aACyshMC15jDBfL5WO8pf6O2xe6s9lugAqTcnL/JM00s+i1faQCHDgTEpG//qFUA6qTInpJv9ATMboToMdyU6DDmcCoZJIdhncl1CotvyLZ74sng15QKvtodNRfComh0Wkn8SWc6vsScm2fhYpSQBGtCcn6FWYEjM4EZgUUwAzLA3TLX9pqN1W6OPN0VBxiLB32MOBhD+NsCbE0wjjLqHN9hDndf6cVpqsZ+Ht3smxCWhLeGi3s+tYa0oTAMDf0+hIzl3nRGDyRgZilBsSQw384iEAACAASURBVIoOJlc8njg8/AI4D222F6qCQVcBHa6fvCa4tiVnaQKoMiSqeB7GpA0rwoGEh84s7QeT8gRgxEgi0GErlBsS0y2JKCcCkxI9ZDyxQrsTTMEIS4/RBYMxDagyNJSbErlUUkMAel1Cp+OhO0svdmx8uOX11PV6hNZEdq18eUgcEUzaEoDRuhyFLscfqlJjaijmatFJGV002Of5qwJdKeoJzbLDoAfs8jy8l1Ao1f2JhEV69hYNDnjk/367BIef9nOaX80vuKvlFHQ6Cq22ysgZ/okyhAgmARjhFwu6iGl++9QKg3/QJqtIEyiKaphtSbQ7hA4nPa0iWTAUUXJVADCEh1JDokwPPhkgAH0eocdR6HGJJ/LlOE0AlYZEtaXBytYsM8t55Ne/tdke7Bz7dchoAjBi0CPsGPKwJ6FQnewYpXFF6aQYUmCGJfxOgw6h3fbQm4XZJ5s8J3mBabcBTXgo0gWKNYliXaR9PgfB73LY5xF6XUKfy3UoYcDL/FOXUH4vi1yuzQokARjhKMLeYcL+BKHC8BOBaAiKoIJSZgiUGTqGR4oGHcXd1ULGI79VaI/jF4HoEohJiQIpENUEohpgCUzqiJZLQEIpDCl//segSxhQ4G6VIVKq+zf+oFeSclm/53f67AlBz5ZAE4ARigjtNiWnq/ldpUq4TmDSIlJgdkTDTEui0yG0O9m5J8WmzlVAr1LoPeztugAMIWBIAQ3+Ui8EIMj/U8H/vXNIwFX+/j3XlYaTBqDC5PHVU0EEdCePtIZplktWJACj9boKva56f4mKG05MmkwO5agyJQbckfkD3IglH7gEuEQYOu4ePf80hJUl36+14oXVyTm4v++oUNa7ZF0CMGJYEXYPe9ibGGk5yWdRp6JAF6jXNcyOaGhPNhgK4w80Y/muRE827dEFL/NPUoKA1oSHzixr3JNqWZsAjPAIaE34Q0OKNX8Zi48RTp4ugOmmxDRDotfzv67ZdFaVMTZxUvhHRqtNmfbC0DDrdxUOOP41Mdf398cj6xOAEURA3FWIuwpRTaDK4O2BqRDCP/dbokskCGhPzh/w8uGnnrGQsCRQbWioNHmZf7IIQKdDaLPdjI7izQY5kwCMNuQRdnujtgdMPsM6FZYAZlkaZpjJ+QOOClWhC2NhU6z7+/vFmgQ/A02OS0Cb7V/v8rWJVU4mACMObg8kFIqT+158emDypPCrhStMiUHljyfucnL3jCtjYSKFPx9kGi/zT8mgR2h1FLpz+Px+quR0AjCC8H6XwYj0q94rufJ1SmJSYE5Uw+yIRIdDaOPBLowFwpR+j5QqU3DDtCnodvwbf7+b77f994UiARhtWBHeG/awb9hDueH3zefmQpOnCYEa0y8u6nP94zBxHvbCWNoVaQLVlkQZ9+afNI+ADsdv05v4f+3de3Bd93Uf+u/67ccBQBAk3hRFEQRJWbISJ27VW89N3CpO0qRP124c6VrPKJYtS7Ryk2nS3Ny5N4rbOtM4cW1Kih35EVumKEdy06R5OGO3ia/aTsbtrXpjx5FCmQIBkSKJBwESIB5nP9a6f+wDGRQB8AA4B/ucfb6fGY9nQBBYks7ee+3fb/3W4nP/KoVLAJalQHbcLVZ0eYL+0MPugMdiNksAdPkOXb5DVLJs/kCUImYmQFQzAqAndBgMPHQ00zjIBpO16TVciNJCH+PbqsImACvNpobZxQRhWTAQCvoCDywV2LzQCa5fMX+gaN2xiLZbUFnm7wsdAt6bNm220q3vUsJVymq0RAKwLFLDmSXD2SVFT5CtCuzg9sCmCYCeQNAT+FjUrE7gQmzsHU9UpR2VyajdAXvzb5ZaNoZ3Ik6xyNf9DWmpBGCZApiKDVNxgh2V7YFebg9sSbsTDLV52FcCLsQpJmPDIlcFiFbV4zsMlBw6+QKyaZEBE+xfsiUtmQCsNJ8a5hcTnFkC+gOH/tAh5BGbTfMEGAg9DITAXJKtChRhahbRVvkO6Pe9yj0m72ia11yaHVGeYTX/lrV8ArAsMeBclLWB3OULBgKPLYe3aKcv2Ol7iNVhsjKVsFUbblDraneCwZJDj+/Ad4vNMQDTkWKck01rignAG9jr89aT1ycScprW1gROsLckuK7kcDHOjhLOcf4AFdwu32Gw5NDFm8emxZaNiZ+IDAmXEWuOCcA6licSnllK0RtWegowhd80AdAdZAVPi2l2TJPHdKhIHLL25IOhQ4n3ik2bTw3jkWKG48vriglAFRTZTOjJSLGzUjTYw7M6W9LuAfs9h+vbHKajbCrhtWfXEzWm0opjfHzh37zp2DAep5jnCuG2YAKwQXOpYW4xwemyoD/IphIGzPQ3zQPQH2bFl3OpYTJKMc3uQtQkOn2HwcBhty8cyrNJiVVesOIUEev6thUTgE2K1XC2bDhXVuz2s+2BnSwa3JKdnmBnu48b2gyTkWGKNwRqQAKgN8iGj3XwdX/TFlJgPE45lCdHTAC2yADMJNmRlHYP6A889IYO7OK5eYGsKBpMsu0BFg1S3nwBBkLHVb8tMAMuporxMkeONwImADW0mAKvpileqwwiGixxbOdWCIBuPxuGsphm8wdYNEjbrc0J9vAY35YkCkwlKSbKiojP/VyYc4tv/BoTgDpYOYgoKxp06AnY+WMr2j3Bfk+yosE4e4NYYtEg1dEuP2vT28VpfJu2qIbxsmI6UfByzY+qTt01Njpx5xu+zgSgzrKiwRSny8qiwRrwUOnYGDhcThTjsWEm5g4i1YYToDfIjvFx9W5zDFkvlfFYcZnd+hqDc78nuPpEJROAbcKiwdrr9B06fSAuucqKi7HTIG1K4LJJof2+B77wb05qWfHuRKyIeB02DAVSMf3Yan/GBGCbXV006NAbeiwa3IKs06CH60rATJz1a5hjgRFVoaMyja+H0/g2bUkN5yPFNCeBNiQxfPSe0dETq/0ZE4AcZUWDijNLyk6DNZCNJ85u5hxPTOvZ7QsGQ4+rcFtwMTZMRClmmWw3LFP9rwt9vY9idPU/ZwLQAK7qNFjKKt95a9q8leOJpyqrAiwabG2CrE3vQODQzvP7m5IaMBWnmIgUZW7vN7qXNG5714MvvBCv9Q1MABrMXGqYW0gRiKKv0iEv5L1q0zwBBiurK3NJNlTkIguTWopfGVHdHzqwg/fmLKbZ3v4FNu1pDqrfjmF/7/6zf31hvW+7IgFwqnMQVsA0gtgM58opzpVTdFdOD/A40uYJgC7focsHInWYiBVTsYK5QHG1OcGeyv4+d9Y251KiGI8Ms7xQmofpn4npe+5/9dWZa33rFZfFo4C7cfjgawD21C042rQ2l/UU6ON44ppQADOcMV44nZ5gT+hhVyDcRtuEbJlfK8v8vC6aix2d7+n5hfWW/Ve66vo4duDgr4rgl2ofGNWKE0GvnyUD7EVeG/Np9qbD8aPNqzsQ7Ak87GBh36YsLRfORspum01GgRkneODukZF/v5G/d9WVcnz//u5U/Jecw2DtwqN62eE5DITCY0w1kphhIjJMxsqeAk1gubCPjXs271JiGI8UcwmT3yb1NfPc++45efLMRv/iqlfM8QMHftzEfQUAN52bhC/frXAOeSPcMkPWU2Ai4tCSRuQJMBBkxZ3srLlxKYCpiMv8Te6iwX7h7lOnPrdal79qrHnlHB8efsggn9x8bJQHEWCXJ+gPPeziUmhNLKTARJRiOmYFdN4CAQZKHgZYB7Mp2TI/h2o1OzMcTyz9+fvHxs5v5eesewkdGx5+2CBPuGt8HzWmkgD9oYf+UOAJ/xNuVaLLxVEpJ5pts7BS0d/Hiv5NuZRUmvYkxmX+JmaKb4noI3ePjv7nWvy8a15KXxw69C7n7GkAO2rxC2n7OQF6fEFf6KGTr001MZMoJspsOVxvJSfYGzr0hKxx2SgFMBWlmIiMTbCanCrGnej/HY6O/vbtqN3iTVXX1LH9h28RL/0yILfU6hdTPjqcYKBUORuddzAFsJAutxxmAVUttXuC60oO3Z4DF682pmzZltVUpGB+2txU9bI4+Vipvf03bn/xxcu1/vlVX1pPXnddx46w/dfg8KFaB0HbzxNBXyAYCB1KXFPdssSAySjFBCcSbkmbE+xdboXNj+WGzK5o2sNPYHMz1TKcPGkiH7l3ZGSiXr9nw5fY00OH3gGkn4Zzh+sREG0vAbDTd+gPHHazccqWLZ8eOF9WLDARqFrJAXtDD70h16U2Qs1wobK/v8iqvqYnAPpDhz0+4tDzfl+cfuHsrr1fe8fzzyf1+n0b9uy+fe1xEPwfpvaL4lyp1kFRPkLJPnz9oYPP168tu5wazpeVswfWEbpsqb+PfSw2JFLDeGSYihUpp102PSfZaPjBknf17BfVcxD5bQCfu/lbL5+q5e/d0jX3xf37h8Xzf02An6xVQJQ/QdZVrT/0sJNFg1tWNmC8nGKKo4lfVxLgujYPvXzwb8hcYpiIU1xMDPwoNT8PQH/JYTD0rjmoSgETxVdE7ImbvvXy1wRbP5Vck2vv+NCh/zWV9NeduB+sxc+jxtFeKRrsZdHglqWWFQyOR4qkRW/eHZU+/T0cy1c1BTAdK8bLikVuKxVCIMBgyaEv8LCZdi2meBGCj6WJ9/T3vvhitNk4anYVGiBPDw//QwD/SiB/o1Y/lxqDJ0Bv4NAfeGj38o6muakZpmLD+UgRtcgNvct32BMKJ1puQKTARKSYitOWTRiLpuQEgzXsZ6HAGQf7N0nsf2YziUDN03AD5Omhg+8yh192wFtr/fMpf52+w0CQzR+grZmODeNRivkCntdyAvT6DgMlh3aeNKna5crRUg6mKo4OJ9hTOX5dF6qjIvilN33rO89upC1w3a5KA9xX33TwF+YS+/mySV+9fg/lJ3CC/kDQF3hg8fbWZDf9FNNx89/y25ygL3ToD9iBslqGbJl/ItJCJoOtqst32FNy6NqmWioD/jMUH3jzX544Uc331zyqb99yS48fJPcp5AMOuBkA5lLD+XKKS1zHKqzdlTe97fqgF1WsWWX3VGxNNaTFA9AdOPSGjoWjG5BU6kImI0PMqr5CEAA9ocOeMJ+VLwXKYvgXN3/rxOPXWg2oWXQvveWmt8DhZ0xxl3NoX+17FjXb95yOuLRVVG0uay7Uy2EtW2IA5pMsEZhJGrOjmwDYHQi6fQ+7fcDxbb9qC2k2gneay/yF4VeO8jXKhEoDnt3RPn///m+cWVzre7YUpQFy4vve9A4YfhFOfqzavxdXzrBO8gxrYTkR9AaC/sChg5nAlhiyLm8zseFSoshzl8AXYJefNY3q8h1YD1o9A3Axyar5OWK6OEoOGAw99IWNd1LKDP9pR8f8O9dKAjZ1ZzZAXnrrzT/qNP0ViPuBzQa33MVqvKwcVlFgnV62KtDNM99bZshW0mYTxWySrRLUswGcJ4JOT9DlZx0j2x27RW5UaobJyDARt86pj1bQ6WWFfbsafF6FAcfe/M0T9672ZxsO+6W33HyrIP11OPeOrYeWMVw5rpKKKRCgL8jGE4cNsERWBGZA2QzziWFBgSVVLGnWKW4jV5IHoOQJSiJo97KtnB2+Q4n/mTZtSbOXmwsJG0AVhQjQ7WfL/M00WdUM73zzt0784Ru/XvU/wYv/y829EtmvGfDTro6nBxa1Ml0t0q23OaKGJALs8hwGeC68bgxAqkBs2UpbCoNCABgE2Vu8J9mSfuCk4ZYum9mlJNvfn+NQnsLwKi8vg8368mL65zd/6ztXNeqr6p/kxPff+O5U3ZPOob/2ka0uUWAyUUyWU0S8igqr5AT9lcYYm+mIRdQIuJ1ZTKVKUXNf2Nz1LgqYLGHXm0+cmFv59XVvud++5ZbQ89OPi+Dh+oa3vplEMVFWzLFwprCcCHr87GJj0SA1i8iAiSjFZGQsaC6QnZ5gsAn29zfiUpR879teeuWvVn7NX+ubX7n14K44Tv4DRG6rf2jr6/az+eALKTAepzxGWEDL7XGnYkWnl60K9LBokBrUfJrNdJiJN1ZrQY2tN3AYLDl0NOMy/zoMwJny1QM4Vk0A/uL7vm9HlJS/KoK31T2yDejwgGHPww0lD1NxiomycnuggC6nhsuLKU4vpegLHQYC15z7blQoZsBMZX9/PmWFUlF4IhgIspqkRji/Xw/zqWEp0YU3fn3VBKANS58GpKEe/iv5AuwJPewJPW4PFFhiwPly9qbV5WWVt7tYKEDbLDFgKlIe4yuYdg8YCDz0BlL4JlbjZcVqO/5XJQAnvv/Gf2SQO7cjqFr47vaAYTJSXEgUvEaLxQy4lCguJcqiQdo2Zc3e9qd4IqlQdvuCgdBDV4vcQGaTrJuorFLGeFUCoHC/2Iz/Wjo8wVC7h33mMBUrxiNjtl5AZTWcWUpxtqyVokEPHc1cnksNZy7JWpbP8hhfYTgR9FWW+dsKusy/mlgNp5bWbhV2RQLw0k037TTg7c38r8cTwWDoYSAAZtMsEZhNmL8XzcqiwR2+YDBgp0HaPANwIc6akS1wO7EwQicYrKwYttrhotSA7ywmiNd5/F2RAJRLMtQGK8S/Jqn0LN/lA0vqXm8uVM+2qZSP+cQwkqQIltKs02DJISzEp5jqLa1M45uIDTFXDAuj03cYDBx2+1KYY3wbkWj28F+4xgPvigRgfHGpZ6ijVM+4ctHmBPvbPFzf5uFCpJiMFYvM8gsnNuBclOJclKI7EPSHHscT06qWKvv7F2K26S2K5TG8gy0+gKyshu8spFU1pLoyAUjd9B41lAq6R+IBGAizavLZ1DAZpbjIc7yFNBMbZuKkMp5Y0Bt6Td3Ji2pjLs269V3i/n5hBC47xtcXOlx90r21XEoUI4vVT9m9qghwMlbsKxX/VtnlCbrafUSlbFLXZJyCc4iKZ0kNry4ZXltS9IYO/YGH9uJ/vGkFM2AmzcbwznPlrzB2eNn+Pmt/Ko1+lhQTUbqhxPaqBGAiMgwE1jKNV0InuL5NsLfNYTpWTETGJh8FlALZXm+k2FlpOby7QG0+6WqK7/4354mg4ugJsgf/Do8jrABgITWcWkyxuInP+NXHAM0wspji5h1rdgkuJEHWBrI3ABbUYaKsmI55/reI5hLDXJIilBT9oUN/6LGnQIHEahiPs/P7XNUrBl+A/tBDf+AQ8rkPIHvrP1tOcb68+e2sVZ/ylysZxXCLrpV2OMGBdg/7Sh6m4qxosMw3iMKJDHitrFlPgcChv8lmfNOVFlPgPGeFFEq7y4by9PgOLbIoXZXZRDG2tPXn0pqv+RfibHr4ULvXsvsrvgP2lBwGQ4dLlaLBS3ylKJzsDLjiQqzY4WWnB3oDadnPfbPJCvuya5NXZ/MTALuDrLdHp8/X/ZXKajhTTjET1+aTvu46/1SsiA041O4K3yt5PSJZ+8jdvo+yARNlxVRcfaUlNY/51DC/mOC1JbCnQIObibOOfazZKQZfgN7Aw0AohT2Jtllp5YjzRLm229LX3Oi/lCheWjAcbPPQzuVRlAS4oc3h+pJgOsmaiLBzWPFc0VPAdxgoOezk578hTMWK82Wt6pwzNb5WGsqzUQZgMlKcLdfnlFpVlX6LqeGlhRQ3lLJ9UlruLZ31l75cGUQ0HXPvsYhmEsVMomh3goGSQ2/gwKtge6lVHvys6C+M3ZXEms26rrbcmvpsOa3r573qUn81w9hSipnEcKCN89lX6vQEne0ebmjzMBkrJnmTKqRFNYwtpnitnFYGi3jcHqgzBTAeKSbKKWq07Uk58gToC7Nrp8Rr5yoGYCbOCpO3Y4Vrw2f9ZhPFt+cNe0OHPSW+B63kC3Bd6LAncBxEVGCJAufL2TI0twfqI7XswT8esdamCLKOnFm3Pj41rmYGTMeKc9H2bm1t6rC/WlaJeCHJugbu4iHqK6wcRFRWh8koKxrkAYLiWd4e6PCAwcBDT8iuZFuRAhgvZx3NeL00v11+1rRnp8/rYjUGYCrKtrbyOGq+pW4/i6nhOwsJunyHfSXOZV9NyQn2tXnYW3IsGiywhRQ4laY4U/5uc6FW70u+EWqG8dgwHqXgollz8wD0htnxaVbzry4FMFlWjMea6xTKmrT7m00ULyXZcuj1bfyPvhoWDbaG2ICzZcW5sqIndNgTOrTzeliTGjAZZ93MuMff3Eoue9vvDRy4I7a6uHKMvFFmz9Ss368BmE4U05ezoSt7mf2taWXR4FSkmIhZNFg0BuBCpLgQKbp8wWDIrbKV1AwTUfbGzwd/c9vlCwZCD10+m2etpayGc5FiOmqs9vJ1afi/fOPrDSpvQEwHV+ULOw22gtnEMJtko4mvCx16W/gobWqWVfXHyqX+Jra8ojkQOrTxRW9N86nhXFlxKVU0Yi1rXSf+XIizZe5dQXbj4/Sm1b2x0+BklGIyMlY/F8ySGk4tZccIB0MP/WHrND4pa/bgn4oNys910yq5rGlPX8hl/vXMVOpZLjdQvVeK8lXB1H3knwG4GBsuxil2eorB0MNuVketqSTAvpKHvWF2HnQi5gzzookMOF1OcTYSDITZvqlf0ERgLjVMlLOTEtS8uirV/F0cob0mRbb6Pb7NR/mqFYhsfwKw0lxqmFtM0Fb+brEIV49W5ySrpO0NHeZXFA3yNlocqRnOlQ3nKwWDg4FDRwFeqxTAdGWZnydempcTQW8gGAg8tOhg2KrElVXbiSYcP72tCcCyJc26Cr4Wpej3s+EPATOBNe3wBDsq44kvJNlAiKsXc6hZrSwY3OE5DASC7iZMji+nlv1zMFFtaqETDIbZiSWPr/trWkyB8Sht6hezXBKAZYlmA1fOR0BP4DBYcuhotrveNvIdMBh6GAg9zCVZp8FLXFotlPlUcSoFXi1nQ4h6w8buMriYGmYSxYXYcmlkQrXT5WXV/Lt84TL/OmaTbJm/CAXbuSYAy1bOY+/0BIMlh93sHLUmAdDlO3T5QKQOE5FhqkHOlVJtpJXhN1OxIhSgO8yuiU4v/6NW86nhYpw9+Btxr5Oq5wToDRwG2K9iXcvPqPGyYrFAn/mGSABWupwaLi+kCJ1iIHDoD4XLUOsInWBfm+D6NpcVDUbaUJWntHWRZe1xx8sK32Vval2+w07PYTvGcSypYS7J/jebNt8+J12Ny/zVSQyYiFJMRsVsVNVwCcCySLN5A2ejSiEKM9R1CbJtlJ7AYSE1TMSKaR65KpxEgWk1TMcpgBSBE3R6QIcTtHuCds8hBDa1hKtmKFu2t7moWQHffGp84BfITj8r6tvNZf51LaphvFz8wuuGTQCWqRkmo6wKfqcvGAx4jPBaOjzBAc/DDaVs2WqiQY+l0NbFaphRYOb1ptIpgOwNLxBB4Aw+sopuEQAmAAxq2XemZojNEKkgYbJYSA7ZiSK+RF3bpSQ7vz/bIllvwycAK2XLkAlK5ez8dG/ggd1V1+YJMFC58Gcr57EbtSMV1Vakhgi2nA8A15w6wQ9F0YQCDIQe+gIHnz3Y1qQGXEiyLbZWe1FqqgRgWVkNp5cMr5UNPUHWU4CZ7fq6PEFXh4dIPUzFWafBmJkAUeHs9AQDJYduPvXXFb2+v9+6XVebMgFYpmaYigxTy9sDocMunh5YV+iAvSUP15WAi5VOg3MtstxFVFSC5Wp+jmW/lstp1pZ6Ji7y7n51mjoBWCnbHqicHggFfdweWJcA6A4cugOHxRSYjBUXovS7K8ZE1PBCB/SHDv28363LkLVWH4/YWn2lwiQAyyI1nFkynF1SdIfZpD02F1pfuwfs9xz2tTlciLKiwSKddSUqms5K057uIP++EI0sO8anmIwVMe9pVylcArBseTDDcnvVwTBrr8qLZW0OlbeJ0OHyiiEuvGyI8rd81HcgdNjRwN0hG8FCapjg/JRrKmwCsNJ8qhhZBPwlRX8o6A88tPBI9qp0eoLODg+JOUzGismyImImQLTtfMlOPfWHDgEP76/rYmwYj1PWNVWpJRKAZcmK6Wu7/WxVoJOVsuvyRXBd6OG60MPFRDERGWY5f4Co7jpc1ha9hyuX60otq2GajJTzKDaopRKAZQZgJlHMJEC7UwyEDr2BwDG7Xtdu32G3D5TVYTJSTMate3yGqB5EgG4/W+bv5DL/upY0W+afirjMv1ktmQCstFgZTXym/N2hGG0sGlxXyQn2tXnYWzJMJ1mtwAIzb6JN8x3Q53sYKDmEvP2sa3ka32xirE/aopZPAJaly9WikWKn7zAQOOxihe26nAj6gmygyPzy/IGIRYNE1Wp3WdOeXt+B7x1rUzNMxca25jXGBOANDFmGOZsowrJUztg6nrG9hh2eYNjzcEPo4UKSYiJSlLkuR7Sq3UE212QnbyzritQwHhkucNx5XTABWEekhteWUpxbStEdZMfjuC+3Pt8Bg6GHgdDDbGKYjFJc5JVLBA9AXynr1lfibWRdc4lhIs7uHSwzqh8mAFVQZFP1LsSKjsqSXU/gwPMDaxMAu3zBLt9HWQ2TsWIqVvAAAbWaksvalPeGDuzSuzYFMF2ZXrrAbn3bggnABi2oYXQxxZlyil7fw0DoUGImsK6SE+wredhb8jAdG6aiFJd5gVPBdXnZMb4uzidZV2TAZDnFZKxc5t9mTAA2KVFgPEoxEaXo8gX9oYfd3M9blwMqRYM+FjQ7PTCdKFjTQ0XhUDlNVOKE0muZW9FtlPLBBGCLDMClxHApSVByQH/A+dvV6HCCA+0ebjD3enUvm3hQswpcpVsfh/KsywBMR4rxmMv8jYAJQA2VFThTTnE2yooGBwL27L4WTwSDoWAgdJhLsvHEl2Ke76XmsMPL9vc5Z2R9sRomKtt/MS/uXMSet/DGrzEBqAO1lYOIBAOBQ0/IG8R6BECXn+2XRiXDRGSY4tEfakCCrCvmYImngq5lPsl6888wqc+X6sQ9Y6OT977hy0wA6mw+NZxKU5yOlosGBSXuDa4rdIJ9bYLr21w2wztWzDMToJx5AvQFHgZDQchreE0GZNdtpJjnMn9DMMHvCq7OFSwC7QAAGGVJREFUwZgAbJPvFg2CRYNVWh5/2hM4LKTAZJTiAosGaZuVKr0teIxvfYlZpZuqIebh/cahGvuB/7HV/ogJwDa7smhQ0B84Fg1WocMDhto97GPRIG2TTt9hT+CwyxdwTtja5lPDeKSYidkGvCGJ+8h7T558ZbU/YgKQo7JaVjRYZqfBar2xaHA8MlziMSKqkeVVp8HQoYPX4rqmE8V42TCf8vprWKZ/ev3Q0EcwOrLqHzMBaACrdhrkcJB1fbdoEIjUYYKdBmkLPMmKdQdCQcALb03J8tC0WBFzBa7RfTM2e887nn8+WesbmAA0mOVOg6dF0RdIpdMgb0jrCd/QaXAySll8RFVpW27TGwgc1/nXtJAaJqIU07GBOXYzsP8pQfDj9788cnG977oiAQhELqUs3mgIqWVTsCY4nrhqKzsNcjwxrWenL9gTsk3vesyAmSTrzc/W3U3E9I+XSqX3PnDixNy1vvWKz74Bcnx4+DQg19cvOtqssNJtrI/dxqqWGDAVZQ2GIi5ZtryewGEP9/fXlSgwlaSYKCsiXjLNxfCr4ejIL98OpNV8+1VXwbHh4V8RyKO1j4xqRYCs0yCLBqtmBsymWdHgLAsFWoonQH+YjeENebmsKVvm53yOpqQ6Abifunts5E828teuTgAOH+6SNH2RqwDNocPLjhJyD7N6S2qYjLKiQa5sFlcowGDJQx/P76/JDLhYWeaf48XQpOz3VeTBe0dGJjb6N1d9YhwbOvRD5uw/OfC6aRaeAL1B1mmwjUWDVVFkLZvHI8USX3kKo8PL9vfZn39tXOYvANUJ89zP3j0y8jurdfmrxprXx7EDB+8TwRc2HRzlZqefnR7Y7Tk2MKnSXJItf15MFayDbU5dvqsU9vFDv5ZFNYxzDHdTU8Ac7NNBHP+fd5w5M72Vn7XulXLswMH7TPA5rgQ0p9Blvcv7A55trlZkwGRZMclBRE1BBOj2HPaUWNi3lqz7qGK8zGX+AvhGKnjkvpGR/1GLH3bNK+bYgQM/JuKeBbC7Fr+Qtt/y9LKB0GEn346qogBmKtsDC3xVajhOgL5Kxz72yVhdaobJyHgCpgAUGBPBL50cGXn2w6hdK4aqrpwvHT58KE3T5wD5m7X6xZSPdg9Z0WDocVmnSvOV0wPsdZ4/v1LRPxjyKOxaFjXrzT8dG5T7WU1NgRln+qux2RP3j40t1frnV30JPXfLLWG0sPBhiPsXyHquUBNzAHrDbFWgnW9QVYmX36giRcIb67YKJOvY1x86cKV/dRdjw3icYo57V01PVS87cY/Flv76/WNj63bz24oNX0pfPHDgbTB8xjn3lnoERNuv08uKBlk1XR3OO98+oQB7Kkf5+NZxtdSAqTjFRGScjlkM8wZ7wgXBb9z18stT9f5lm7rfP3nrrUHHhZmfNdNfds511jooyocvWU+B/lAQclWgKpdTw0SlqppqJ3SC60rZqGx+Eq+2VKnmvxAre/MXgeosxD0uof+J7XjwL9vStXVs//7rxLmPqLifclv8WdQ4RIBdXjYZrcvne1c1IgUm4xSTkfL0wBaEAlxXeePnDeVqFyvHVdnNshhUdcqJOxpb+kQ9l/rXUpNr7IsHDny/iPs1AX68Fj+PGkfp9fkDDh6bClyTApiOsyNXi1ySrVrgBNdV9vj5KbuSIptnMR4pl/mLQvVVE+83FsoLn3vw3LmFvMKo6bV2/MCB29Twr8W5t9fy51L+nFTmDwQOO1iFVZXZxDAepbjEJYE1BZJ17esPHbjrdKWyARPllC2rC8RM/8rgfXSxd/eXHnzhhTjveGp+yRkgx4aHfxRmjzpxP1jrn0/52+EJBgKHbhZmVWUxBSai7EbO+3gmdMCe0ENfwAf/G2WJY7bMz89LMRjwvBN89M6RkT/ZbNveeqjbpWeAPD106DaR9P+CuB+p1++h/PgO6PU9DJQcSryJX1NsWSLQynUCbU6wp+TQy+K+K6gBF2LFRJxisapBrtToFDAx/T0DPnrv6Oh/yzue1WzLNXj80KFbVe0XDXgPiwWLRwB0VeYP7GLR4DWlAKaiFOORImqRWq5OL3vw7+J8iitEmnXqm4wMKXtLFMUCFL/tBe4T7z158pW8g1nPtl6KXzp8+FCS6M+J4H4AHdv5u2l7hE7QHzr0B46d2q7BAExHivNRcQsGe/ysXe8OfhiucDnNjvHNsJq/MFQxLs4e13Lpt+47+9cX8o6nGrlclU/tvbnXlcofFMiHAOzJIwaqL0FWNDgY8OZfjdnEMBGnuBRb42wQblLoslMjHEJ1JQNwITZMRCkWWNVXHKrfVs/92z7nnvmHJ0+W8w5nI3K9Or9y+HBpKrE7IPZzDnhrnrFQ/XR4QH/goTcQOK7/ritSw2SsmIoNcROtCjgAuwNBb+ChyxMu86+QWHZ2fyIytpAuEAO+CtN/e/fo6H9spMK+jWiIy3S5YBBOf9Yg72SdQDH5ks0f6A8c2vhmeE2ziWIqMlxMG3Ooiwiw03PoCQS7fW75vNFCCozHKaYjVvMXhapGTtzT6vDxe0dGvp13PFvVcJdsZfLgh6D2Pji3M+94qD66fEF/4GF3II33IWwwaoZLqWEmNswm+Z4g8CoP/d2Bw25PwJrPKxmAS0nWCGqOy/yFYaqTcPJJD/jUnadOjecdT6007L33szfdtLNUTn7KLH3EOXdj3vFQfYQC9Ice+kOBz3XjazIA82mWCMwlhstpfWsGnAg6HdDpO+z0BZ0eE7bVLA/lGY8MURNt3dD6zPSvROTjserxeozjzVvDX8uPAu7GoYM/Dmc/A8jfzzseqo+saFAwEHroZKfBqhmAhdSwkBoW1bCgQJQqog0+gwRZ2+eSA9qcQ4cDOnzhqOhrKGvWtOdCpODx/eJQ2J+I2SeaeX+/Gk11dR87cOAmwD1ipvdxCmFxtbuspwCLBjfPkDUeSsyQGKBZVxKYCUQMDtnbvS9ZO15PmuxmkLPZyjE+dusrDgUWBfaUqj5239jYS3nHsx2a8pp/7uDBXZHiPpg+AucO5x0P1YcnQG/gMBCyaJDylx3jU0xEymN8BaLAWQd7Ii2XPt0s5/drpanvqtweaB1dnmCAneQoB7EBk1HKY3wFo4r/Lh4+sdDd/e8aYTBPHgpzK31qePhNDjgiavfz9EBxsWiQtsuiZsv807GC/fqKQYFUYF+G6tF7xsa+kXc8eSvcHfSzN920sxRF91S6DL4573ioPgRAt+8wUHIsGqSaWj7GN8tl/sJQYNqZftp8/zfvOXnyTN7xNIrC3jkNkKcPHvxhmD0ikH8CcHJtUXV4gv6ARYO0eWrAhcqDf4nH+ArEXhRzRy+XF55+8Ny5hbyjaTQtcbf80tDQgcS5DwrwACC9ecdD9bHcaXAgcCixaJCqEKthIjJMJik4l6c4VPFHnrOjd5469adFPsa3VS11l3x237722AvvgLNHAPmbecdD9SEAdvoOg6FwPDGtaiHNzu9PxzzGVxSqetnBfUE8PHbXyMh38o6nGbRUArAsmz0w9DYTecQZfhLOBXnHRPUROsFA4NAfCjxuD7S8S4lhvJxyf79AFDYiKo+XPHz+9pGRS3nH00xa/o74zPDwYAo8IGofhHP78o6H6sNJZTxx6NDB7YGWYgCmYsVElGKR7fqKw/TPDDhaGh3949vBRoybwTthxddvu81/7fTpd0L1CMT9cN7xUP10eoL+0KEncLwACiw1w3iUjeLl+f3CWILiaTh77O5Tp/4y72CaHe9/qzi2//AtcPowWw4XWyBAX+Chv+QQ8koojKw/v2Eq1oYco0yboHrGPPebuhR+ptW69dUTb3vrOHb4cJek6T2AHAF7ChRat5+1HN7JofZNaz41nI8UFxMFn/sFYfrnBhxd6O39vVbt1ldPvNtVwQA5PnTohyB2RAXvcoCXd0xUHxxE1HwuJYbzUYq5hE/9QlCNzbnfUcFj942M/I+8wyky3uE26Njhw/skTT+gKh9wDoN5x0P14YmgrzKeuMSThA3HDJhOFOfLikU27ikEVYw7wadiS5+8f2zsfN7xtAImAJv03C23hPH80j9T6BFx7u15x0P1IQB2+YL+0MMubg/kTgFMRYrzkSLig78YFP+vODsatLd/+fYXX4zyDqeV8I5WA88MD3+fAg8DcjeAHXnHQ/XRVtke6Asd+0pvs9SAyTjF+TIn8hWBqiYQPAfgsXtHR/9b3vG0KiYANfTcwYO7IsV9EDwM4Ka846H68ATorfQUYMvh+kotK+ybjBTc4m9+pjoJJ096SfKpO0+fPpt3PK2Od686WB5EJGZHAPmn4CCiQhIAXb5gMHToYsvhmkoMOB+lmCwrO7wUgv1PNXc0teS5+8fGlvKOhjJMAOrsS4cO3ZCofsBU3s+iweJq9yqnB3yeHtiKRIHzcYqJyHiGv8kpkDrgdyF47K6RkT/nUJ7GwzvVNmHRYGvwRNAfZqcH2FyoetlSv2GinPKNv+nZBTP5NHz3yXtOnjyTdzS0Nt6icsCiweITAN2VY4SdHi+ztaQGjEeK8SgF5/M0vW+q4Ggpin7njjNnFvMOhq6Nd6YcPXfw4K6yyr0m9rADbs47HqqPTk8wGHroDni5Lcv69GulT3/e0dAWKAy/B+hjd42O/hcu8zcX3pEaADsNtoaSE+ypHCNs1Qsv1mypfyriUn8zU2BaYJ9RkU/eNzLyat7x0Oa06n2oYX1h343X+0HyAUA+AGBP3vFQ7QUiGCg5DAQOrbI7sJgC41GKC7HyFbGJqepfipPHFpaWnnnw3LmFvOOhrWmR20/zefLWW4PO6el3KeSIALflHQ/VnleZRjhY4GmElxLDRJTiEtf5m5kC9gem7ujdY688z2X+4ijobadYnjl06HvS1B7ieOJiKlrBYKLAVJI17ymzXW8zu2jAZy1NPnnvq6+eyjsYqr3mv9u0kM/edNPOUhTdA7OHRdz35B0P1V6HB/QHHnpC11SFIAZgNjFciFPMxMZXxKZmL0LlcV2aP3bv+Ph83tFQ/TABaEIGyNPDw2834AjUfsI55+cdE9WWE8FuP5tIuNNv3KLB+dQwHSumE0PMt/2mpYA54A9N8NjdIyN/xmX+1tCo9xWq0ueHhvYE4j0A0wfh3L6846HaCwTYHTh0+/knAwZgLjVcjBUXE+NEvianiksQfNZT75N3vfqdkbzjoe3FBKAgvn7bbf7p0TP/WGBHxOFH846H6sMTYKcv6PIcunxBW52HERmAxdQwlxpmE8NcotC6/kbaJi9B8Vi4o+3p21988XLewVA+mAAU0LEDB24SkQ+qyv3OYVfe8VD9+A7ocA47nKDdE7R7QEmwqXkEiQFlVSwqsKiGhcQwr2BP/oJQwETxR87ZY3eeOvWnXOYnJgAF9sXBwR3S0fFegxxxwFvzjoe2jy9Zv4HACTxkKwcQQCz7f0X2YI9NkGi2f8/GPAWlOmviPuf77jffe/LkK3mHQ42DCUALMECeHhp6m8A7otDbnXNh3jERUd2dAOzxpTD84gMnTszlHQw1HiYALebZw4f740R/2gQfFOBA3vEQUW2Z6VfMvMdfGXvlax8GSzZobUwAWtRzgFceHv77MHvYxP0Dx88CUdNS1cvOyedT4In7Tp16Oe94qDnwpk84vv/Gg+olDwrwPkB6846HiKqkehLiHjfffeGekydn8w6HmgsTAHrd54eG2jzxb3diDwN4W97xENGavmawx06eOvUnXOanzWICQKs6fujQrZraQya40wHtecdDRFgw06fU7PH7xsZeyjsYan5MAGhdx/fv71bx7zPow865G/OOh6jVGDAqsCckTX/7rldfnck7HioOJgBUlUcB96bh4R824Agg7wTg8o6JqMgMeB6Ko6WxkT+4HWzTQLXHBIA27EuHDt2QqH7AVN7vHAbzjoeoKEy1LOKOK/Sxe0dHv5l3PFRsTABo05675ZYwWii/W8UedsDfzTseomalwFmB/WboeZ+54+TJybzjodbABIBq4unh4beY2UNmuMc515l3PERN4huiOHq5r/t3H3zhhTjvYKi1MAGgmjp2+HAX0vRuyWoFbsk7HqJGo6oJBM95IkfvOnXqv+cdD7UuJgBUFwbIMwcO/F0Vd8RU3+2c8/OOiShPqjolTn7LS5JP3Xn69Nm84yFiAkB198wNN+xNveABEzzogL15x0O0zb6pgqNpmn7p/rGxpbyDIVrGBIC2zZO33hp0TE//UwMedpB35B0PUb0oYAL7A1F39K6xV/4fASzvmIjeiAkA5eKpoaE3e849BLX74FxX3vEQ1YTqHJx8TlL/8bte/c5I3uEQrYcJAOXquVtu6SwvLN1lpkecc2/JOx6izTDTVwTuMQ7loWbCBIAaggHy9PDw28XsIRjeA+eCvGMiuhaFfV3MPlEaHf1jduujZsMEgBrO54eG9gTiPQDTB+HcvrzjIVpJVSNx8oyoHr17bOwv8o6HaLOYAFDD+vptt/lnRk//ExE9AnE/knc81NpMdRJOPpmo/tb9Y2Pn846HaKuYAFBTOD40dLM695Co/RSLBmk7qepfipNPJKrP8BgfFQkTAGoqLBqkbWP6x+bcx+8eGfkzHuOjImICQE1puWjQgCNQ+wl2GqRaUGBRTL8A4Og9o6Mn8o6HqJ6YAFDTO7Z//3Vw/vvZaZA2S4GzDvZEEMdP3nHmzHTe8RBtByYAVBjLnQYrg4h+KO94qPEp8BcC+1ipvf252198Mco7HqLtxASACumLBw9+r6g+LOLuBbAj73iosajijwTysbvHXnme+/vUqpgAUKEdO3y4C4ndJ2JHANyUdzyUqyXAnhLVT9w1NvbXeQdDlDcmANQSDJBnhod/xLLtgXcCcHnHRNvDVCch7onQd5+64+TJybzjIWoUTACo5Tx94MAQgA9C5P2A9OYdD9XNCZh+LDY7xvP7RFdjAkAt6/NDQ22+eHcY9BEn7ta846HaMNX/CsGvnxwd/aMPA5p3PESNigkAtTwD5NiBA3/bmfsQoHdwEFHzUcAc7PdN9aP3jI19I+94iJoBEwCiFZ4ZHh5Uk/er4CH2FGh8qhrBuacM9hv3nTr1ct7xEDUTJgBEq3jy1luDzunpd5nKI3D4O3nHQ1dSxSURfDKx9DEO5iHaHCYARNfw9NDQWwHvCBzuBtCWdzytTBXjTvBx892n7jl5cjbveIiaGRMAoio9tffmXi+M3gfTI3Buf97xtBIDRh3so34cf+GOM2cW846HqAiYABBt0Ndvu81/7fTpd5rhZwS4Le94Ck3xsgl+daG3+5kHX3ghzjscoiJhAkC0BV88cOD7HdzPmOld4lwp73gK5CVR/MtgbOTLtwNp3sEQFRETAKIaePbw4f4oTd9vkCM8PbAFipfNw6+URkae44OfqL6YABDV0JO33hrsmJ7+Saj9HJz7W3nH0ywUNiIm/3Lf0A3H3/H880ne8RC1AiYARHVggBw/ePAHoPg5CN4Nzh5YlQGjgH1koafnKe7xE20vJgBEdXZ8/40HzUt+FpCfBkcTAwDM9BVz7iOL3d1P88FPlA8mAETb5Nl9+3qiIHgIav+7ONefdzw5+aYo/s3eAzf8Oy71E+WLCQDRNnvyuus6drS13W+QnxfgQN7xbAvFfxTRj905Ovo1ASzvcIiICQBRbr5+223+2dHT7zHoPy9iwaACi05x3Dl7/M5Tp76VdzxEdCUmAEQ5M0CeOXjwB1OzD0HtJ5xzft4xbYUCfy2wz4RZ177pvOMhotUxASBqIM/ccMPe1PfvF8j7AAznHU/VVOcg7suAPnXX6Oh/4TI/UeNjAkDUgB4F3JsOHPg7Btyn5v6Zc9iVd0xvpKqRc/IVmPud+fLCHz547txC3jERUfWYABA1uK8cPlyaTtO/B5N3w/Qfw7mBvGIx1UmB+6o5+w/lMPzqAydOzOUVCxFtDRMAoibyKODedOjQ3zDVHzPIbaL6A3BuZ71+nwLTUPy5E31ePO/rL7/yyv/3YUDr9fuIaPswASBqYs8BXnLo0M1pan/LgLc4se9RtUMAhpxzYdU/SHUOzo3AcBJiL5rZt33ff+F/O3lyhPv5RMXEBICogB4F3MG9N3c7Pxl0YrtU0p0QCWDmOecSmEUKXDLnZtpKpfO3v/ji5bxjJiIiIiIiIiIiIiIiIiIiIiIiIiIiIiIiIiIiIiIiIiIiIiIiIiIiIiIiIiIiIiIiIiIiIiIiIiIiIiIiIiIiIiIiIiIiIiIiIiIiIiIiIiIiIiIiIiIiIiIiIiIiIiIiIiIiIiIiIiIiIiIiIiIiIiIiIiIiIiIiIiIiIiIiIiIiIiIiIiIiIiIiIiIiIiIiIiIiIiIiIiIiIiIioqr9/xBtI/S1fWgpAAAAAElFTkSuQmCC;" vertex="1" parent="1">
          <mxGeometry x="866" y="32.29" width="150" height="150" as="geometry" />
        </mxCell>
        <mxCell id="wrIWGmj25VYRmt1726Kr-13" value="" style="shape=image;html=1;verticalLabelPosition=bottom;verticalAlign=top;imageAspect=1;aspect=fixed;image=data:image/png,iVBORw0KGgoAAAANSUhEUgAAA4QAAAOECAYAAAD5Tv87AAAABGdBTUEAALGPC/xhBQAAAAFzUkdCAK7OHOkAAAAgY0hSTQAAeiYAAICEAAD6AAAAgOgAAHUwAADqYAAAOpgAABdwnLpRPAAAAAZiS0dEAP8A/wD/oL2nkwAAAAlwSFlzAAAWJQAAFiUBSVIk8AAAgABJREFUeNrs3Xe8HFdh//3vmbJ9b9VVly33boyxjTHGgCkhhISWkBASiAmE5EnyS33SHtJI8iO0BEJJQkIJvTkGDDZu2Ni4V/UuXXXp9rJ9Z+Y8f8zu3r0qtizLKnc/79dL0t3V3i1nZ+bMd06TAAAAAAAAAAAAAAAAAAAAAAAAAAAAAAAAAAAAAAAAAAAAAAAAAAAAAAAAAAAAAAAAAAAAAAAAAAAAAAAAAAAAAAAAAAAAAAAAAAAAAAAAAAAAAAAAAAAAAAAAAAAAAAAAAAAAAAAAAAAAAAAAAAAAAAAAAAAAAAAAAAAAAAAAAAAAAAAAAAAAAAAAAAAAAAAAAAAAAAAAAAAAAAAAAAAAAAAAAAAAAAAAAAAAAAAAAAAAAAAAAAAAAAAAAAAAAAAAAAAAAAAAAAAAAAAAAAAAAAAAAAAAAAAAAAAAAAAAAAAAAAAAAAAAAAAAAAAAAAAAAAAAAAAAAAAAAAAAAAAAAAAAAAAAAAAAAAAAAAAAAAAAAAAAAAAAAAAAAAAAAAAAAAAAAAAAAAAAAAAAAAAAAAAAAAAAAAAAAAAAAAAAAAAAAAAAAAAAAAAAAAAAAAAAAAAAAAAAAAAAAAAAAAAAAAAAAAAAAAAAAAAAAAAAAAAAAAAAAAAAAKCzGIoAANCJxkd3acMTd8mdWqkLrvwFZZddJ2OoFgEAncWhCAAAnWbH5sfV07fESaazL3Vc/5VuMn/p8Mr/UWVsI4UDAOgoBEIAQEfYu2ONfvT1f5S11q3XKtfd8pW//7fVD9/yo+Lo4J1j6793k2T+IayXT7PWmrGN31e9uJ9CAwDMefSNAQDMeZtX36uzLnpZ8rF7vnZ+aXrsrzavuu+lU2P7lhSnR3XVBf1avigvJ9WvRH7x2szCy25KdC390sYb377xwrf/QJkFL6AAAQBzlkcRAADmou2bHtOjd31Fd33n4zLGec0Pv/y3vzA5svuGPYOrs/VaWdZaGeNKciQrBcVhBeWxC6sTg+enBy56z7KXvf9f5Xg3r/iPS9YufsmfKrf0aqX7z6NgAQBzCi2EAIA5JbKRVj90sy65+hdSKx/87jmj+wf/avuGR18+PrRjUbk4IWNmRktYK115fp+WL8oqimzbs1j52QXysvNX5Za8+HY3mf+X7jNes7e491GbW3wVhQwAmDMIhACAOWHTynvkeL7OuvClWvv4ba/auenxX963Y90vDu/Z3FurFBstgrOrvcMHQkk2khxPbiJn0wMXDnnZ+R/rOu3a28sj61cku5bJeCll6U4KADjFEQgBAKe00aFBbXzyLl392ncnNq68+7LBdQ+9d2jXxrfs37Whr1YuSE+zlMTTBsIDeJl+JbqWrcssuPSWZM8ZH80tvmpoavvdUdfpr2S5CgDAKYsaDABwytq+8VGdds4V3pP3fftFk2N7f2/b2gdeNTm6Z1GpMC4j87RhUHp2gVDWSo4jL9WjZM+ZW5N9Z30hM/+S701t/8mq3rNfr/S88/lCAACnHAIhAOCUsntwpZ6455t6w7v+0dm2/sHr1j76o7dMju5+955t7ZPFHFn19qwC4cxvSXLkprptqv/cHcnu07+YW3zF/6QHLh4c2/Bdm198pRJdS/miAACnBAIhAOCUsWHFj3Xupa9MPf6Tr59TmBx9/5bV8fIRpekxGefZL617dIGw9duSjLzMgPz8wjW5RS/6vpdd8Ll7//zlW67/+FPKLryMLwwAcNIjEAIATmqDGx/R6odu1vjwLr3kZ254zYYn73rj+PDOd+0dXJN7ti2CB3pugbDtSRxXbiIXpQcuGvGyAx/tOu1lt46u+ebqZM8Zyi+9Wul5F/BFAgBOSqxDCAA4KVUq01r32O06/ZwrU9Pj+89NZ3v+7Kc//M9Xje0fXFguTraWjzjhE7oYI9lIYXXKKex8YL6Xm//h6vjWX88tueoON9X7kVT/+fundz1k80uv5ksFAJx0aCEEAJw0rLXasOIuZXJ9Ou3sy7X60R++cu+21e/YvW3lm0b3beuvlqbjjprHKAQekxbCg560uVxFXumB8/f62YUfzy+75rbyyIYV2YWXKqwVlV34Qr5sAMBJgUAIADgpDO/drPVP3KlrX/8+f/Pqe1+0ZfV9vzGyZ8sv79u5rqdWKTYedWyrreclEB7AS/cp0bN8Q2bgwu+n+s/71+zCy/dPbrsz6j7jehnj8sUDAE4oAiEA4ITbtuFhLT/3Kv/xe77+gsLUyB9tWf3TV0yN7V18pMtHHK3jEQhlrWQceeleJXqWb0r3n/fV9LzzvjO67sY1A5e+U5mBi9gAAAAnDIEQAHBC7Nr6lB6588t683s/aratf/CVax+99U2To3t+c8+21ZnnOlnMkTougbD9xRxHbqLLpuedv9vvWvrZ/JKrvp4euHjz2LrvKLf4SiV7lrNhAACOKwIhAOC4stZq/ZN36PwXvib1xL3fPHt6Yuivt665/6WTo3uWlKbHj2r5iKN/L8cxEM68qiTJz86Xl12wOrf4ylu8TP+//8ny6wc/se8JZRdezkYCADhuCIQAgONi2/oHtXPTE1r72I90/Vv/+DWbV9775tH9g7+2b8fafL16fFoED3RiAmHzxZuTz+Si9MBFo15m3oe7Tr/utumdD6xyvKSyiy5XZuBiNhwAwPOKQAgAeF5NTw1r45N36fLrfjm19vEfnb93cPUf7d668nUje7fOr5SmTuiyESc0EM5+J/Iy8+XnFq7OLb7yDi878KGu064bLux6IMoveykbEQDgeUMgBAAcc9ZarXviNuV7F2jpGZeZVQ/ffN3Qro3v2rn5iTeM798+UC5NSTrxawiePIFQjRZDV26yS6n+83Yn8ks+lVty1a3lkfUrcouvVFgZV3bRi9i4AADHFIEQAHBM7d+1XmsevVWvfNMfelvW/vTFm566+x2j+wffsW/72q5ataR4DN3JUf2cVIFw5l1JMvLSvUr2nLkpNe+8GzMDF30qs+CyvRNbfhR1LbtGbrKbDQ0AcEwQCAEAx8zWdQ/ojPNfknjsnq9dVJwa+7Mtq+972dTYviWl6TEZx+hkq3ZOzkDY9uaMkZfuV6J72YbMwEXfTPae+Y29j3xy3dJr/1KZ+ZewwQEAnjMCIQDgOdm55Qk9dNsX9Iu/82/atu6BV6197EdvPN7LRxytkzoQtr9Jx5GbyNv0wIV7/dyiT+eXvuTGK+dfvOEnq7+u3JIrleo9mw0RAHBUCIQAgKNirdXax27VhVf8bPrJn37nrMnRPX+9bd2D106O7F58vJePOPrPcAoEwpl3K0nyswvkZeevyi256jY32f2J7jNevau47wnlGF8IADgKBEIAwLOyZe1PNT0xrM/94y/qd//v7a/ZtvaBtwzv2fz2oZ0bumvV0kndInigUysQNt90a7kKmx64aNjLzPtI1+nX3V7av3Kl46WU6jub7qQAgCNGIAQAHJGJsd3a+OSPdeX1v5Zc/+QdF+/a/OTv7t2+5ueH92yeVylNnzIhsN0pGQhnfwJ5mQEl8ovXZBddfpufX/zh/NKXDk/vuC/Kn/ayU/I7AQAcX9QUAIBntGPz41p21uXOigduesnY/sH3Dm545HUTw7sWlIuTkk788hFH69QPhGpbrqJbqb5zdiS7T/vP7KLLf1AaWr0yv/RqpfrOYQMGABwWgRAAcEh7d6zRyge+p9f+8l+6W9c9cM36x+/45Ynhne/as311rl4tt2bBPJXNiUA482kkOXJTPUr1nbU11XvW1zMLL/tsZv6lOyc2/cDmlrxYfnY+GzYAYBYCIQDgIJtX36ezLro2+djdXzu/VBj7q82r7nvpzPIRJ/9kMUdqbgXCtg9ljLzMPCXyS9ZlFr7gxkTX0i9vufm9G8976zeVWXApGzgAoIVACACQJO3Y/JgevuPL+tKHP6GP/+Cnr173+O1vnBzZfcOewdXZk335iKM1JwNh+4dzXLmJXJQeuHDIzy74eP60a7+/5vMvXbf8Z/9NuSVXK91/Lhs+AHQ4AiEAdDhrrVY9fLMuefHPp1Y8cNM5Y0Pb/2r7hkdfPj60Y1G5OCFj5k6L4MGffQ4HwtmftG25ihff7ibz/9J9xmv2Fvc+ZnOLr2QnAIAORiAEgA61adVPZIzR2Rdfp3VP3PaqHRsff9u+Het+aXjP5t5apTgnWwQP1DmBUAcsV3HhkJed/9Gu0669ozyyfkUit0hOIqfsghewYwBAhyEQAkCHGR0a1ManfqyrX3NDYuPKu18wuP7h3xraueEt+3dt6KuWCx21VEFHBcLZnzweY9i1bG1mwQtuTfac/tHc4hcPTW2/J+o6/RUsVwEAHYQjPgB0kO2bHtVpZ1/hPvnTb185Obrnd7etffDVk6N7FpYK4zIyp/ysoc9W5wbCxod3HHnJHiX7ztqW7D3z85n5l3xveuf9q3rOeq3S/eezwwBAByAQAsAct3twlZ78ybf0c+/8gLNt/YPXrXv0R2+ZGN397j3b5u5kMUeqowPhTCkoXq6i26b6z92R7D79f3KLr/hieuDiwfEN37W5JVcqkV/KjgQAcxSBEADmsI0r79Y5l7wi9fg9Xz+nMD36/i1zdPmIo0UgnFUakoy8zID8/MI1uUUv+r6fXfC5B//p5Vuu/YenlF1wGTsUAMxBBEIAmGMGNz6ilfd/VyN7t+i6X/jd12x48q43jg/v/I29g2s6vkXwQATCwxRKa7mKi0a87MBHu0572S3DT31xTXrgQuWXXq30vAsoJwCYIzgjAIA5olotaN1jt+kF17wlterhm88d3r3pz3ZufuJVY/sHF5aLk3N6+YijRSB85gLycvPlZxesyi256g431fuR7uXX7y/sedjml1xN+QDAHEAgBIBTmLVWG1f8WOlcj047+0Va8+gt1+/Zturtu7etevPovq391dJ03BGQFsHDlB+B8JkLqbVchdIDF+7zswv+Nb/smtvKoxtWZOZfrKheVnbhCyknADhFcYYAAKeo4b2bteHJu/TSn/0tf/Pqn7xoy+r7bxjes/lt+3eu76lVCuIQ/8wIhM+el+5Xovu09Zn5F9+c6jvnX7OLXrR/ctudUfcZr+bCAwCcgjhyA8ApaHDDwzr93Kv8x3/yjRcUJof/aMvqn75iamzv4k5dPuJoEQiPstCMIy/dq0TP8s3p/nO/nJ53wY1jG767ZuDidyg9cCFlBACnEM4YAOAUsWvbCj1655f1pvd8xGxb/+Ar1j5665snR/f85p5tqzNMFnN0CITPsfAcR26iy6bnnb8r0bX0v3NLrvpqeuDiLWPrvqPckiuV7F5OOQHASY4zBwA4yVlrteGpO3XeZa9OPf6Tb55dmBz6661r7n/p5OieJaXpcZaPeE5lSyA8BqUoSfKy8+VnF67OLb7ih16m/z8+svz6wb/c9yTjCwHgJEcgBICT1Lb1D2lw3UPauvZ+veznf/c1m1f+5E2j+wffuW/H2ly9SovgsUAgPJaF2Zp8JkoPXDTqZeZ9uOv0626b3nHfKsdLK7v4CmUGLqKcAOAk41EEAHByKUyPaMMTd2n5eS9OlabHzg/D+h8/+KPP/czI3q3zK6WpVggkDOKkYhzJRgqrU05h1wMDXmb+R6oTg+/MLbnyTi8z70PpeRcOT++8P8oveyllBQAnEc4mAOAkYK3V9o2PyvV9LT3jMrP64Zuv279rw7t2bn7yDWP7tw9USlOSCIHHvtxpIXz+CrfRYpjMK9V//u5EfvEnc0te/KPyyLoVucVXytpQ6b5zKCcAOME4swCAk4C1VpK8LWvuu2rTint+fXT/4K/u2762q1YtKR6jxeH6+Sl3AuFxKGVJRl66T8meMzal5p33v+l5F3wys+AF+xzHCykfADix6DIKACeBsF4165+86+8euetLN0yO7l1cmh6TcYziIEgYxKks3n6D0qiC8tg51Yltf14Z3/omK31M0n9RPgBwYhEIAeAkUK+WnF2bH3/FyN6ti+u1CjOHYu5pdHeul4ZlHP+88tDqJRQKAJx4nHEAwEkispGVmDkUc5uRkWQlSx9dADgZEAgBAAAAoEMRCAEAAACgQxEIAQAAAKBDEQgBAAAAoEMRCAEAAACgQxEIAQAAAKBDEQgBAAAAoEMRCAEAAACgQxEIAQAAAKBDEQgBAAAAoEMRCAEAAACgQxEIAQAAAKBDEQgBAAAAoEMRCAEAAACgQxEIAQAAAKBDEQgBAAAAoEMRCAEAAACgQxEIAQAAAKBDEQgBAAAAoEMRCAEAAACgQxEIAQAAAKBDEQgBAAAAoEMRCAEAAACgQxEIAQAAAKBDEQgBAAAAoEMRCAEAAACgQxEIAQAAAKBDEQgBAAAAoEMRCAEAAACgQxEIAQAAAKBDEQgBAAAAoEMRCAEAAACgQxEIAQAAAKBDEQgBAAAAoEMRCAEAAACgQxEIAQAAAKBDEQgBAAAAoEMRCAEAAACgQxEIAQAAAKBDEQgBAAAAoEMRCAEAAACgQxEIAQAAAKBDEQgBAAAAoEMRCAEAAACgQxEIAQAAAKBDEQgBAAAAoEMRCAEAAACgQxEIAQAAAKBDEQgBAAAAoEMRCAEAAACgQxEIAQAAAKBDEQgBAAAAoEMRCAEAAACgQxEIAQAAAKBDEQgBAAAAoEMRCAEAAACgQxEIAQAAAKBDEQgBAAAAoEMRCAEAAACgQxEIAQAAAKBDEQgBAAAAoEN5FAFwYuzY/Hjr59POfhEFAgAAgOOOFkLgONu06ifxD9ZmwqD2pu6BM1LfeaW056F/UXFolay1FBIAYM6y1mrlAzfp6//2vuZtz1prxjZ8T/XCXgoIOM5oIQSOk9GhQW186m7NW3Tmogdv/8J1T9z7nT8qT+w8+/pXv27jyz722Q9bG21Mdp8+dc+fmF0ja7+t3JKrlOo+nYIDAMwJW1bfp61r7pcxRjs2Pnqan0jn7r/1v6996NZPv+vMZfPuSXcv+eJjn1i+qbh/hbILXkCBAccJgRB4HgVhTWseuUX33fwZpbPdXcaYt91782du2L11xZWTo/v8nqyj8XWFlxjH/Way+7Rw6InPbjjjdX/yVRlTdNzEbeu+8jNbZUP5XcvUtfzlyi25Sun+C2SMoXABACcla622b3hYqx66WWsevVW1SlGu68txvStlzFVf+ODbex6+68u/OrZv8Iwtq3/qd2U8r/fK06+uL7j4N8983Sf+xTjeD9Z/4+fX9l3wVuWXXq10//kUKvA8IhACz5Pdg6t047//kV7+xt/rv/bn3vcLt37lA+8Y3Td4/dj+QROGgSQjKaEorMmJTKIyskGVkfWXOYnsZVP1kiY3/fCx7OIrdueWXDVeHt34D352oJTuv6Cy/Y4/nRjbeLO6l79CbiJPQQMATgpb1z6g3Vue0s8tNfrBjnrvlrX3J699/fvOc1z399c8cov3o6/944WSzpka36c9g6sU14NGYWAVVqecwq4HFvjZBR+qjG/9tYEX/MYdbrLro6m+8/YVdj9ic0uuooCB5wmBEDiGRvZv1cYnf6zegWXq6l0wf9HpF73y8Xu+/ueD6x4+vzg1mq7XKjKOI2OMDhoqaOKKMaqXVJvYJhlzRVAev6IytlHG8d9gg3JUm9671nipTzluouD4uXv3PPgv5fySF2to5RfVe+7PKz1wkdK9Z/FFAACeN9ZaDe/ZrFUPfFcLll0ga6xWP/wDzVt0Zv++7Wuue+ef/07XXTf+y+/s27HujH071iUd1+uu18oKg5okyRhHxjiN52p/ZqN6YZ/qpZFLapM7Lk4PXPiO6viWj+WXXXv76LrvrEj1niUZo+yCy/gSgGOIQAgcI4MbH9Efvf5M/dM3HstMju5514+++g9vnBjd8zMje7bI2lCSkXGOZB4n0wiHkg1rsmFNkuYVdj0kGTPfS/W+YmLzjwpja7/zg1T/uRNRWFnp+NkvpQcuUKrnzMqu+/4p7D7zNcosuEyul+CLAQAcE+XSpNY9+iN94YO/ohv+8hv+wNJzEqP7BzPd/Yv+IIqi/q987N3L0pmunxsf2aWta+8/6PebIfBpGUeykcLqlCnsemiBl+n/cHVyxw2ZBZfeYqP6R7OLrhya3HZX1LX8eoZPAMcIgRB4jqrVotY9dpv6Fpy++L1//5mXrHzwe+/fvuGx8wqTw+mg0SIYd4s5BqxVUBpVvTSSM473K2F1UsV9T5SN4//B5JY7NO399EbjJn7opXrKjuuvHVrxP9VU3znqWnYNXxQA4KisffRWbV33gFLprnQq23VRIplJ3n/LZ39taNeGVw5ueMT1/OTZtWpRtUpJY1EoxzitC5vPVVAcUVAau6A2uf2CZM+ZbyoPr/uf9PyLbtrzwIdWl0fWKT3vAr4g4DkiEAJHwVqrjSt+rPMue5XqtXI6isIb7vzmh986vGfzK8aGtjs2DCVzpC2Cz5IxMjLxFdTatCSlJee8iU23yBjnr/zcoj8fW/vtsbBeujHVd85eG9Vu2/fk5x5bcNm7ded7THjx+z6p7rNeq3TfuVxdBQC0WGu1/sk7tOL+m/Qrv//vstY63/jk75gwrP+StfbcL3/sN05LJNK/ND68M7try1OulZWNIllrG/nPyHHcY/umjJFkFZTHFFQmzqqMb/776sS29yS6T/uCjYIvWWu3ja2/yeaWXKFk12l8icBRIBACz9Lw3i26/9b/0gVX/MzCh+/60vV3fusjv7tvx9orJ0f2+EFQjbvEHLeg1XwdK1krayPVJne41cnBAcdL/XZ9ercmt9Zu8NL9u0bWfCO49Pc+/1FjzMZU3zmFh/7B2Tu2/rvKLHohy1sAQAfbsuan2rHpcRljNLxn05JEKpt55K4vX3v7N//5HaP7tibvvfkzl4ZBras4Pa4wqDXGAM7Uc8fn4qKRrFVYmTCF3Y+c5o1v+9vyyIa35hZf8QMvO/BfN77htK3FfU8pu/AyvlDgWSIQAkegVJrQ+sfv0J5tK5XJ9/Y4jvOm+2/57Pt2bX7i8umJoURQr84aJH9CGSMjVzasq17YJxmzPKpOLx+b2iVjnKuTvWcG+x/91PrF1/zZl2WcouNn7tz2o/+zPdl9uqrj25RdcoW6z3ytErlFtCACwBxirdXWNfdp3eO3a3J0r3Ld87Rzy5PyvMQLjXGu+J8P/VrP/bf816+N7Nly5uaVP0lINhEGgaIonhnbmOehBfBZi+uloDikoDx6cW1y+4XpgYveff2//vtHjevfuvv+D632s/OVX/JipQcu5EsHjgCBEHgGm1bcra986F16ww3/2Ou6/ltu/crf//L40M7XjO7bpjAMZIw5OYLgobRmcQulMJSVUuWh1SoPrb7CSeSuiOpFTWy8+SG/a+nOVP+545L5Jz+3sJTILSrsuOsvKhNb71TXadfK8VJsCABwitq9baV2bHhUH/69K/Rnn3osvXPLU9mBxeecF0Xh7w7t2ezd+tV/uNhx3Qsmhndp19an1Ax/TSdlHWdMc/IZp7Dzgflebv6Hq+ODv55bcuWdXrrvw6l5FwxN73owyi99CRsA8AwIhMAhrH/yTtko0vjITnX1Llx0zmWvfNmT933nrwbXPXTugctHnHIa7zmqF1QZm5YxztVBefTqyvBayfF+IQqKYW1y161yvO85Xqpo3OQDex/6eDW/7BoNr/ySus9+ndLzLmB5CwA4ycTLQWzS2kdv0QUv+lmN7t+mlQ9+T4uXX9K7Z+vKaxYsOz9xy5f/9q3jI7teObRrY8oY01erlhTUq5JVo147SS9wPh1jFBT2KyiNXlKb3HFJet75v1IZ2/zx/NKrbxtd++0V2UWXK6xOKbvwhWwkwCEQCIEDPHHvt/S2F75aX7z3W+mgVn3v7d/85zeUS5OvGd03+CyXjzjZzVwBjoKKpLIks7Cw80HJOO/x0n3vGd9489TIyi9/L9V37nhYL610k91fzS56oRLZxbXd938oyi+9WvnTrqNrKQCcQJXSlNY+equ+8tHf0K/96RfdxWdc6m9b90Amnev5vSgK+//z737htEy2541jQ9tNvCB8k1VcFzjHbDLsE6a1XMWkCrsfXuSl+z5Um9zx7vTAhd8LKhOfyC68fN/Eltuj7uUvl3GTbDRAGwIh0LBj06PatPJedfcvXvLBL//dNRufuvv/279r/fnlwkQyDOrHdvmIk1LbZ7ORguKw6sX9Xcbxfz2sTqq074mS8VJ/OLHxB3L83I3GS/3Qy84fvfXXzNahFV9Sqv9sdS1leQsAOF7i5SAeVDKdT6VzPeclUpnEQ7d/4deHdm985bZ1D3mu659fqxRUrRQ1Em09xHIQc7dOC0qjCsrj51UnBv8sMbTmzeXhdV9N9Z/z7cE7/2JtaXiNMgMXsQEBDQRCdDRrrR687XN6y+veI2tt1lp7w0O3f/Fto/u2XVOcGnWjKIzHCM6JFsFnqTE5TfOKq6wycpyLJzb+QHK8ixK5xX81Whped8E7fvcmyVYUhXdMbL/7ie7TXqGH/t7YM3/+s8ovfznLWwDAc9RaDuKB7+pXfu8zstaaH37pr2Vt9BYre85X/+Xdp/vJ9C+P7hvMDW54xLdRpCgK4+UgJOmkmAzmOGsuV1EaVVAZP6c6vvVv0+Pnvzcz/6L/kLXftNZuGl37beWXXKlkzxlsZOhoBEJ0rHVP3K7//c8/1gVX/syCr974sdfdd/O/v2diZPc10xP7nSiKGpPFEGRiJr6QbG3cbTYKTXV8q18dt5caL3VptP0nmtp6+296mYEdYXk8OOvNX/qY4yU3pfvOLT72sYGhsQ3fU2bhZSxvAQDPwta25SBGhwYXJFPZzOP3fOOae7778Xds3/hYcsemJ14YBrXe4tSoghO2HMRJzjSWq6hOmMLuh5b4Ewv+oTK68W25JVfd6mX6P3Npzxnbi3ufUHbR5ZQVOhaBEB1lcMND2rzyPkVRoEyupz+V6XrDqgdv/oO9g6surJQLyUOtr4TDMEaSkQ1rqk/vkYw5O6xOnV2b3CkZ59pU/zn1oDSybv4L3/M/Mm7RS3bfvePu9+/KLrpcxb1PKjNwobqWX69EbgFlCaCjxctB/FTrnrhdyXReqXROG1fcIz+ZvsQ47uVf+sg7e376w/9858ieLWdtXnlvSrLJIKgpCgNJ8SygHdcC+KzF9Xq9sE/10sgltckdF6UHLrrhJ4/9+4eNl7x9aMUXVxrHV3bBC5SZfzHFhY5CIETHWPngd/XFD75Dv/DuD3YXp0bffvdNn3hLaXrsNRMju1uPOSVnVzsZNJe3iELZqCxJmdK+J1Xa++TVTjJ/ta2XNbHx5vv8rqU73GTXcCK/+COJrmVlPzu/uP2uv6h1n/FqlrcA0HGay0F87A+u1p984qHk7m0rM919i5fUqqX3up7ff+tXPvAC47gXjw/v1M7NT7a6fzZRZx2F1uQzU05h1wMDXmb+R2qT29+VXfSiO/zsgg+lBy4antr506hr2bWUFToGgRBzXr1e1iN3fFn53gWLL3/5L79086p7/3bPtpVnVcqFVLNFEM+HuJtpVJtWeXRSxrgvC0ojqoyslYz7S1FtOqiMb7lFxv2u42dKxk0+su+x/6jlFl+p3OIXUXwA5qSxoR0a3rNJqx78vhYvv6Rr7+DqFw8sOSfxo6994BfHh3de/9jdX08ax1lQr5ZVr5XbloOg58qxZxQU9ysoj1xcndx+car/vF8qj274dG7JVbeOrP7GitySK5ViiSV0AAIh5qzH7vm6rn3F27VpxT2pIKi9777vf+bnpyeGXjU5tk/xVNtcXT0+jIyJuzJFQVkKSpLMkqnBn0jG+R0v3fc7ExtvnhhZ+aUb0wOXjEdBedXOe//xGwuv+h15yb76ngc+bFneAsCpaHJsrzY+dZc2PHGn3vEnX3AG1z/kDa5/KJNM5X4nisK+z/79m07L5HrfOja03d0zuErWSpKVrI0n9poLy0Gc7IwTjzGsTKi4+5GllXTvB2tTO34z1Xfut8Pq9GestXsmttwa5Ze+RF6ql/LCnEQgxJyzdd0D2rLqXvXMW7Lkpq9+4NoV93/3z4f3bLqoND2eCMOAUHHCNcvfSjZUUBxSvbivxzj+b4bVKRX3PFJwvNQfjq37X7mJ/HeMn77Fzy0au+cPzY7hVV9TZv5Fyi54AcUI4KS1bd1DWvv4j9Tdt0hrH/vR+YlUNvXIXV/+tf0711+/feNjnuu4F1fK06ZSmtJwtPng5SCop06AuMzD0piK5fGzqxODf1keWffm8sjabyd7zvja5u/dsL40tEqZ+ZdQVJhzCISYE6Ynh7Tip/+rT/zZb8vzEnlJv/7InV95x/CezVeVCmNeFIbMGnqyal/eojwuSTk5zgvrG/ZKjveCRH7x34yURtYs/5nfu1FSRVZ3WWtXSNKKz1ykRS/5Q3Wd/nKlWN4CwHFmrdWGp+7U2kdu1aff/y+6cyjufTK4/uHXSzr/P/725/MrH/zeb43v394/uOGRRBSFxkahoihU3HuiA5eDONk16pGgOKKgPHZ+dXzr+9MDF76n95zXf1LG/O+HpQ03rPqq8kterFTf2ZQX5gQCIU55ax+7Vd///F/pBS998/z/5x8//nM/+d4n3zU1tu/lU+P7xPIRp5jm92StrA2kKHCqY1uSVW2+3Hjpy6cH79bUltvWe/mFg/mlLwmWXPf+jxnX35zqO7e08j8uHRtb/135XUuVX3wFZQngebPxqbu0d8daGWM0ObZ33rY1D6Q+dtON19z7/U/+6upHbk16nn95vV6ZX5gc0ejebY3un0wGc0ppLVcxaQq7HlzkZxf838rY5rf/5rrv3OYmuz6e7D1rd2HvY8otor7BqY9AiFPSljU/1eZV9yqd61Em3ze/u2/Ra9c+euuf7t668rxqZWayGILgHNBa3qKq2tROSeb8oDJxfnVsi2ScV6T6z62F5dE1fRe89YtyvEKq98xbd977D9P5ZS9VZWSdvHS/us64XonsfMoSwLNirdXOzY9rzaO3aMkZl6lWKWjNI7colek6x3G9K77+iff13Hfzp39jeM+Ws9c8emtaUjqoVxUG9XheLePIOIS/U9tBy1VcnB646J2VsS0f6Tr9ujtG1nxzhZvIKdm9TJn5l1JcOCURCHHKWfHA/+pf//hluuEvv5YvFSZ+/Z7v/tsbS9Njr2X5iA7QWt6iLhvVJSlX2vu4SnufeJmb7H5ZWJ3Q2Jpvfi/Vf96YjBk2XupjyZ7lFT8zUN5x99/Uu894pXJLr5brpSlLAIe1e+sK7RlcpU/82Sv0Bx++J7F7cFXK9bzFxpjflNR/y1c/cLHvp64cH9mparnY6NzQ1gJICJx7ZparMIVdD8z3MgMfqU3uWJNd9MLbvFTPh9MDlwxPbf9JxARoOBURCHHKGBvertUP/1BdvQuX/Mzb/+olW1b/9O/2DK4+q1KeZvmIjtaYCKA6oaAyJmO8N5b2P6XK6DpZmbeFlfGwMrb5B8b1vuskcmXHTT2+/4n/DrILL1OOrqUAGuLlIDZr1UPf1+IzLs2N7Nv6onkLz0rc+Z2P/OLo/sFX7922KuU47uJataRatSzZiOUgOpZRUBxSUB69qDq5/aJU3zlvLY9u+Gx24Qt/MLziCysrYxuV6juXYsIpg0CIk94jP/6Krrr+1zSyZ2s6CoPf+ukP//MXJkf3vnJ6Yr+xNlI8MJ8wiObyFlZRvaioXpRklk8N3i1jnD/wMvN/f2LD9ydGVn75W+mBi8ZsWFu9+/4PfWfxNX9m32lM8M8PflRdp79cuUVXcIIHzHGlwrg2rbhbqx/+od7xx5/TnsGV3u5tK9Ou6/2WjcK+//rAW07Pdc/75ZF9W52dmx93pLj7qLV2Zly6YTKYjtZarmJcxT2PnV4Z2/RP1Ynt70n2nvnVqF75b2vtjvFNN9v84qvk5xZSXjipEQhx0tq8+ifavPI+9cxbsvi2b/zflz9299f+eHTftssKUyOtWUNZoAmH1rZdWCtrQ9Wn9zi16V19jpv87bA8ruKuh6aMl/zDoac+X/jXtd/+Qr00/GSy+/SJB/7a7B5Z9TWlWd4CmHOay0Fkcr3atvaBs/1EKvmT73/q6sfv+ca7t298POW63mWV0pRTLk5qaPfGg8aic7EIBzOSrMLyuIp7Hj2jOrHt/ZWRdW/JLLzspkR+6Zee+o9LN5b2r1CG+gQnMQIhTipDezZq3WO36/5bPqtEMtstY37l8Xu+ecPQzvWXl4uTfnMdQSplPGuN5S1sFCgojUhSlxz3qvr0XslxX5boWhYMP/Ffqxa/9Pe/LZmKMe49qz/3ktVBaViZRS9S95mvVm7Ri5RZ+EK2P+AkZ63Vqoe/r21rHtDKB7+v0f3b1N23WI7jvNbInPuff/em/BP3fut3RvcPztu2/mFfNvIiloPAc9FarmJYQXnswurE4PnpgYvec9or/+Ff5Xg3r/78S9bOf9FvK7/0aqX7z6O8cHJtvhQBTharH/mhHr79i7rq1b8+b3T/9jfu2Pjor05PDF0/ObpXstGcW6jXWqmvK6GXXzYgh4BxcnwhsjJ+Rn5mQDasrfZzC7fmll0T2Kj+L5LZ2nfem8YHb/vDSvfyV8rvXqr8MZxuvDw95t79vX+7Z/XDP7g2qNf4Po7j137l+X1aviirKLIUyHEp9Eh+bqHyp7/87+ZfdsPfH8unjpeDWKeH7/ySfucDN3c9dNsXsouWX3L1+PD2t6997LakMc5V9Vp5YWFiSEG9dtByEDgx+2B31tcrL58v15lr34WVn10gLzt/VW7Ji+9wk10f6z7j1XuLex+1ucVX8eXjpEELIU6oTSvv0eZV96q7f7FyXf0L5i899/p1j9/+l7u3rjynffmIuRYGcRJqLm8RlFWb3C7JXBxUxi+ujm+RHP9Vqb6za5WR9Tc5buIO4yaCzIIX3LHnwY8W86dfp3pxRDYoKb/sZUrkFlCWwPOsuRzExqd+rAuv+FlNjOzUE/d9R5l835mu57+wZ94S985vf/Sd0+P7rlr9yA8zURhm6/WKwnqN5SBwHJkDlqu48B3V8S0fyy+79vbRdd9Zkew+XcZNMDwBJxyBECfMkz/9jv7il16hv/j3r2Yqpal33/O9T/58aWrstROjLB+BE8m0LkDYsKYwrElSd3HPo5L0W26q57emtt0Zja75xv+m5188asPacFgZ/3hmwQsqfnZ+Zde9/xDmT7tWuaUvkeulKE7gGGouB/HJv3iVfv+f7/LGh3YkpyeHFwdB7TdsFPX/8Mt/d6mfSL1kamyfRvZsOXjvJgTieJu1XMVDC7xM/4erkztuyCy49BZro49m5186NLntx1HX8lfSWo0ThkCI427vjjXa8ORd6u5bvOSGv/rrl2xde//f7t2+9uxKcTIVhnVCIE5qYWVcpfKoY4z3i8U9j6k8tFoyzq8EpZGgPLzmB8ZNfNdNdpUdN7li/5OfC/PLXqrMvPMpOOAoWWu1Y+OjevKnN2rxGZdmRvcPXta/4Az/x//7L780MbLrNTs3P5lyHPe0aqWgWqUULwdBzxKcpILiiILy2AW1ye0XJHvOfHNlZN0X0vMv+d7ehz62qjyyXmnqC5wABEIcNw/d8UVd/ZrfULkwkY6i8L0P3Ppfbx4f3nVdYXLIYfkInDralreoTSuqTkvGOXty6x0yjnu+n13wR+MbSuMjK770tfT8S8ZsVF+59+FPfn/hVb+nT3eZ8M23s7wFcDilwoQ2rfhxazmIWr3sDm54OGHD8K3WRmd9/p/etjzT1ferI/u2ujs2P+7KStZGjeUgxHIQOPkZI1mroDymoDxxZmV88wcqE4PvTXaf/gUb1f/HWjs4tuEmm198pRJdyygvHBcEQjzvNq74sTatvFe9A0sX3fGtD73qwds+/7tjQzuuLEwMu1HE8hE4lZnGpmvj5S3CSLXJnW51cvs8x03+n6AyocLuh8aMk1g3uvpr029/9KYv1Av7nkr1njX5yAez+0fX3ahU39mMH0HH277hUW1YcZcyuR5tX//w6X4ynXzgR/999V3f/ugNW1b/NOl5/iXVciFXKowr3BGwHATmgMZyFZUJU9z9yGnV8W1/Wx5Z/4u5xS/6vpdd8LkfvnPZluK+p5RdeBlFhecdgRDPi11bn9KmFfdoz+AqpTJdvcaYtzx5342/vW/72ksr5alEGLB8BOao9uUtikOS1CfHfeno2j0yjnt9omtZfeiJz66Yf/l7vynjVBw3ee/WH7xvfSrXG3FhBB22r9hvfur/0dCuTXJc75XGOOd89u/fnH/i3m/93tj+7QOD6x/2rbWJKKyzHATm8o4gSQqKQwrKoxfVJrdfkB646Ddf8tf/8VHj+rfuuvcDqxNdy5Rf+mKl511IceF53AqBY2jVwzfrxzf+q17xxt/rmxzb+4vb1j34S4XJ0VdPju6WZNnsGlh2ooO/eEmOn5GfWyQb1Z7ysvM355e9dO8TTzz1c4/95DtnhmGdcjqOXwfLThz/Qncz85Q+4w0/2bZ7fPuGJ+/MGOO8pF4tLZkc26ugXpVpm9wJc38fnLvLThx9oXi5+fKzC1blllx1h5fq+0jX8lcOFXY/FOWXvoTywTHHnodjYsNTd2piZI+isK6Fp1+4aNWDN19XKU29f/fWlWfPWj4CLQTCjt8C4o3AODJuUo6b0IYdU9GqTXscawkmx3M/JBAeX0ZSJTBataNm94+WTFCvKKhXJcssoJ26DxIID1UwkeR4chN5pQfO3+tnF348v+ya28oj61dkF16msFZQduELKSccExx58Zw9ce+39I7LXi3P89P1evX/3Pu9T//Pzs1PfGPzqnsvLhcnUlEYEAaBg5h4OnJJNqwqrE0pqk07cSs6MLc3/SgMVJoeN5XSlMKgzrqAwEH7SXO5ikkVdj28aHrHfR8aXfPNb9qo/uGgOrUos+AyZ2Lr7bJRQFnhOWMMIY7ajs2Pa/OKn6i7f/GSv//y316zadW979+/c/155cJEkuUjgGeLyZXQaZs82zxwpILSqILy+HnVicH/NzG85k3l4bVfTc877zvbf/yXa0rDa5QZuIhCwlEjEOJZsdbqwds+p9e97j2yYZixNvrNh27/wi+N7hu8pjg16toojCfVIAwCAAAcGyaelTQojSqojJ9THdv6t9Xxre9J95//Wdno69bazWPrvq3c4iuV7DmD8sKzQiDEEVv/5B266b/+VBe86LULb7rxo6+97wf//t6Jkd3XTE/sd6Ioaqz/xNVeAACA50VjHcOwOmEKux9a6k/M/0BldMMv5RZfdauX7v/MO3rO2F7c94SyCy+nrHDECIR4WoMbHtbmVfeqXqsone3pT6ZzP7/ywe/9/t7B1RdVyoVkc7IYlo8AAAA4XuLzrnphv+ql0UtqkzsuSg9cdMOnHvv3Dxs3edvQk59bZdyEsoteqMzAxRQXnhaBEE/rmx//bb3ql/+su1wYf/vdN33iLaXp0ddMjOxu/T9dQwEAAE6Q1uQzU05h1wMDXmb+R6qTg+/KLbryDi878KH0vIuGp3feH+WXvZSywmERCPG0rnn9e64bXP/wZ3ZufuKsapnlIwAAAE5ORkFxv4LyyMW1yR0Xp/rPe1tldOOncouvuHV0/Y0r+s9/K0WEQyIQ4mmVi1N/uH3DIxdVS9NMFgMAAHAyM048xrAyoeLuR5ZUUr0fDCvj7072nvUbkh6ggHAonN3jmVnLZDEAAACnjPi8LSiNqDK2+ZwoqDDLDA6LQAgAAADMQaax3qe1YUhp4HAIhAAAAADQoQiEAHCyoGc2Oom1lAEAnASYVAYAToDmsNwokuphpPHpmobGK5wjY86zVvI9R0vmpVUPrArlQGFk423fcF0EAI43AiEAHEfGxCfEpUqo6VJdw5NVDY1VVawEqgWhOB1GJ/BcozMW5bRkIKPJQl37xioam6qpWAlUrUetfQUA8PwjEALA86gZACWpUg01VqhpfKqm0amaJgo1BeFMkyAT+qKTOI5ROuEq1edqQV9K5Wqo8emaRqeqGp+uaaJQVxBaNfcQdg0AeH4QCAHgGDNGMjIKwkjVeqTJQk37xioanaqpXAtVq0eEP0BSew/pdNJVJpXWov6UKrVIxUqgofGKhiaqKpbjlkP2GwA49giEAHCMFcqBJqbrGp2qaniiesgxUpzUAgeLA59RJuUqk3LV353UOUE8xnZ4sqqxqZomC3VVg4gWQwA4RgiEAHCUmqEuCK2qtVAT0zUNTcTd3abLgeqBnRX8CIHAkWl2szaKJ6BZ0JfS/N6UKrVQU8W6RqdqGpqoqFAKVAsiRRH7GAAcLQIhADxLxkhhaFWoxC2Bw5NVjUxUVamFrZZAYzg5BY6VZkBMJ12lk64GelI6Z2lO06W4W+noVE2TxbrK1VCNhngAwBEiEALAM2hODBNZq3I11Ohk3DoxWahruhR3B6UlEHj+tVoOjeS5jnrzCfV1JVSrR5os1jU+NdNKXw9pOQSAI0EgBIBDaJ5A1oNIxUrcTW1ooqKRiZqq9VD1wLYex8kmcOI01zUc6ElqXndSpy/KqlQOtH+8ouHJeAxvuRoqithXAeBQCIQA0GAUz3oYRfFi2c1JLEanqipX4q5oze5onFgCJ5dm62HCc5TMJ9STT+jsyLZaDkem4v25Up29LwNApyMQAuhoMy2BVqVqoLHJmvaOVTRdqqtUCQ/uDkqRASe95nIWrmPU35VQf1dCp9UzKlVDjU5VtW8s7vJdrUUKIzvrWAAAnYZACKAjGUn10GqqVNfEdE2jk/G09tV6qKjRfEB3UODU12w59D1HPb6j7qyv5QuyKpQD7Z+oanyqqolCXcVKoMhy0QdA5yEQAugIzYlhgtCqWAm0b6yisamqpoqBStVg1vgi0/oLwFzSDIeOY9SV9dWd81UPsiqU65oqxjOWjkxWVa1HCkJaDgF0BgIhgDmrGeyq9UiFUqCx6Vqjq1jtoLXLOOkDOo+1kuca9eYT6s0ntGQgrUot1OhEVfvGq5oq1lUoHzyTMADMJQRCAHNG84QtsvE6gZPFuCvo6FRN49M1VWrhIR8PoLM1Ww5dxyib8pRd6GnpgkzrQtLYVE0jk1WVKqEiO7PWKADMBQRCAKe8ZnfQcjVUsRJoaKyqoYmKipUwHhMYSTL0AgVw5Bxj1J2Lu5UuG8ioUgs1Waxr/3hFo5M1lWuhavW4mwHhEMCpjEAI4JTTPPeyitcJHJ+OWwFHJ6saL9RVD6LWLIMsEQHgaLVaDl2jXMZTNu1pUX9a5Wrccjg8UdX4dE1TxSBuORQXngCcegiEAE4JzVAXRlb1wKpQqmtovNpaeLpSC2d14+KkDMCx1AyHxkiZVBwOF/enVarGLYdDExWNTFRVqUXxRSm6lQI4RRAIAZzUmovFlyqhJgpxS+DwRFVTpbqiyM7qDsrJF4Djxdp4ttJ8xlM+7WlRf0q1etxjYWSyqrGpmqZKgWpBxAUqACc1AiGAk0prYphIqgWhJqbjMTvj042Tq3o0e6F4zrQAnECtpSyMUSrhanF/Wov60ypVAk2XAg1PVDQ0EfdkCMJ4QhrGNAM4mRAIAZwUjJGiyKpYDjVdqmtkqqah8XhimPbuVwRAACez5vjlbNpTLu1roDepcwKriema9o9XNDZdU7EcqFqnWymAkwOBEMAJ0ZwZ1FrF635NVjUyVdP4VE1TpbrCyB70eAA4VVgrWVk5xijpGy3oS2lBX0qVWqiJQl0ThZqGJqqabE6ERcshgBOEQAjguGlNDBNalWuhpgp17RuraHSqpnI1VC1gCncAc1sq4WpRv6uFfSktXxgvlbN/vKrh8YoKlVDVAybIAoDnG4EQwHFhrVQoB5poLBExMlnVdCmYtcgzJ0AAOkFz3GE64SqddNXflVR9SU7jhXprQprJQk3VxjqHAPB8IhACOOaawS4IrSq1UCOTNQ2NVTRVqqtYCVQP7KyuUQRBAJ3Itv6SfM/Rgt6k5vckVamFKlZCjU/XtH+0ooliTfXAtrrSc8wEcCwRCAEcM8bE6wROFwNNFtrW5apHCsOZExlOZgDgYK2Ww2Sz5TCh5QuzKpTjdVdHJquaKtZVqoZqDDkEgOeMQAjgOQujuCVweCI+YZko1FUoBQqtpRUQAJ4l2zanluca9eQS6s0ndEY9q6liXWPTNQ2PVzVeiFsOI2spNABHjUAI4DkplAOt2Tap8el4vEvQ3hJI8QDAMWFt3K10Xk9S/d1JLV+YVaUWaudwWZt3TbeOvQDwbDkUAYDnolINNTReVbESKowsXUIB4Hlk28YcdmcTWtCTlOcaEQcBHC0CIYDnxsR/CIEAcHxZYiCAY4BACAAAAAAdikAIAAAAAB2KQAgAAAAAHYpACAAAAAAdikAIAAAAAB2KQAgAAAAAHYpACAAAAAAdikAIAAAAAB2KQAgAAAAAHYpACAAAAAAdikAIAAAAAB2KQAgAAAAAHYpACAAAAAAdikAIAAAAAB2KQAgAAAAAHYpACAAAAAAdikAIAAAAAB2KQAgAAAAAHYpACAAAAAAdikAIAAAAAB2KQAgAAAAAHYpACAAAAAAdikAIAAAAAB2KQAgAAAAAHYpACAAAAAAdikAIAAAAAB2KQAgAAAAAHYpACAAAAAAdikAIAAAAAB2KQAgAAAAAHYpACAAAAAAdikAIAAAAAB2KQAgAAAAAHYpACAAAAAAdikAIAAAAAB2KQAgAAAAAHYpACAAAAAAdikAIAAAAAB2KQAgAAAAAHYpACAAAAAAdikAIAAAAAB2KQAgAAAAAHYpACAAAAAAdikAIAAAAAB2KQAgAAAAAHYpACAAAAAAdikAIAAAAAB2KQAgAAAAAHYpACAAAAAAdikAIAAAAAB2KQAgAAAAAHYpACAAAAAAdikAIAAAAAB2KQAgAAAAAHYpACAAAAAAdikAIAAAAAB2KQAgAAAAAHYpACAAAAAAdikAIAAAAAB2KQAgAAAAAHYpACAAAAAAdikAIAAAAAB2KQAgAAAAAHYpACAAAAAAdikAIAAAAAB2KQAgAAAAAHYpACAAAAAAdikAIAAAAAB2KQAgAAAAAHcqjCADg5GAMZYDO4hgjK0myspbyAIATgUAIACeAMZKRZCWFoVUQRHIcyfNcCgdzXq0ead9YWZ7rKOk7SviuMklXCd+JA6KVLCERAI4LAiEAHCeOkaIoPhku10LZKD7hrdRCVaqh8hlP/b0uLYWY04yRqvVQD6wc0a7hsrIpT11ZXwM9SfXmE0omHHXnfPV1JZRL+639wbT+UiMwAgCOBQIhABwD7SEuiqQwjGSMZK1UrUWaLNQlSdZaBaFVPYgURc1fnjnPBTqFtVI9sJos1jVZqGvHvqKMMfJco0zKVSblKZt2lUt76skntKg/rZ68L9915LlGvu/Id2lRBIDnikAIAEfBSK3AVw8iVeuRrLWyUdziV6qECsLG6ChrFVm1mjRaLR6kQLAftVr+TGOHCCOrqWKgyWJ8EcUxRo4xct04LOYynrqzvgZ6UxroScr3HOXSrrpzCWVSbV2uaUUEgCNCIASAQ2gPa9ZKUWTjABjF3d0KpaAV8pqBMAztYVv7ZnV3A/CM+59p22EiaxUFVvVAKldDDY1VtWlnQY6REr6jbDrudtqV9ZVJuerNJ7SgL6XunC/XmQmUjmNarYkERgCIEQgBQI0TUGNkI6swtKoFkZozH5YroQrlQFFjzJ+1cStGq3uamWkxBHB89lcpDnSVeqRKraaRiaokyXGMfM+R7xklPEddOV89uYQW9qXU352U5xmlk3FX1GQiblG0loAIoHMRCAF0jLb5KGStlWMkWaNqPVSxHLa6dtYbk76E4dOfHhIAgZNkv27rcirFrfa1ulRUqPFCXTtU0kpJrmOUSrrKZz315RPqziWUTrnqyfqa35tULuM3Lu4YOc2LRM2FMUiLAOYoAiGAOemgZR3CZpdPq0o11HQpbvGTjMIonuSl/YSPsAec+seAA4WRVaEcqFAKtGeoLBm1lr5IJ10lE47yGU99+aQWz0urtysh1zVK+I5SCVcJr20SG2tpUQQwJxAIAcwZzQAYBJFKlbjFrznLZ6kSKIwap2+NrmFtPT7jfwmBQEccJ9pbFKPIqlSJJ4KKjwpGjinIODMznvbkE+rvSqivK6lUwlE+46u/O6FMyjvoeel6CuBUQyAEcEo4cFmHmUlerCq1eJKXMLKSNQqjeJKXZ1rWgfwHQGo/vsQ/WMXHllpkVa1HGp+qa+uuQmt8YjrpKp/xlE65yqc99XUltWheWt05X04jSPqeI88xLIsB4KRHIARwUmpf1iEM49AXt/gZVWvxJC/hAcs6MMkLgGPtwBbFeHxipInpmqR4EhvXiWcxTXiOchlPvV0JDfQk1d+VjGdBTXnKZz2lkzPLYhAOAZwsCIQAToj2ZRhsYzyOafxcrUcqloPWTJ5hGKlSjRRE9mlb9QiAAI4Hc8AkNmFkFUZWtXqk6XKgvSMVSfEkNomEo1w6Xjsxn/WUayyRsWQgo3zGaz3OcWYvi0FgBHC8EAgBHBcHTvIST+ISd/EsV0MVy0FrIffIxks/HDjJC3kPwMmu/WJXZK3KlVDlSqihsUZIdI0811Eq4Sjhxy2KAz0pze9NqjefaHVJzaRcJfxGi6KNnwsAng8EQgDPzdOcozRb/OrBzKQuM7dZ1gHA3Nc8jjVbFJvHwFo9HuQ8MlnT9r0lSZLnGqVTrrqzCfXlfXXl/EZ3U18L+1KtSWziFkrJ4UoZgGOAQAjgOTFO3N2pGlmFYaQwkirVeMa+IIxPeKJICsK2SV5E2APQ2Q51DAxCq6lCoKlCoB37rGQk33PisYlpT6mkq1zG07zuhBb1p9XXlVS5GspaciGAo0cgBPCc5NO+Lj6jS2NTNRVKgcqNMJhJhapUQ1Vroar1SEGoWWcsB7YNcjIDALNbFE2jn30QWk0W6ypUAo1P17RvtKINO6aVSXnKZTzVQ7qTAjh6BEIAz0nCd3T6wqyWL8xJjWUgqvVItUaXqGbXqFqj22ihFKhQDuKfy4GK5bCxRIRVZG38b9QYR9icRMZIphkZ6SEF4BRiW3+1jYVum5TGmLiXhesYeV5zxlJHvufIdeLHOY5kHCPXmLhXhplZHqNajyhkAM8JgRDAc2Ybs+I1T3qSvqNkwpHUCHKNk6A48Gl2+LPxQvKTxboqtXh20WI5UKkah8dqPQ6U8b+hakGkai1SZJszjhIUAZwcrG2M7XPiEOcY01qWwml0r29OKuO68f2+5xywVI6ZFRzjJ57dq4L2QADHEoEQwDHXfkXcHnAmY0w8y57bHt+SrrqyfuMBs5+rUgtVqUaq1Ga6n5arYaNratD6ebpUj2fzq0WN9Qrjk7Oo+XPjTRAiARyJtmVNZ/5t687pNgNeYwF6x40XpHcaLXmO2wiBJg6B5lkOnG4/jgLA84lACOCkYA/6IZb0XaUSriT/oNbGMIy7lYahVdD4uR5EcVfUZvfUUqBipa5COVQ9iFQP4scE4czPdE0FOvSY09aV0zFxt0ynMXbPceJ/vbYWPa/xx3Wd1lqEzd+VMfG/bS9AngNwKiAQAjjp2cO0NjYXck74sx8/0Jts+52Zv2r1SKXGpDdxy2LcwliphipW4n9LjZbHWhCpXAnjtb/aXvaQV+0Jj8BJzzEzx4xmd0237WfHnX3bO5pWPRIggFMQgRDAKc8+w1qIzb+SCVeppKu+rtljG621qjVaC5t/4tZG29bSWFexEqpQrrcmwgkaj4siqyCaabE0bS/ebHE8kvNKziWBI9/Xm2vxNVvp4kY6I9eVXMdpTdDiufE4vWaLn2mM63PMzIQtR3IsAYC5ikAIoKMcrrUxPml0JblqxTijtvGItjEmMf45CK2mivVZ4xlL1VDFctAY7xi1/q3Ww0Zr4wFvpjGlfPt7YH1GdILmBCpWdqab9qEe11h83W2MzYsnZnHkOJLXbM1rtfA58lv70MEXYppLONjDHBMAoFMRCAGgwbYNZDywa2hrrFB8S74nZZLurL6izRPbaj2cPTNqPVKlMRlOoRTPotp8TD7jqyvrqyvraapY197xCieomPMc16ivJ6lyLVQQWtXDuIW92aLnOEa+N9OS1+zq2Zy103GefZBjvwKAQyMQAsBROjA0Nmcy9T1HCd9RTodediOMbKvF0Wkbx7Rhx5T2jlcoWMx5xhilk6668onWjmStWt2sm91B23e2WcsuEO4A4JghEALA88A+zbIbnmt04DQ0UWRlWV8aHbODzFxQaV9771D7EADg+eVQBAAAAADQmQiEAAAAANChCIQAAAAA0KEIhAAAAADQoQiEAAAAANChCIQAAAAA0KEIhAAAAADQoQiEAAAAANChCIQAAAAA0KEIhAAAAADQoQiEAAAAANChCIQAAAAA0KEIhAAAAADQoQiEAAAAANChCIQAAAAA0KEIhAAAAADQoQiEAAAAANChCIQAAAAA0KEIhAAAAADQoQiEAAAAANChCIQAAAAA0KEIhAAAAADQoQiEAAAAANChCIQAAAAA0KEIhAAAAADQoQiEAAAAANChCIQAAAAA0KEIhAAAAADQoQiEAAAAANChCIQAAAAA0KEIhAAAAADQoQiEAAAAANChCIQAAAAA0KEIhAAAAADQoQiEAAAAANChCIQAAAAA0KEIhMAJZigCAAAAnCAeRQA8/0zjL2tn7rPWKrJSaB05xmk9zhh70M+NX5j5sfWXZt8HAMBxcSS1jpEx7T87s/5PiutCGUeRdeTIkTF2pv5r1HvtdR51HXDsEQiBY8C0/orrryiy8b/WykZSpPjfMLIKw0hBZBWGVmNToWqmrmwmJcnKdYxyybgydEykjFuW60SSpGQyJc/zZCX5nifPiytWx0i+KxkjGVl5TiCnUWVaO7vqtLNqVDPzIwCggz1zTWBkWvWccTw5rq/GpUupGfRsXMdFNq63atWqwrAuychxE/JTXc0nkIyn5pXSoUJNP14VKpNxlU1ISS9Uxi0r4btKJJPyPU++58j3JNdY+U4Qv2fbrNWsZA31GXCUCITAs9CsbKJGoIsi2wh5VpFt3ieFUdT41yoKrUJrWyFxtrrGJzdpdsfRmQeZtnuyuZySyZSspFTCVzLpS5JcR0r5VsZIjqxSblWOiWSMo3xXtzzfl6xVKpVQOpWQrOR5Uspr/k6klFuVa6LGi5q44m+8gbaLu4fo3mr1THdRQQPAsdB+ND30YANjDrzftP22jZ/CKA5SjadzXF9eItt4aDOoxarVmqIokmRVLhVVrZYlK7meleN7sy6GxpckpXrdKgojyUilYlX1WrXx/yVJE4d5/1Y7Z90fv7lkKqVMJqtUKqlU0lPalzw3VMqpKp1KKpvLK51KKp3ylU5Y+W6ktFuV02hljOszHVB/2UP9A3Q0AiE6TnvAsbb5x7Z+llEr6AVB1Ap19UYADEIbd/eM4grWWslG8VXKKJr9Qkc+PtA+472F6WkVpqdn/s/aQ3462/rJyE9OyXHiK7ee68jzXMlKjiN5zszve04gIyvHcdXd06tEMilJyqSSyqQTspISnpRNxL/jmEhZr9wKkX4iIceJ2yU9x5Hb9jqusa2ycE3Yeoetk5PWZz1U7cwVXwBzhT3kj+0VxaxWOOPIOH7bY2a6W4Zh1HqSMAwUBoGstXL9lLxELg5Cxm2FO2utqrW6wjCQJJVKBZWL0/FTOI4cp9LW1aX9dcJWXRMEdYVB0PifqqTpZ/zEBwfUQxXA4e+vViqqlMutz9AsDCvJdT35/qi8Ro8Zz5Fcx8pVoHQmra6uHmUzKWUzCWWTUsILlXXL8j0jz/Plua5cz5HnWDlmpn6y9sA6inoIcx+BEHNeFDVa8lrBzVFkjYJ6vdWFM4xmwp6Mq3o9lG10ebGHafE6VDVnnscZYg6sWM0RvFhYrypofIDa0zyuvU1y93Cp9dmMaTs5OeDzNatIYxx1dffELZGS0smE0umErJV8T0r7MyEy7VbkNlovM9mcfN+XlZRM+Eom4sOR58atl1aSY6xSbk1G0dOXzRF9NgA4MRzXl+unG7fMTFCTFNQDhVEoI6larahaKUuycpyEvGQzEDqScdU82lWr1UbLnVSp1FQuFhvPXZYxEwe8upFkDxrDPnMRLtTT1RAzF1Fnjwc8Xpp13UF1ng1VqwZqNUA275ZkRssyZlym7T3H/1olkynl8l3KpJJKpxNKJ6wSblw/pRKe0tmcUklfqaSvpCf5bqSkW5NzQD10cBsncOoiEOIkNTt2mVkTssTjFWyjSS+K4kAXhJHC0Mr106oHkaLIqlqpKAxDRVFjPJ+VrIysTOOKqg7Rknf04eNkdCTB0Ryy7BtXZJ+xW02okZGRw3+T9tDvKZlKy/XiQ5DvufL9+GTHdawSbvN9WflOPe7+Yxx19/bJ9xOSrDLppDLpZKv1Mu0feuyl63pynPgTOsaRaf0c/2l+OsdEM52VjmDs5dOXCYAT41lOdGKcAyY6mfnZ2qh1/IqisBXAHDchP5lvXCVzJOO3XrpSrSoKQ0lSuVxSqTDVeJm6HC9o1miNMXfxZbUwCBRFcU+Keq2mer3a+BhVSVPP/GnM7CEHh+49cqhSaP/h1Jzv+lD1mzmgLA4sjlKprGKx1PY9z/yf63lKptJK+J4SvifftfKcuB5KpZLq6u5RJp1SNpNUJmGV9CJlvLI8x7bqGsdx5Jp4Upy46yqtjjj5EQhxghzcX8ZIiqzk+klZ60jGURAEiqJItWql1X3T8ZKSceMAGIQqlUpxZar4RN6YWuMAH4/r0yFDX+OVWfPhmHi60Hm4/6pWSofeMg4zLNFIcnYVWq/lGCPT6A7bHD/Z3JDin+MusF3dPUok47GT6XQyHkepOERm2rrAZtxGF1hjlM5k5bpxt9dEwpPvN1ovHcl3my2jVolGWI3r+MMPnjziip/tETiMw4+fm8l2nhw/qbjjZePCYaN1LKgHcX0gKajXVKtW4mOEl5KXyKg1OYrTmCjFWlVrNYXNcFcqqlwqNg5GJRkzNfPqbW+nOXwg/jlqhUipLqn8zIeAtjFvHBSeP+11lpn1/YUqF6db35RtuxZojJHrjrfqnvhCZTwOP5FshMVUStlsUumEVdKzyrhlJX2jVDoTh8yEr4Rr5bmN+kPRzJbNmEacQARCHIXmCXDswKuMxnEalbGZOcA1rrRGNpSfzMehTq4iK1UqVQX1mgpTkwqjSK4vWTmS4kAYhpGqlXLbVc/q0787O9PCdwpf+JzzDhcinzakt12xD1t/PZ1QhfLQrE33SN5XJptrzOhqG91Z/cb4SKuk13xcpKRTk2Pi4Jnv6lYiEY+3TDcn8FE8A2wm0ewCGynT6DYraWZfUXN3YWNFpxwAGmPkjNM2Q7ONj99Wcr2k3ER25oBgmjNaWtVq9VZQq5SbQc3KOJ5c37RNjuKo+eT1Wr0182W9Vm10y5SkimYmOjlSVs/Uk+Tg4xn79imzaR4mLEpxYDxU3VOuljQxVTpEHWPleb7S2aySiYRSSV8Jz8p3rRJOTamEp3x3TzxBTiaptB8HybRXkWdCOY4bzyDe6PoaX7ZoXXJgOQ4cMwRCPC1r4+mjbRQ1KnAj30/J9ROtKafj2TOt6vWagiCQ4/hyElk5blI2MgqtVCpOq1qpaGpiVDK1WRV1GEayNlIQ1BtHtIPHMhia8nCUzGFvHHarV7EwdcB+8PQT+EhGnj/ZWk/SdR25jUl2HBPPBNv8jTgMWjlO3AU2kYjHW2bSSSkystTqmOusJDmK3G4Vw8rMWLhyUcXpQryvOBUZU2g7I5/ZeZt1jiRFYdAKh3HdUTqyYwJ1Co6xQ1+ANgrDQNOTE5rW7LrENtZl9P0JOY4jz3XkOPHYedeESiQS6u7pVSadUi6bUiYppbx4FtWkFymRTMnzXPm+J68xUZznhHGrY1sX1WaPKRIjng6BEE+rb+Hy+uIzLw+nJ8cV1OsqFguyjueWqhW5SstaozC0CqNQ5aJVtRaqMDksa/e3nsOqfSxas2tnNOvE1xziSEp9jRPlaCbwsWHQumgc1J+u5p15rpHJPW23jHrznvp7U2z7mOM7mBQEgfbs3qPde0tt+1f7fhNJCtr3sEPuQ/H+eej7gZODnWnonjUTeLydB7WKrGb6PsX7g5FU09BoIf6tRvNgcwv3fF+5fJdSiYTS6aRSCSnpWSWdmpK+US6ft8mEH2XSCSW9SPN68nKTuahTShzPHoEQT2v+0vP+ulKLPjGyf5+KxaLq+/eaF1x53e9XSoXLIhvJyKgwNaaJsaFGlx2jSrmk0aHdCoMwrvjrdY3u36UgiFv+jDGmu3fBIj+ZyjdfJwoDBfWZlsEoClWv1RpjAuNxGfWgFrdUtn4nnDVuyxw0UNAc1Yk98Fw96+2sMeOf5RIuOkizi+jsSV0Ou1dRYDjeW+gBPTYOnrDnwNvGOK2lnqR4UjPX85u9neW4rnw/MWvmVM9PtsbDy1qVitP7S4XJieZzpDM59Q0sau0DyVRK8xYuk+O4krVyXE/985cqkcrIWivfT9p6vfKN1Y/edceCgS71ZCPlTZe8ZNdWvlMcDoEQTyuoVzfWq6WNQa2sMKiqXi3ola//1Ucl+c3HjI/s046taxRFkYwxmhgb0qY1j6tWq8oYo2q5qInR/a1AePrZFztvf9/fvKkwNX5Nc7qQqYlhDe/doWbILBWntG/XNtXrNRkZ1WsV7d8zqGqlKMkokUwnzrnwRdf7idTy5vuolAuqlIut916vVVQsTM10nYhCFQtTCoP6sS+oWc2drb/QKZrf/1FecEhlckqms0r5NRkTzqGCAQ7NcRzl8r3qrmZVKU23LV7+rHa8mRmnOOZ2mAO6QD4PF3uTqaxS6WxrmnPX85XNd8t141Nn4zjKZrvkJZKt7XBqYvThreuffLL5HNl8t/oXLIsDoJWy+bwWLjlTnp+QtVaJZEoLl5ypZDobhzvPq2ay+Rs/+Kdve6L5HKlMTguXntUKkbnuHl1w6dXy/aSsrBLJtM656ColEsn2t1/e/NSdke9G8pwoXrrJUrfg8AiEeFpnXfjSWbfrtap2bdtQK0yP1+LWO6Oxkb0a3rtdzduF6YlGAKxLjTAXRTMHomVnnK90Jvflarn45WZd7nkJuZ4vpzFW0XW9xixeTrz2kePEx/vGL/zHTWvM5MTIVSP7di5pXnob2b9Lw/t2tF5nanxYu3dsiacAN/HMcvXtG1Wq1+Krcp7vvPTVb/3FfHf/K5tX74qFCU2NN5ZQMPGYlrHhfY2JaoyCek3jo/taodIYY1LpXJ/reW7zdaMobE07LsXdY8O227JWQRCovTaLonDWlcaZLiOtt3JQhUdr5zFi29rlWj/PzBzafsXXcdz4qqyRXNdtTIph4ivAksIwiMrF6RFrrXL5HuV75slxHfX2L1AqnZXr+uobWCTPT8gxzv77bv/WR8bHhor57j7NW3ias3hB/gO7Nj18QRQGfC+Yw7ucVbarT9e87Ipv3vPwxm/t37VF9VpVl1zx8gvOPO+y3w7DIFEuTmtyfEg2spqaHNX05LisjTQ6tFtBvSbHcdxMtqtfxshaGy+4bm3j+BuP040XVY97lTSPsa0JzzR7qALH02P7/T7dbdnZvSEcZ/bSH8Y4rSWJmnW+63kycuI7jGkdf5tq1UqpVi0Xms+fyuTV3TtPptGK5ieT8bHX82Vt/Jp9A4uVSKaar2N3Da7/7FMP3/VU8z1ncl0aWHiajHFkZZXOZLV0+XlKNVriPD+hxaedo1xXb/M57RnnXrry3a8/c0vbh2ktdxQ/xpXreXI9T7YRMj0/0Qp3ruupq2ferOKq16qaHB9ubaO1akk7tqxt1Tuen1CtUlE6m4/fl+cr19WrP/rgjWyMOGIEQjwr/uwrUEflC7d+WPqjDz+n5/i8ZEvTkw/HU4fH6rXKrG6nYRg01o6Kw1gUhbMuKE6MD+td/+f/3jo9Nd7qujq8d7t2b9/QuGU0NT6sLRtWxCcYRqqWi5qaGFFYr0nG6PSzL05c/4Zfv8H1/BdKkqzV2PCeuAttowfr1MSohvbunPW+9uzYqDBonfSb5edc+rJUKtPbeFlVyyXVam2frV5TpVRo3Y7CUKXitA4MlbOZQ0yo0jmhcuYkpH1W3PaTkDjDJ9IZJRIpGWOUSmfjsOa4jQDnqTA9sWPvzi0rrI2i7t556u6bL2McLVh8urJdPfL9hJacfr4c11W9Vl33pU/+1SfCMFA616UFi5fL9Tydce4l6u6dp0QyrTPPe6FS6ZxyXT31d77zj0d/8fVnylqrj3zwK/ryVz/wf/ZscRRxIRdzWdytTRecdf7qux9c/7/NFvY/+sAXnDAI/rtcKpix4T3auW2doijU3p2btXfnNkVRqMnxYdVrVV129Wv6Lr/mte93HDdTKk5p384tsjbSyNBuTY4NKwpDDe/fqVJhSslUOrXk9HOv9f1ktl6vqlIuSbKqVkqqVSuy1qpaKSqo12dmOj3wKDpr5slOOG5q1vFz5taBXSTNrGDmuJ4y2fys/8/mume6REpKZ/LyfL/1vONj+zcM792xvvn6mVxe8xed3npFz0to0bIzlUxlGhfpjBYsWq5Mvqf1nOXi9Le+8pm/+XHjHSuVzmhg4WlyGsErm+3SWRe8QIlkRlIcxM4674XK5nsamdMo19Uz8u7Xnxm0b6dxz6e4q2gUhvGFZc9vXTys1SqqVuIlTIzjaGJsSF+4dVtbCW2T9Ohz/Fa2SXqc4waeV1wSQ8ey1mrzuidmdVUaH9mrob3bW7eL0xPaNbixNQterVrWnh2bVK9VWrtPUK/NCmPNVqOZ22ZWZSjNhBFJ+sKt27R+5UNvtFZLm48f2jOo0eHdrcp2YmxIu7dvUnNB5WolvkLYPHFJJNOJF7/iF/7Q9xMDzeedHB9WtVxsnchUygVNTYzKthZArmpqfKT13o0xxm9dLm2UUTT7Sq61Ufz7zduys8Z1SrZt3a3mQcY8i6k+Z4e39pONWT87M2XcbL2LokhBvVa21iqb61a2q0eO47aCmOt56ulb0Ozus//he77/6VJxqty/YKl6+xfK9TwtPu0s5bv6lEimtXjZ2UplcvITqVVnnveC+979+jNt+8mijWZmcmuWoeO4ra5AvfMWaWDRaXJdV0tOO1u5rl75flJLlp+nRCqjTCavbK5bA4uWSZLK02Pu3d/7t3tWP/yDa9svbOD5Pg5IV57fp+WLsq31TPF8F3okP7dQ+dNf/nfzL7vh75t37925RcXClGrViqYmhrV/dxwCR/bv0vD+3bJRqJ1b16laLspKjWN3fDrfPA60Hxuax+LP37I1tXHNY2+MonDe5NiQ9u/ZFgfGfTs1OrRHYRho/+5tKkyN68zzXnD2mee/8IYoDBOVclHTk6Oy1qo4PaHC9ISstXEPmLinifH9ZKrZpTA6xLEhnkDNztzfjB/POBGOPWg7PXBiHeegesWZ9XyO4xwUZONjaPwebBSqXq+1Fkf0E0l19w7MBDwj9c1bNHMh2Frle/qVyXa1PtPk+PBDj9//oxubdWo6k9OyMy9Us+eO63k687wXyPeTrfe/9IwLlMv3tp7DcZwH//nPfvmJmc86O5TLKi7btrB64G3X81tdOa216urp1/zFy+U4buN9xa17zc/iul7c2peZCa+5rh6dduaF7J/oSLQQomOdLFd51z71gKIo+l7bO5t1EiE1Kj4bB7lDrVX34x+s1T/95x3fD4J6qwl3x5bVmhjb3zopGhvZp12DGxQFoWTicZqFqfFWmDn3oit7rnn1W/+/er3abxR3wxod2qXi9ESzwDQ5Nqzx0f2t7sGlwpTGhne3QmAqncvNW7D0ovYumLVqeVaX2aBeazuRa30ZSibTclxPjuMokUzJcVyVilPD4yP7tllrbXfvgPI982SM0fyFy5TJdcnzE1q07Gw5jqtKubjy25//549LcVef+YuWy/N9nX7Whcp3xyFv+TmXKJnKqKdvQeXXf/cDW9/9+jM1axEna1snI1Hj6nCzfGZf9T0Sg5IeZEcDjtCiZWc9L8/7H9VyxUbRN5tBrfmnub+3e/+/3pSYmhj9z0qp4EyM7deu7RsUhaH27xnUvt2DsmGk4tS46rWqzjj3BT3XvOrNH3AcN1cpF7V/zzbZKNL46D5Njo8qikKNDe1RqTgl30/4/QuWXuz5iUQY1FWvVWaWazpg/KQxjhKplBxn5hTN9xPyE8nWkMkwCKr79mxbaRsHX99PamDRaXGXSEme52lg4TKlMrl4wjfjqHfeIuW7+xqvYWStffQrn/mbf2+WgZ9Ixa1qrtt6zNkXXK5svrtVZkuXn6f++Utb5dbTNzD6+P0/2t/+/puTwTWPqwcGvPh7mKnjwjA6iuPrMxkUrWrAkSMQAifYhZdd85yfY+1TD2ho7/Yt7fdNTYyoMDXRuCpsVC5OqVaJx3MaE4+HbL/C+q3Pf1N//uFv/ILaLjGHQV37dscTkxljNLh5lTavfSruRuM4Gt67Q+Oj+6RGIPzd9//7Ij+Rele1XEzJGEVRqD3bN6lUnGx1vRof3aehvTtmTsRsPD5k0bIzlc33KJlMa+Gys5RKZeU47kO3fuc/b1/z5E+jvoFFWnrGBXIcT5de8TINLDpN6WyX+uYtar7d6Nuf/+coXvcpjMeuhoGKhcl4/cxEWeMj++Qn0yqXChret1MDC5dJYuI1YC5LpjJH/Nj/u2tbrVSYXF+tVjQ9MaLCZHzRrFwqqF6N10yMGseuW779Xf31x296XfN39+zYqCgKtWntE9q+eY2Cel2VUkGl4qR+5y8/lfWTqXdYaxdPT4xo/57BVuvn6NBezSzJJCUSSS0+7azWmDAjo76BxZq3YGkrEKaz+V2P3PvDL97x3c8HUhzmlp15oVLprKy1SqbSuvTK69Q7b5FsFMlxXS1aevaBHzf68qfeHzXTm40i1WqVVg8WY4yKhclWeLPWamJsKB5T1yiDseE9hwhzqw+4/TU2QuAkRyAE5oBjESolyTzHKS4/+F9Ld5aKU//YnHQnihy5rtvqyiPF3Spnui0pHmvpOPFge9eT43ryPF+u58tPpPQn//SluDX31m2SvnuE72SQjQLAs7Zo2ZnP6vHGmCOaAeqz33/55Nb1T30misJ4UhHXlTHN4+HMJGLG2FnHwzh4mcZEJM3JvY0SiZRe95b36Fff99czL/Kdp45BCaxkIwA6EIEQwDGzcOkZFAIAHCBxDCZkA4Dni0MRAAAAAEBnIhACAAAAQIciEAIAAABAhyIQAgAAAECHIhACAAAAQIciEAIAAABAhyIQAgAAAECHIhACAAAAQIciEAIAAABAhyIQAgAAAECHIhACAAAAQIciEAIAAABAhyIQAgAAAECHIhACAAAAQIciEAIAAABAhyIQAgAAAECHIhACAAAAQIciEAIAAABAhyIQAgAAAECHIhACAAAAQIciEAIAAABAhyIQAgAAAECHIhACAAAAQIciEAIAAABAhyIQAgAAAECHIhACAAAAQIciEAIAAABAhyIQAgAAAECHIhACAAAAQIciEAIAAABAhyIQAgAAAECHIhACAAAAQIciEAIAAABAhyIQAgAAAECHIhACAAAAQIciEAIAAABAhyIQAgAAAECHIhACAAAAQIciEAIAAABAhyIQAgAAAECHIhACAAAAQIciEAIAAABAhyIQAgAAAECHIhACAAAAQIciEAIAAABAhyIQAgAAAECHIhACAAAAQIciEAIAAABAhyIQAgAAAECHIhACAAAAQIciEAIAAABAhyIQAgAAAECHIhACAAAAQIciEAIAAABAhyIQAgAAAECHIhACAAAAQIciEAIAAABAhyIQAgAAAECHIhACAAAAQIciEAIAAABAhyIQAgAAAECHIhACAAAAQIciEAIAAABAhyIQAgAAAECHIhACAAAAQIciEAIAAABAhyIQAgAAAECHIhACAAAAQIciEAIAAABAhyIQAgAAAECHIhACAAAAQIciEAIAAABAhyIQAgAAAECHIhACAAAAQIciEAIAAABAh/IoAgCHY61VVJ2QbDhzZ21Mtjo+85iwqqg6JtkoviMKpNq4ZIPG7boSF/2BNPsClFFYnbnlJiXJStL01xdGycv+RjKulOiRnISMm5KT7JWMI+PnpORA/LPjy0l280UBOKHiY+V4fByMqrLlISmqyUZ1RZVRyYayQUGmPi3ZQF+46A/0Pmubx8SZ46FxJMe37c89+QkTpV/76Zk73LTkd0vGxL/iJuQk++JjZnyHTGpA8rKtXzFeRsZLyzR+BwDaEQiBOcpaK1svyoaVmfuqo1JtYuZ2WJk5iZEOCnO1tZ9U4sLfz1lr+yVjJSsb1RImrBhZSUbxX8aTTNS8Iz5RaZzSGL/LC8dWvVFu8gpJoWRd1abm2aDoNt+H8bJ1JbpHJFUyr775xnDk0bWSZI0rYzzJSUheWkaO5GVlkr01Gc8ao33VtZ+uyThScl58IuT4ctID8RN7OZn0wvh+LyXHS7NhADgi1lrZoCQbVCQbyBZ3xf9GdUXl4fhBYVmqjau66iNKXvL/dlurHoUlR/WCp9CNQ5rjS5GR1DjkeVn3PWOrXh1ObnyZbOjb6vg8RbVGujMyiZ6K3PRY833kfvWR/w1HHn2i9caMIznezHHWJCQ3LeO48W3HlUl0h/K7g9avGA3X1n26XF0bB0vrpmUS3Woes+NQ2Rsfy+M7pNQ8GS+vxovI+Dk5XpINA5iDCITA8yCqF+OTiEZFausTUnVUsnFKsmGt0arWaHmzkWx1VKbZqmYcOd3nxUGoKaxJYUnNpGWjUDYoNZ7DSIqkoNwKc7cYo58NKpcqcs5rvRFjcjLGmxXmmiFOh7hybDwT7PrRtfLz18YvIKOw2qew1Dp22CiUgmLrs8lGMwFTkg3LJhx6IBWfrbTunXm81LjSbRr3R2+TVJesTFCUTFU2LMV/jJHKSavirjFJdVsZ/r6k9bPff9tnMk5NxinJOHW5yceqaz+9SzKSl2mEWFeOn41f30nG98tK1TFFxV3xiZffI7lJWimBk9Szap0zrpz8mfG+bqPGsSuQjYLG8dRKUVUKK6qt/ZT883/rMhnnbMk1MqZL1jhGpnW4ah3C/LwT7L791fJyL5INkwqKXfHzRlJQkGwkE9Uax/Kqwv33p2Qcr/EBDngyM/t4bMM3xsfEhqgm1adax0wbFmWjiqxxGs/jSJXhsow31Trg1qfukszjhzjIt722aQuZRkZOWcapSNZIpm7cxCPVtZ/e0/pVJyG5qdZzGMeX8TKtlksZN26lNG2H/tqkosLgzEdz0zKJnpn/d5JyU/0zz+F4MqmFjdexXNwDnicEQuAAYXmk7ZaRgmnZynAr5NgoaJxkNC++Wtnq2ExlL8l4mYS8TKZ12/UdG9UdWRtXdEFFqhfjMGckRc1Q13x8ynHyZ73Zyl4sKysjqV7oVm0i3aq8o3ocJNtCpUyl9d+vXvsZJ9h+0/ly02e07rRhRtHMeYVsGAfNZkK00ezuobKKprccQak9QzckGx7wvAf+/6xbSUnJ1slaQ1Rt/16Ub7zuH8e/b6X6ZPyjcRQF082CtJrcGKfk+vQqSXskE5/IOL5kfCnRLWMcycsGSvSOGmNqSg18LyruWisZWceXcZKNblp5GePGV9bTA6HiM6Wp6tpPR8/cSunIeGlOZIAjcHDr3M442M1qnStJtQlVV31MyUv+JGmltKx1FFYdhdU42NULcc+HRsuX8TKu03X2q6xxrlYU+KqO9iuqSWE1Dm9qOwYaR8HgTRfLTZ0uWaOwmm5ctFKri2fb8Tea2nTkx8enOybag+5JNv40DoZ1zTqOS4qqowf+Tk7SQNvts2fVMVGt0VukESqNq6g2NRPEZCRnMJRxG4FQQVifWilpb+ttGk/GTc28gpuMj42m0RPWeFKyb1JusiwrY4wJlF54e1QYfHTmjbjxxbjWc6RkEnm1Rhg4vkxmUShjbONdWcXH3FYpWS8n4+fbnjIjJ9U785xOQiazaKb1s/lS6XnsaEADgRAnjbA6EVfcTVFNtrSrrSXJKioPy7ZXhLWJRqtZXIl5y9/WVucZKSjJlvfOPN6GCstDs1qwVB2Nr7g2f8vPn2nD2ukyiiQjRVVfxktJcWgzjhoVXuMqrm01t7UE+3/6M8ZNv6TxH9aGlbyCYi4OhHGoVL0w8z5sFL9c820GJRPsuaNXctpqWzv7fTc+z+zb7f9v4y6i9oCzi6cdQ2KO8L4T4eneh427brXKr9i820g20/jcL221pNYnW99fVG2cXLa+U0lR/QZJ5VYrZRS3ztqoLCtHcpPWlHaPSqZuK8M3Slo18x5N/FzNE1DHC+Qmy8a4oXFT66trPz0iOVKytxVM3VS/3P1fDXWoU0FgjrJSGA4/qqheilv4FMnWCzLBtGprPiH/oj84WzZaosgxcrysImOMiWaHFknGz7vBvvteb7zMVbJhytanuxQF8UW7xnHWNLrO2/q0Cfbc1SXjNgbYRTMtdK3j58xuaKsjM8dQ80zHxxN5rHyWr21DKQwO/D4OeIx1JbUNRDTXzgqVYTkO3c2HG6OwvL/tLRkdNHehDd4tqdB6SFRrXcyTJIVFRbamtl4eUmVk1Dhe886KrYx8V9K6WZ/dtL2OcWa3SjqulZMoyfFbFaTxc09V1356svXJ/S7Jy7VKwrhpOan+mZIxvkx26ezXsZGCwe/M3E70SG6jl4msjJ+Xk+hp3Zabksksnf2teem4lwpwghEIcUxEtSnZcCZUKSjKVtqClw0VVcZkm8Gr2aLTdhLvJLolqa2PpExkQzOrkg7irjytyiIoxDmt+Yig+CLjJl4lKZSMbFRPyIY9Mw9oVP62Od7t4PPvYOfNVxove6HiLpLW2jClsJKZ1YoWVBr/Hb+vVlfPZnmMrXzuhdo+6cpRM88QAOcSc5i7DnV1vi04HzqC9Urqjb/rQuthtjLrMUsa/75oZpueloyRDRxFYanxHry6md5WkBTY2sTDkra2Ht84CbU2VJi/wmQSd5wVRREHFMz5fdVGdSUTyTdYGw7EF7ai2Tuj45tg+3dfbNzUOZI1Nih3S9bIhnHXeGnmAqINFI2vOvKXb7sAeETHlTl7DH2Gz/WMn9vOvih5ZJezuhp/Zr6L2uzvI6oMH/g7iw+4fc2stxlVpFrbBVVTUBS0hUzjyhR2TcqY1oNsZeRuSbtmfql5PG5+kAN7y4ShovqYjNP8lKGtjn5V0sybdZJtE/lYmUSvTGZB67mN3yWT7J11gC/+8Lpac1ynpHiyIC8z89b9bOPcqPFduEmZ1Py24SRGJpGX4yY4rOA5IRDiaW1e81MVx3Zo8UBOGS+S5zYq7fr0rO58xs+n5NTOVOOoZRUljJP0ZrozhpLjSrZ51e6QrWpXmUTPGxvPaBUFnq2ODjS6qyhu8ZqYfZAOa7OeJ9x7Z79xUws1M9DOOagV7YCuNrNaJSXZ8j7ZA1vV2t/rIetIZm6DlcKZfcLWWsN3fBsHTMmYN8y0Uk5JQaOVsjYqyciv72t0HwbmMCPZoCxT2vniaLL2YhvNdJ807eOPS7vbjsVm1j+HuIFOFdUPCvn2gMxvZWcP9DbmLbPGnYel2a2dNXNAMDXS5Abb7Loqa60Nir8paeYyYWM8ausVw4qi9tZPx6+ZZN9M315rS8lL/+xzUWHHvrb3Nbt10/iN8Nec/Ccp42WrclONLktuZbPrbZ4JlabRUhmP7YzkKpKrWj1SomupsgtfyPaCQyIQ4pm80Vp7gY2sImtlrW1cNDSN6atNPCRu8NvLTWrg52QVXz6zQV5BKdWaREWRbFBuG29hJXvAGIixVW48mOtpHBTUDrgdVpuzaj7NmcIznUR0Uqsajq1DXTg4zLZkg5nNN5qZbAjoDFY2LMvWizrUBcLWvsOxGEfEPO3NZx7nHh00JMNG1UM9SftB/uxZ/xsUZl0otxqPJ0J7+tf9ObWfyISVAy56lxXVp1ovah1PKu6ZknGqkoxsOL584xdusmGlMLMftR4d72fWysYvcZukJ9lWcCgEQjytvdtW3bB51T1vXGnrchzJMdL8hUuUz+WUz2WVTCaUTvlytUPGblYikZTreXJdT47jyHXiA5OjKD402ZkuGfagA7Q9ROA7GpxA4CTXXD/sgO31ma6HAHNmF5CR47hyXU/NY79tXUBs/N2cC4viwgnaSp+9A7bWZz6nmX0eHpYbQ2naW8SNbPNPPOSl39pQNqzLRtEi6yYvtDIKw1BhUFNQH1FQmVRQnpSMI2ut3Mx82SicFoEQR7QhAgcoF8ajkX2DqpYLah6gtg9ukXEcOcaRMc2WwjjezVuwSPl8j3L5LiUTvtIpX44iOQrU1d2jVDqrdDotz/OU9D0ZRTKzBgFaKn+cutqvBhuvtc9E1jZmMIyX6QiDeHxhFNYVVmcmF6qUp9j+0Qk7impBoC2DO2WdePZg3/eV7+qVcYxcx1U6k5XjxBdIEr4rt/HzQXVGu7aTb/YjnEr7Q7OrqJUURZGiMFAUVBXWCgrrVcnx1Qx9UVBTUCuqXh5XWJlu1Tu2sQ/YRmunbZu0LhlZhdUpBqjjsAiEeAZGjnHktC0hZ62VDUNFh6iUd+0YPOCexjp8kvL5HqXTGaUagTDhu3LiQ5z6Bxaqq7tH+Xy3komE0ulmkKy3WhsdJw6gjjmwO4Ta/gVmb7+SWt2cZ7bK9m2otWHPVKBqrK/YbKtwEmrOlhdZqyiMt/0orCmoFuLuODZSbXp/PIOsjKzxWi9pIylqPncUKqiXG/cHrUBoJRXHpsWpLOb8XmmkaqWqR9Y/oaHxioxMIxD2xMd411U6nZXT6GHitwVCR/GMzFZW6XRGffMWynUcuZ6v7u4euW5cV6WSCXles4dKKEdB47WNXNdTcy1Bx3Fnls0z5oA2obaAaWcfKw5+BDp8q55Vz9jWurpxvWIbE9rZZrALQoVBVWGtqHp5TEG12JqZOooiRVEzEBYV1iuH6QFrnmE/O3DmVXpP4fAIhDimzEEHnJlOcYXpCRWmxw8Z4Hx/a1tXUxOHv8bBdN78Reru6VW+q1upZFKZVEKOicNiJpNVMpVWstFV1ffcRseKUO1hsa33EU7NLav1T3s3S9u2/IdtBToTrxUZ1tWskINaoTWzrG0boB9FVlEUxpcWgrrq1anG/XXVi6OyQbVtkehmRd/WlW3WOpBxQDySLc0c0B1IrRNRKmx00F5tTKOniRSGgcbHmpN4HHiB78Db8cm247jy/fWNXcjIc73WSa/jmFZ9ZDSz8Hsyldb8BYvlmDhE9vT0yXXjE+dUypfvxYGyFSKtlecnlMnm4vfrOEomU63WS99z217ngOWDCJFzbYttbF6OrHHirSqKFIV12bCusF6SjUJZJ9EIfYHCoBq35hVH4ot/jd+Lq6a4/rBhMFOPtG3hzQrPEORwHBAIcdy0T0JzoCgKFdVC1Q6Y11+SpgqFw54md/f0KZvrUiaTle/7SiU9GVk5CtTTO0+5fJcy2ZzSqZRSSV+uIzm23urqGv+RZg6/bV1W6b76bL/gA+9oFuTMXXb27ZkWOSNr/JmuL5FVvPyCVRQGcaBT3KJWL4/LhvGERIf8HdPoilkvt6b7rpfGGi1+z9YzbQHmkNs4gKM5hMzM+nik58BBMDMR06Hqj4NMTWtkePhZva9EMqXunr64p4rrKZfNtXqsJBNeqyXTUdgKhNlsXl09fa0Wya6u7vh3HKNUwp8ZX29CGRtfwIzrI6d1aGkPAge2XRrZQxyh6CnzLDa2g+9rXayOJDlxa16jR0hYLyuolxWUxhWFNVnjx907w1BhUFFUryioTioKnm5isMPPXs74cZxoBEKcVJ7tlbCJ8VFNjI20qsb2yjCZTMtPJOR5vlzPlefEV6KNQnX19Kuvf0D5rh5l0hll0gl5jpVja/ITCSUSSfm+L9f15LnN34saA7ptq5VoTtW9s7pLtY+Fc2a6WM7MViYbRY3ukXGwi4JqayycdRKtBXyjyCpsdrEMqgpqhebAeFWn9ra6WLYv+BvPPdQo3ShS1FwqpPE61j7zUIhZJ1BHfYWVcAecKp6vlpRataKhfbs1u7dJc/WBQ/+O5yeUTCbVnJE7kUi23p/rOnJabzWeLsRaq1y+WwPzF8nKyvN89fT0ynXjFsh0KiHXbQbPQK5CyUqe7yuRTLU+f/w6kmRar9McuNEKkXZmAre5OoGPaevZEfckacy2GQat7piSZE1CkY3rqLBWUFArqlYYif+/2QrY+D3b+L3Dt+YdwQzmwEmKQIhTmjHmgCAzIwiqqtfbp41uBkaj/UOjMs6mxpiR9qvRcaXc3dOvbC7faFlMyHWsHFtXJptTvqtH6UxWqWRSyUSj1VGBZqrSQ1/dtsf80u3hKpfDv048rs1pvZ/mIug2rDfGtcUnCq0WNXO4lru4Fa7VchfObrmb/f4O6Co1qxtVdBQf1XA1FcBx1QoY5shO620UqlyaWYKgVJxu/98DAlj8jEPDI9o2uK11T3uPg8NljWw2r+6ePskYeZ6nfL5bjhtP+pZMerNm+nYUyFqrdCarru4+SVau6ymbzclxXRlJyYQvp9VIGck5zAQ+Rxq+j129d4hZyVscWcdr1GmhwnpFYb2ioDIZd+E0vqyVwihQWCsrrJfi+ipormPcuqTc+DF6msY86h/MTQRCzGEHBrMDbtvm+jyzTU6MaWJ87KAuo9ZKyVRK6XRWiWTcguh7rhwjGRsq19Wtvnnzlc93K5vJKp1KyHMlVzW5rhu3VLquHMdtjG+ZeQ9qq/jbK1Bro8bslDPr1DVPIOKg1myFi2a6WLaNhbNRoHpxJO7GYiTJnQl3dqbLpo3imctsY6xNWC0cthXu0K2IB9w+4q+IK6YA5qbDhyYze1WBdm0td0cSpqamxjU5Od7260//O9ZaJZIpZTI5SYrHRKZScowjmcOPiczne9TbPyAZNVov++Q2usCmk35rHObMBD5WruPJ8/1WWbiu1zrkO40eO2p+WmtlbXyB1za6+tuobYxdY/x3PO47UFAttMbmRWE9nqHTNnur1BrDBkqtXiwzZd2aQejpvjka89BxCITAQRph7RAtj0G9qqla9ZDjC43jzAS+tvGJcVegLvX2z1c+36VMOtMKi2kv1PzeZDyltIknM2hWeJJpTC9daM1UNjOLpWZXaLOuNlup2fInK9nwsCcJhwx3jefmKigAnOxmX+g8kpa7MKhranKsdftIgqdxdsp13EZWimeCjV+92VNHrdvN7pm5XLf65i2QGl1guxqzwBqjuAtss/XSBkp6keb3ZSUnochGisJQQbUQt+a1Qp+ZaVxtztwZhe0j/2dNxkJrHnDkCITAs3L4sCjFA8ybSxK0q1aHNTI8NOs+a636upJ6xWXz28aTtF7msK9/dO+Zy50AgNisCWuOsH6I2ibmCsPgGR9frQ5rZGToGR9nrdSd9XX95fNbIfHAYQJP80FkaM4DnjMCIXCcHGpJjtaVVQIbAGCOOdKw2ZwPgLoQODFoSwcAAACADkUgBAAAAIAORSAEAAAAgA5FIAQAAACADkUgBAAAAIAORSAEAAAAgA5FIAQAAACADkUgBAAAAIAORSAEAAAAgA5FIAQAAACADkUgBAAAAIAORSAEAAAAgA5FIAQAAACADkUgBAAAAIAORSAEAAAAgA5FIAQAAACADkUgBAAAAIAORSAEAAAAgA5FIAQAAACADkUgBAAAAIAORSAEAAAAgA5FIAQAAACADkUgBAAAAIAORSAEAAAAgA5FIAQAAACADkUgBAAAAIAORSAEAAAAgA5FIAQAAACADkUgBAAAAIAORSAEAAAAgA5FIAQAAACADkUgBAAAAIAORSAEAAAAgA5FIAQAAACADkUgBAAAAIAORSAEAAAAgA5FIAQAACectVaWYgCA486jCADg+WbVPNO1kowxctz48BtFoWwUybT+F+iQvcJaRTaSsVIikZDrOooiq1qtJmutZExjv4gZYyg0AHgeEAgB4Fmxs/6RJLVOVE3jRyMZI9dLyHET8vyEHC8p10vI9VNyHC8OhMYoCusK61UFtbISIzskTYtgiDm9B1nJ81ydvmyJTj8jp3w+p1wmI89zFUaRKpWqyuWySuWKyuWKypWKSqWySqWyqtWqrKysbbQotv2Z2f+auyUBEgCOBIEQAA5i2xv1JFkZ48g4rhzHlXFcGeM2bjtyE2m5XkKel5Lrp+T6Sbl+svE4p/W7xjhyHEeS0cyzG1kbyUahsvtqMtpNHMSc37+SyaSueOElynbPl+fNPhUxxigMw1l/giD+t1ava7pQVKlUUrFYUqFYUqlUVqFYVBCECoJA9SBQEAQK6vHPUWRbQbEZEgmLADCDQAigw8wEsQMZ48jxfDmOH7fueQm5rh//6yXkuF7cwufG/+96STmO2/Z0s5on2hJlW7S0VrNbAOOfTSNoAp3AGCPf9+S6rqIoOuRjXNc9KCxK0oL5A/9/e/cdZ1dd53/8fW7v01smvQdCJ6FJFxCUviLYBZFVLOsqll13/bG2VUGURVQEWVkLSu8iNYRACmmTTEiZmbTp/fZ+zu+POzOZIEpJm5n7ej4eYU7g5ka/97T3/XzP9zN0HGmvn6l0RqmhymJqqKqYTKWUTKWVTKWUSqaUSqcVjyeVzWaVSqdkmnt//TL8fqP+l4rsCGCiIxACmCBGV/WGQtZwdc6wFZ5HshW2bXan7E73UEXPJbvTW6jqOVyjKn92GTZH4afdLmOoqmeNvP1b1PEs6939fwCK5Yi13nqPt97iOBpd8fN5PfL7vKqQRqZuG5LylqlsJqdsNqtcLqdMJqtcPq9sNqt4IqFEMqloJKZ4Mql4vFB5zGSzMvOmcvm8TNNUftTPN6syUnEEMJ4RCAGMQ6Oe47MVAp7N7pDN5hyq3jlks7v2VPmGqnl7nuEbruoZhVtGwxhZwGLvot7w32OJ9Q+BcXBmGKkYavTRLJfTIZfLWTjsh4794ddbliXTNPdsW5Yy6YziQ9NSU6m04omkksmhimMypXQmo3Q6o3Q6rUwmq1Q6TXURwLhFIARwCFl/s0aLMRLOhn4ahiRjpIJndxSez7PZnXI4vUNTPB1DgdCxJxzaHW8o5L11RY/IB0xM1tAx/sbtYYVne/dwOZ0KBvx6s0SXSqeVyWSUSWeUzmSVyWYLATKZGKkwpjMZxWMJxRMJpdIZWZYp07RGfg4H0ILRwZEQCeDgIxACOAj2XqTFsNlks9llszv/ZnrmngVa3IUFWhzDC7SMmvpp2AqB0Wbbeyrn0F8lWW851QwA/pE3C46S5HG75XG7peDoKauSaVojU0tN01LeLGxnsznFYjElEknFEwnF4smRhXCymayyucJ01mw2q8xQwBx+rpJpqQAOBgIhgH22943KyHJ+exZfGa7u2d2yO11DVbyhhVuGtocre+8IUzkBHGSjv2yy3qTSOFxtNAynhs+HZaWhN32sOJlMKZPNKJVKj/xKpgqL3wy32kil04rF4oX/Pmpq6ht/AsC7RSAEsE8yWVN5wyNfICi/PyivPySXxy+b3SWNVPTsQxU++15tF970eT0AmACst3Fe83o98vm8UsneC+SYpllonZHLK2/mlcvmlDdN5XJ5RWMxhSNRhQf6lUjENDgYVndfRHmTcyiAd4dACGCfRBJZrd7So0DAr8qKUgUCQXm8flWUhRQK+hUIBuVyOQqh0Bi+YdmzWAsAFLO/V+kbbruRzWZl5nPKZ1NyWmmVuJJyeNMKGpJK7BrwuTQQNpTPcD4F8O4QCAHss0wur86eAXX0DEiWJcMw5Pe55fV45PF45Ha7VVNVpqryUgVDJfIHQ3I67HIP2yXVAABAcUlEQVQ6nXLYHTKGplgNr/IHABPZnmn2hixr+NnDvGTllc9nFRkcVCYdl3IJyUwrl00rl81IVlY2WTIMyS7JNrQ6slT4mo2nDAG8GwRCAPuFMXxjMnSjE0+kFU+kZVmDkqTtO3fLbrfLZtjkcjlUVhJQTXWlQsGgvL6ASkIB+f1e+Xw+ORyukRsmAiKACWHoHJnL5ZVOp5TNpGRYGeWzKcXjMaWTMSmXkF05WWZ+6Nw3vLiMZJcx3DNj5C05OwLYHwiEAA6INzZvtqzCjZCUVyabVTSW1K62bkmFb7lDIZ8Cfp98Pr+8Hq+qK0tVXlaiYCgkny8gm81WCJS2wiqjLKgAYKwYvbCWZUmmZRYWvbJMZbMZxWNRZVMJWfmElE8pMxQIZWZkV14yJNtQ0NvTgkei5gfgYCAQAjgkRt/sWJIGw3ENDMZlqVuGCo2knU6H7HaHPG6XKsqCqq2uVDAUlM8fkt/nKUxJ9Xpktzs0PPWKgAjgQBs95TNv5pVNZ5TLpmVYOeVzaUUjYaVThYqfzcrINPdMCTVUmFZvL7yRCH0ADjUCIYAxwTCMvUJiLm8qm8tISisai6u3f1BbmndLkhx2u0pL/CoJBRQMhuRye1RTWaaykqD8gYDcHm+ht+FIY/sCi9VMAbxdQ1M8rTf0Ns3lskrE48qkEzLyKZm5pFKppDKpuGSmZVdur7cxh57usw29JwEQwFhDIAQwZv29KVO5fF49fWF194ZlqVWGJJ/HLbfbJafTKZ/Xo8ryEtVUVxSmnPqD8rhdcrlccjmdMmx2ScOL2EiERKC4ja74mZapfC6vfC4rKa98NqNoNKx0MiYrF5fNyiiXzcjM5yQrJ0OmDBmy/90pngRAAGMbgRDAuPTGimIynVUynRlZaW9XW2fheUMZcjodqigLqqysRCWhErk9XlWWlygU8Mvr98vldI9UA4b/wdRToDjk83klkwllUkkZVkZmLqVkIq5UMirlU7IrW3geUJZkWYVlXoaf+TMkFWp/ADBuEQgBTAjD4XD0d/GmaUmylE9n1NrRq9aOXllDbTFCAZ98Xo9cHrd8Ho+qKkpVU10pn98vvz8op9Mhh8Mhu90uw6AtBjC+zgdvaOtg5mWZecmylMtlFI1ElEknZGajspkZZTOF1g6ysrLLlIZX9Rz9nntONAAwoRAIARSFN656GoklFI4mNDxddJvdLoejEP48Hpcqy0OqKC9VKFQqn8+vkpBffp9XHq9XDodr5H0JiMCYOMJHslreNJVOJgsBz8zKzKUUi0WVTkRl5ZOyKyPLNGVZhV+G/n5bBwAoBgRCAEXpjVNOTctSJltYDCKdyWgwHFPT9jZJks1mU1mJv9AWw++Xx+NVdUWpqirL5fP75PUGZLfbZDNsMmw2GYZBWwxg/x6xI4HPsjQU5oZmAORyisWiyqQTsrJxGWZaqVSy0NYhn5bdyGl49oChUW0dtHe7CAAoVgRCAHgTe7XFsCz1DUTV2x+VJUuGJLfLKZfLKZvdLr/Xq6rKElWWlyk01Dcx4PfJ7XbK7fbIZneMvA8BEXg7x9/ei7wUpnRmZCivbCaleCyqdDIqK5eUXWnlc7mhtg65QluH4UVeWNUTAN4SgRAA3oY3VhSzufxIRTESiamzu3fodYW2GJXlJQoGfAqGQvJ6faooC6m8rERen19ut1c2wygsZDOqQmFw44qiOqYK+/xQLV2WJRkqPO8Xj8eUTSdl5ZKSmVYiHlc6FZdhZgqLvIzU+Szlh44e2joAwLtDIASAd+nNpptZViEstnf1yerskyVLNsOQz+OS1+uRw+mUz+NVdVWJqisrFAyG5PUF5PG4lMvnGFQUB0vKZDKypRLKZUc945dLyG6llc1mlM9lZVlZ2WTKMIyhG5Y3HnOEPwDYVwRCADgA3lhRTKQySqQyhSqIIe3c3Sbb0POGLpdTNZWlSqTSdEREMRwdyuey6m7bKlmWHFa68EzgUFuHnArHCG0dAODgIBACwEGwZ5XTwu8tFVZDlKRcMq+WXR17vQ6Y2EzZczHJMPZa5IW2DgBw8PG1GwCMAQRBFOFOzxgAwBhAIAQAAACAIkUgBAAAAIAiRSAEAAAAgCJFIAQAAACAIkUgBAAAAIAiRSAEAAAAgCJFIAQAAACAIkUgBAAAAIAiRSAEAAAAgCJFIAQAAACAIkUgBAAAAIAiRSAEAAAAgCJFIAQAAACAIkUgBAAAAIAiRSAEAAAAgCJFIAQAAACAIkUgBAAAAIAiRSAEAAAAgCJFIAQAAACAIkUgBAAAAIAiRSAEAAAAgCJFIAQAAACAIkUgBAAAAIAiRSAEAAAAgCJFIAQAAACAIkUgBAAAAIAiRSAEAAAAgCJFIAQAAACAIkUgBAAAAIAiRSAEAAAAgCJFIAQAAACAIkUgBAAAAIAiRSAEAAAAgCJFIAQAAACAIkUgBAAAAIAiRSAEAAAAgCJFIAQAAACAIkUgBAAAAIAiRSAEAAAAgCJFIAQAAACAIkUgBAAAAIAiRSAEAAAAgCJFIAQAAACAIkUgBAAAAIAiRSAEAAAAgCJFIAQAAACAIkUgBAAAAIAiRSAEAAAAgCJFIAQAAACAIkUgBAAAAIAiRSAEAAAAgCJFIAQAAACAIkUgBAAAAIAiRSAEAAAAgCJFIAQAAACAIkUgBAAAAIAiRSAEAAAAgCJFIAQAAACAIkUgBAAAAIAiRSAEAAAAgCJFIAQAAACAIkUgBAAAAIAiRSAEAAAAgCJFIAQAAACAIkUgBAAAAIAiRSAEAAAAgCJFIAQAAACAIkUgBAAAAIAiRSAEsG8shgAAAGC8IhAC2DeGZFmWLIIhABw0hiSbYTAQAPYZgRDAPvG67ZpS41Np0Cm7zSAYAsABZkhKZ011DaTU1ptULm+JaAjg3XIwBAD2hd/j0NGzyhRL5jQYy6g3nFbPYFqJdF6mWagc8iU2ALw7w+dPy5KyOVPRRE5dAyn1RzIKx7NKZfIMEoB9QiAEsM8MQwr5HQr5HZpU6VU6a6o/klZXf0qDsawSqZwyOWvktQCAf8wwCiEwkcornsqpP5JRZ19K0WRWmZwp0yx828YpFcC+IhAC2C+Gp4rabYb8brt8VT7VV/mUSOU0EM1oIJpRbzijSDyrPJVDANjL8OnQkpTJFb5U6wtn1BcpnDczOXPv13MCBbCfEAgB7HfDjxEakgIehwJep+orfUqmc4omcuocSKl3aFppJlu4yeHeBkCxMVQIdnnTUiqbVyyZU0dfUn2RjGLJnNJZU+LLMwAHGIEQwAFlSZJlyTAkv9chv9eh6jKPMllTfZG0esJpDUYLz8JkWRgBQBFJpPMajBVmUHQPpBVJZJXLD63abAxVDTkpAjjACIQADprhaaWGIbldNtVXeVVX4R2pHPZHMuoaSCmazCmXM2WOvikCgHFquMKXz1vK5k31hTPqHiw8Yx1L5JQemg5qvOH1AHAwEAgBHDLDzxGOrhzOqg8oHM+qeyClvkhG0URWqYxJMAQw7gwvDBNN5BRNFM5rPeGMEqnc31YCAeAQIRACOORGVw5dTpuqSt2qKnUrlckrHMuqL5JWbzijwVhGedOSae55PQCMFcMB0LKkdDavvkihFU9/JDMyHdR4w+sB4FAjEAIYs7wuu7wV9sIzhzlTiVRO3QMpdQ+mFUvmlEznWa0UwCE1/JxfLm8pOfRMYFd/YYZDOmsWVgcdOk9xqgIwFhEIAYxZ1tA/DEPyOG3yOF0qC7o0q97SYCyj/khaPeGMBqOFG6/Rq5sCwIFiqHB+siwplsqpb6hFRH8ko2gyO1IlNFgYBsA4QCAEMC5Yo7YddmNkWum0TF6JVF7dg2l1D6QUTWSVyVrKm4U/QfUQwP4wfC7J5iylMoVKYGdfSgOxrJLpnDI5U8aoRvGcewCMFwRCAOPS8HOHHqddHpddpUGXZg8tSNMfzqgvmtZANKNkKi9TfEEP4N0xJOVMS9FEVgORrHojafVF0kqlTZmWNVIJtJEAAYxTBEIA49rItFJJdpuh8qBLFSGXpuf8iiSyCsey6uxPaSCaUSZrUjkE8A8NLwyTH3omsHswpZ7BtMLxrOKpnExz7/MH5xIA4x2BEMCEY1mFaaUVIZfKgy5NqfYpmc6payCtnsG0oomsEqmc8iY3cwD2POeXyZqKJ3MajGXVNZBSfySjdM5UPr/niyTOGQAmGgIhgAlreFqpw24o6HMq5HNqRp1fkXhWg7Gs+qMZ9QymRlYrZcVSoDgMB0DLkvKmpUg8q57BtPqjGYVjhS+MRj+3zHkBwERGIARQNCwNTSsNuVQecmlqzqfE0DLxHX1JDcaySqbzyg2VDrkHBCaW4WCXzphKpHPqHUyrcyClaCKnVCZf6HFKewgARYZACKDoDFcO7XZDIb9DQZ9D9VVeJZJ59YYLC0b0RzKKpXKFyqG4QQTGu3ze0mC80BpiuFl8JmvKHPrvhqgEAihOBEIARW04HNoMQwGfQ0G/Q1NqfIonc4omsuoeLDx3mMrklc2xIA0w1hWCnaG8ZSmbNRVLZtU5kFJfOKN4MqfE0BTx4eOYwxlAsSMQAsAollWYVloScKrE71RdpVfpjKm+SCEYDkQziiZyyuUtgiEwxhiGlMrkFY5nNRDJqGsgrXA8o1zeKkwHFQvDAMAbEQgB4E2Mrhx63XZNqfapvtKreDKvwXhGvYNp9YTTSqTyypuFXmQ8ewQcPMOhzjSlvGlqMFao6PdHCi0i0hnzTV8PANgbgRAA3obCFDNDQX9hWumkCq9SWVOReEbdA0PPHCZzSmdNgiFwAA33CYwn84omC6uD9g6mFUvllM2ZLAwDAO8QgRAA3oGRyqHNkM9tl8/tVW25V6lMXv3RjPojafUMZhSJZ6kcAvuBYUiyJFOFPoEDkYx6wnsqgbm89bevBwC8bQRCANgPPC67Jlf6VDcUDqOJrDr7U+oNp5VI55XJmvQ5BN6m4T6B+byldNYsLPA0kFb3YEqJdL5Qied4AoD9gkAIAPuJaRUWmvF57PK57aou8yidNdUfSWsgmlV/NKPBaEaZnMlgAX+HZUnxdE4DkYz6IhkNRDMKv1nFnTAIAPsFgRAA9jNr1Aw2t9OmSZVe1VUUKoexZE694bS6+lOKJnPKZk2ZNDpEkRqu8A1XAgeiGXX2pzQYKzyTm81Ze025piIIAPsfgRAADrDhgOh12+V121URcmvWpIDC8cI0uP5oWuFYVqlMnsFC0ciblpLpvAZjGfWFM+oeKEwHHa4E0h4CAA4OAiEAHCTDwdAwJKfDpsoSt6pK3UplTIVjGbW0x9Tel2KgMOFlc6aa22Jq70u+aV9PgiAAHDw2hgAADh3LkjxOm2rKPaoIubkRxoRnGFIub6lrMKX+SEZ502K/B4BDiAohABxi1tA/LIYCRcQwDBkkQQA45KgQAsBYQSIEAAAHGYEQb6Xw9a3FnSoAAAAw0RAI8Q8FSqrurJkyf5vL488Yhk0WwRAAAGBss0wZNofsnrK4u3zWS65g/csMCv4eniHEP3TS+655IpdNr6ysm/Xx3dtWX5qIDZwSi/Tx3AcAAMCYY0myyRGozTj9tS/6a4++2+4te6p0xtlhxgZ/DxVC/EO7m9ZosHd3T+euTTefdtH1H5oy57gvTp519CaX25ejYggAADAGWJZk2GX3VqR9dcc8E5h84rVTz/7BFYmu9fdmY51h7tfwj1AhxD80dc5xI9sbz7yqbemjP/+fKz5/20NVdTMv6di56ZPRwe7jErEBFb6RomoIAABw0FiWZHPI4S2Nu0qmrvVWLviJt3rh0t6Ge3rz6bCmnv2DoRd+grHC30UgxNu28IQLZZp5PXffj1sv+NiNt7U0vvzHDSsev7q/c8cVA727j00lYzZZpgiGAAAAB5IlGTY5/NWm01/7lLdqwX1lcy964PnPlcUWfeMRTTvnZh7vwdtGIMQ7YrPZR7bd3mBfItL346Pfc9n9u7atPnugZ/dX+7t2zkqnYg7TNDkRAQAA7E+WKcPuks0ViHrKZ29whabeXDLzvUuju5b2ODylOu9uSXdfzDjhHSEQ4l2rn3mULMvSsid+uf3ia35454ZXH32wtXntta0t6y+MR/tOSUT7RbUQAABgfzDkDNTlHf6qp/y1x/7JXT774bW3Hh876rMvqerIj0n6GEOEd4VAiH0yXAXctOpJ2Z3ufpvd8cOTzv3Un7asf/6ceLj3hu62bdOymZTLNPNUDIF/xDIlmYwDimWHl2WasixThsH6dsDfP1QsGXanbK5AwlM+Z6UzUPPryiM//pdw89P9Zjauk/8rKocryDhhnxAIsV8ctuiCke3Xnv/9jm9fd8uvb3/0549UT5770d1Nay9PRPtPpl0F8EbWyIIATn+1nH6fpFjh3wMTda+3JLvDpYra6UpafUpE+mTJGro+cI0Aho6UwjOCvqqUMzhpmb/myDtcJdP+uvOZrwyWzDhbFQsuZ4iw39gZAuxvd/z2QTXs2qSWxmXxlc///tULP/ndpzLJ2G63N1CfTsUqzHzeVvhWmAu/123X9Fo/Y1EUhsKfYZNhc8gwbHmnrzrtqzkyIVk/8tUccX9vunReZ+u2csukUngw1Vd6VRp0iVXZD9ahYMnlr1Dd/LOeHIxnbw2WVg1U1s2ak07Gcvl8zmHYbIZlDVcPJULixOdx2TWjzi8b10IVgqBdDm9FxlMx7zlv9RE/qD/5azfufuE/1rhCk1LTz/upnL5Khgn7FRVCHBC1Uw8b2b7yC9mOhlce/tn7PvwfD1XUzvhAd+uWa8P9nUcl44NG4QaZCwAmquEQaMjuCsnuCckyzU3eyvkxh7f8j6mBlmeC0043Q1NP29zy8FVWNj//CsMwZjFumOjHhc1mV8jvekWWddtHv/K/v33thd//IBEbtC2cc+wnezu3v6evc0eVYWhGPNqvTDImyZBhY2opJvJhYcmwOWT3lMRcpdPXe8rn3uSvO3ZZ/+v395i5pOZf+bCkhyV9hLHCfkcgxAG34LjzZFmWnn/g5l3v//h/3d7S+PK9m1Y99eme9ubLw31ti5KJiEEfQ0wMw/uxIRmSzRkw3aXTZeVST9q95Q2h6Wdk7Z7yuw1D7b6qI7I7n/mqcslBxTtWa9J7b7dveeRWDgIUz9FiWY4Pf+lXOu70D0aT8XBjPNKrs//phhvWLv2zffJlxyzctfW1C9e/8pDb6y/9QDIeXtjXtcPIZ9OGVfjD4gtFTByGHIFq0+mvedJXvfD+0IyzH3j++kmxE/7jCU0+7dvMIsIBRyDEQbHnZPZV9bQ39Ztm/kfHnv7B+3e8vuLMwf72r/V1bp+RScWdtKvAuGMVpncaDo9sTq8ko9tdOj3mLpm2MtXf9NvA5JNTpbPOaex49eYew+aUw1smT2jKqDe4WZKUjPYzlihK845+78j2F/7bMCWZ0cHutTa7Y61h2HTuld/87dql901yOFzBmqnzv9bavG5SpL8zJEOVmVRCuWxahmGwOA3Gl+H2EU5/zFMxd70rWP/T0jkXLInsWtrjCtTp/Hsk3fN+xgkHBYEQB13VpNmyLEuv/uXOlkuu/XHL6hf++FBPe9OndzevvSgR7T8lHunjW1+MfZYlw+mRK1Anw+5usaz8ktC002Lu0ll/SPRu2lS18MPpTf93VtpXd6xS/U2afNp/SvpPxg14G4Kl1SPb2y/7l625THrrCw/9Trf+pfP55x+4xX7KBZ85enfTmo+0bFzm94cqLooMdAYj/Z1iRWuMD4acgbqcw1/9tL/2mD+6SqY9uvHOk6JHXPuqqhZeJekqhggHFYEQh8TwBXvL2mfVuXtzvyXrRye/75o/bV777Pvi4d5/7W7bNiObTTnNPBd3HGKWJamwEqjN7pIMW9rhr4l7ymd15RK9v/BUzOsNTDqupWv1HStkWbKsvHKxTsU7XtNhH3ue/RfYRzPmnyRJSiWj2rL22Xg80ifTzL8ky3rpuhsftbVsWnZ+wysPh0LltbNCpTVf2N28zpmMDQQsS85cNi3LzEuGwbGIQ8uyZNgdsrmCSU/57OXOQO1d1cdc82Tf6w8OZMI7deJ/pmWzuxknHBIEQhxS847ZM1VozZI/7fzN92751ddvu+2R6vo5V+5uXvehRLT/RCqGOPj2tINweMtk95SkzGzi5cDkEzOe8rmPxtpWPVE279Lsf5TN6Lph7V0ycynNeN+tkm5l6IADxOMd3WvtTklS31kfNnPZ9BOmmddH//Vu27YNL/5vJpNyzJi/+NLWloZzW5vWBt3ewKJYuMeViA0OLdxBewscTEOrhvoqkq7gpBXemiN/7imb+VzrS98ZKJ19wVBFEDi0CIQYM449/UPq796lV/9yV+d/ffrGn/7+tSV/3LDisY+E+zs+3tfRsjCTTtqZDoT9b3Q7CLskm+ze8oy7dFomG2m7zV0xt6dkxll93uqFf7DZXNknrjB05PXfVia8Qz/KZwpVQwCHREXVtJHttvM+ZYb72loHenbrqs/+7JasZd2SzSQrmhpevGjN0vvL8rnsCU6X5+Ku1i1GOhlzybJkmjlZlsXzhzgAhttHlGddwcnPuctm3lt9zDUPrrmlPjrtvFs0/8rHuJ/BmEEgxJhSXj11ZNuyzK7tm179yakf+OcHOndvPr+nven6cF/7Ycl42Fa4gHMixbs1FAJlyObyy+4ukZnPbPNVL4x5K+atTfZvu8M/6fhEybQzGttfvcmUJMvMyRieznPfjZJuZBiBMaR++pF7/d4wDGXSiT7JuFuSPvzlO0rXvnTfDwIlVSUl5XXXtrWsP6y3o6XC5nBOTUT7lU0nRHsL7LORqaGhmLtsZoOnbNaPA5NPWDa47ckeWaaO+9d2SR8a+gWMDQRCjFlzjjpTlmXpxYd/uvMDn/juL5s2LPnTlrXPXtu1e8ulkYGuE5PxQQYJb9OodhCSbK6A3CVTZeaST9tcoQ2ls87N2lyBO2XlWwOTTsj3PfKJvKd8juIdq1V/8g0MHzBOudy+ke1FZ314MJWIrHv2zz/Uz57MLXvlL7+2nXnZl4/atW31xWuX3ucOlFSdn0pEDu/v2qlcNj3q3CExxRRvjyFHoMZ0+quf8NUceX+g/sQHl35tVmzRN59W3Yn/yhfZGLMIhBjT9pw8v6xIf+dAU8OSHx1/5lX3tzQuOzMy0PX13o7m6Zl00slUUvyNkXYQbtkcXsmwR1yhyYOuYN2qdKT1nsDkk1MlM85saH/lpk7D7pQzUPuGdhD3MIbABDK6vcWthpGTpOhg9yqH07Wq0N7iG3evW/rgZLvdGaysm3lD5+7NdfFIX6WZz/oy6STtLfDm9m4fsc4ZnPQ/5fMveT6y86VeT9lMnXunpDvPY5wwphEIMW6EymslScuf/k3LpZ+5uWX503c/XDNl/tW7t62+KBEbeE8s0kcoLHrW0GMbLjkDtbI53Dsty3o5OO1UOQO1D6b6m16oPupTqcb/PTXprztO6fAuTT3re5K+x9ABRWh0e4tzPvSNTflcetNf//RH/eThDX999ZnfOs64+AuX7di8/MymDS+7fMGyC6KDXf7oQDftLTDEkDNQm3X4a5711x7zO2do8uOb/3B+JFB3nCoP+yDDg3GDQIhx58TzrlbzxqXasvbZvmwm9eP3vP+6P72++q8fiIV7vtDdtm0W7SqKxKh2EIbNIcOwZx2+yoSnfFZ3Nt79K0/l/N5g/QlNnatuX2ZmE8rFu5VL9Cm6+yUd/sml7B8A9jJzQaG9RSzcq81rno4mYwOKDHTelUkn7vrn/3rM3ty49MKGVx4piZX1zPKHKq5v277BkYqHfZZlOfK5jCzTpL1FMbAsGTaHbO5QylM2c5kzOOm3Ncdd91jXmjsGzYGUFn89wj6AcYdAiHFp1sJTR7bXv7x416O/+cntn/6PXzxcNWn2P7Vtb/hILNK7OBHtH3oFJ+aJwyqsCGizy+Etl90dyuSzyVf9dcdkvRXzH422LX+8dO5FmeMr57e9sPoOmfm0Zr7/F5J+wdABeFsCJZWjfneXJKnvvKvz+Vz2Ycs09bGv/tbeuOqJ32TSSce0ucdf1rFj43ntOxoDLo/vmHikz5mMh4dCA1NLJ5bh9hHlCVdo8mveqsNv9VTOe7Fzxa195fMvUe1x/zz0uk8yVBh3CIQY9456z+WKR/u19NGft5//0W/f2rxx6R83LH/s44O9rR/u69pxdCYVtw1/c4vxxBpaC2bomR3DkM1dkvWUzcqb2cQfHb6qraEZZ/Y5fJX3eEqmZy41DOtnz31TmWibNtIOAsB+VFE9fWS7/X1X56OD3TsGenbpqi/+8ke5XPrHqXi0csfm5Zete/mBMkmnyjDO6dy12chlkg5LliwzX+huw3VoHBpuH1GRcwUnPeMun/OnqiM/9uDSrzujC695QLMv/i2fK8Y9AiEmBH+wfGTbZnf0dLduufm40698oG17w7l9XTu+NNCze14qEbVblsmJe0wb3Q7CJ7srJNPMbvdVHR73lM9Zm+h9/Y7glFOSJdPP3Nz+6k1xGTY5/VUjn+nDZ/9A0g8YRgAHzKTpR+z1e4fDbWXSiR7DZvuVDEOX//Mtd61/+cHpHl9JaUXNtE+3b284rLejpdxmd0xKxgeVTackiQriWDe8WIwrEPWUzd7gKp1+U2jaqcvCLc91GzaHTr9J0k2XM06YEAiEmHBmLDhJlmXppUdv23HR1T+4Y8uaZ+5r2vjyZzp2Nl4UC/ecnIgNMEhjxnA7iAKbMyBXqF5mNvmc3VPWWDLrnKzN4fmVZeZ2h6aelu/58+VZf82RykRaaQcBYMwY3d7ipPOu7kknYz2P3X2L/ne59eLSx35uP/3iLx7T2rLu0nUvP+D2+ELnZ9KJOYM9rbS3GLMMOQN1psNf9YSv9uj7fNVHPrTiOwtjx/7rc6o57jq+WMaEQyDEhDR8sm545WHVzThiYMfmFT9cfPZH/9y04aWzouHur/e0N0/LppMuVoo7BIbbQdhdQ+0gbDFXqD7iqZjXmU9H7nAG69sCk45f27PuN202u0vO4CRFtj8rV6BO8654gM8LwJg26/D3SJIsy9LWdc9l+7p2ZI96z+WvOpyuVw3D0GkXfu5/t65/ob560pyZDpf7uvYdG0vj4b5y08x5MumE8rmsDMPGue5g29M+Iu6pmLvaGaj9RcXhH3omsuPFPndoik797x45/VWMEyYkAiEmtCNPvmRke8Uzv91+2XU/uWvZE796tGby/I/v3rb60kRs4BTaVRwMhamght0lh69KNoe7VZb1anD66XL4qx9I9Tc9V3nkR3MnO7yDjzX8n7LxLk096/uSvs/QARiX9rquXHvTyOamD3x2bT6XXXvxNT9U+/aG36WTcdtpF17/wZ1bVp65bf2LLl+w/NxYuMcbj/SOam/BNerAsSTZ5AjUZpz+2hf9tUff7QzVP9X88CfCwSmnqGLBZQwRJjwCIYrGCed8Qru2rtK6lx/sifR33HzahZ/7U+Nrf7kkNtj92e62bXOzmZSDiuF+MNIOwi7D5pAMe87hrUi5S6f25JIDd7hLZ/aFpp6yrWP5LS+mB3coPbhTkpTs3qhX8jnZ7ZyWAExchx1/viQp/cEb1NW6pT8ZD6upYckvYuGeX1z//acdW9Y9d1nDKw+XJOODM/3B8s+272h0JONhj2TZ87msLHPoWXiuVfvGKrQtsntK0u7S6Utdwcn/V3PcdY+0Lvl/YTOf1jFfaOZ+AEWDOy8UlalzF41sb1h+WeuLD/3stiu/+IuHK+tmXtKxs/GT0cGe4wrPGO79bBveylA7CMMmu6dUdncwb+YzK/21R2c85XMfjbWvfKx01nmZwKTFOztW3irLzGn2JfcwbACKltsT+Jt/d95HvpUzzdyfLcvUx2/4P8fGFY/dlUmnnFPmHHt5167Xz+vY2VjidPuOiIV7lE5GCwtgsjjNOzMUBB3e0rirZOpab+WCn3irFy7tWXd3by41oCln3Dj0wk8wVigaBEIUrSNOvEj5XFbP3X9T6wUfu/G2lsaX792w/PFP9XfvuGKgZ/exqWTMJtpVvLnC+umSYZMhQzZ3KO8pm5HLZ+L3O7zlW0PTTh2QjDt9dcdm7M5APrLrJWXj3TJzycJzgwCAv1FWMXlk+9QPfDYXi/Q2DfTs0lVf+tV3d2xe/gNLmhLubf3IupcfsNsdrlMMw3Z2V+sWZTNJuyxLlmXS3uLvsiTDJoe/2nQGap/yVs6/r3zepQ88f31J7LivPazp5/2UcUPRIhCiqNkdzpFtlyfQGwt3//ioky+9f3fTmrMHenZ/tb9r56x0KuYwzWJvV2GNhECbwyubKyArn93trZyX8FQuWJfs3XxHcMopiZIZZze2vfz9qAy73KHJcriC7GQA8C6Mbm9x/fcMScq37diww2azf08ydOlnbqrduPyxmW5fqLSieuq1u5vWLhjsbS01bLaaVCKiXCYtGSr0cS1mo9tHlM/e4ApNvblk5tlLIzuX9tjdIZ17l6S7LmGHQ1EjEAJDJs86WpZladkTv9x+8TU/vHPjiscf3L1t9bWtLesvjEf7TklE+1Ws00htTr+cwUmyssmXbO6STSUzzsrZXL7b8+nIrrI5F2Y333tRxl97tDKR3Zp86r+zMwHAAVA/KiSedtH1nelUvPPPP79V9220nnv6j99znHHJl47dve21yzeufMLt8YXOzaQTM8O9bcrl0irO65chZ6Au7/BXPeWvPebP7vK5D6396XGxo65foqojP0ZFEBhCIARGGb44NK58Qt5AWb/N7vjhSed+8s9b17/w3li494butm3TspnUxGxXMdwOwuaU4fBIUtJVMjnqrZjflUuFf+0qmdLmrzn6tZ51d+8y7E45POVKdm9Uqr9J8698lAsrABxEo9tbbFn7bDrS35H2BUuX2h3OpYZh06kXfnZRU8OSKYlJs2c6XZ7PtLWsL4lH+ksty3RlMynl8xO0vYVlybA7ZXMF4p7yOa85AzW/qjzyY0+Hm//aLzOrk78TkcMdYgcCRiEQAm/i8MXvH9le9fzvtn/9ult+/ZvHfv5I9eR5H93dtPryRHTg5InRrmJUOwhvhQyHu8PKZ1eGZpwlh6/ygVR/0zMVC6/KOtyhvu6Ge5RL9WvaOT+S9CN2EgAYA/a6Dn3+5yObjRd9blU+n1t16bU3Ga1Nq38bj/TZT7vw+it2bFlx1raGJc5AqPLsWKTXnYj2T5D2FiPPCKadgdqX/TVH3eEqmfrXHU9/eTA0/SxVLLicnQX4OwiEwFtYdNZH1bFzo1Y9/4fuxpVP/uTy635yb+PKJz4YGej6dE970/zx065i+DlAuwybfWiVtfKkOzSlN5cauNNdNqsvOOXkLa3P//uzvevuluHwKDDlZKX6tihPOwgAGFcO39PewurpaOlJJ2N68I6v3GpZ1q3f+vUm1+a1z1zR8MojJfFI70xfoOza7ratzlQi6jHNvMx8TpZljpOQWLiuOTxlGVfJ1BddJdN+X3PstQ9ve/CqSNncC3XENSuYwQK8Be7wgLehbtrCke1Lrsm0r116388u+NiND1XWzvhAZ+uWayMDnUclY4PGyOqbY8aodhDuEtmcftPKp9b4647Pu8tmro11rPmfktnnpgOTTmzuXPk/kpXX/I/8ZdSff1zSv7EDAMA49WbtLT7/w7aMZZm/kyx96pv3OtcsufdOX7A8UDNl/hd3blk5p217Q4nHG5wfj/QpnYqNzfYWw+0jPCUxV8n09Z6KuTf5645Z1td4X4+ZS2ju5fdKulfSR9gJgLdAIATeoQXHv0+WZen5+2/adcHH/+v2lsZl9zauevLTvR3Nlw/2ti1KJSLGoetjOPT3Dn2ra3cFTXfptLyZTT5k91VsC009dcDMRH/pqTo87SmdaUZbXzVziV6ZuaTqTvgiHy4AFIHR7S1OOPvj2URs4PWGVx/Rv3/ye5/0BUqNo0/9p2mxwe6Pr3v5QbvN7jhZlnl6T0ezkcukDEljoL2FIUeg2nT6a570Vi+8v2TGex94/vq62AnfelxTzriRiiDwDhEIgXdhz8XmBnW3bu3P5zI/OvbUD96/Y/OKMwf72r/W17V9RiYVdx6UdhXDi8E4vLK7/LLMXLu7fFbSWz5vfbJv66+DU05KlM6+YH3by98LGzaHfNVHyF06gw8RAKDpC04c2f7WHUZektp2NDQnov3fNgxDl3z6v+vXvfzgbI+/tKykou7THTsa54f72ysNGSXpZEy5bEoyjAPf3mK4fYTTH/NUzF3vCtXfUjr7/Jciu17ucQVqdf49ku75AB8o8C4QCIF9VD15rizL0itP/brlkmt/3LJmyZ8e6m7d8undzesuSkT7T4lH+g7QNFJLht0jV6hektFgONxrQtPPyNjs7ttyyd4dFYddmd30f+9NFdpBtGryqd/iwwIAvKX66UeObJ920fVt2Uyq7Tffv11P7Eo9/fQfvudY/N6PntPb0fL+zWuetbs9/vemktH6cG/70MqlB+J6Z8gZqMs5/NVP+2uP+aOrdNqjG+44KXrEta+oauFVkq7iQwP2AYEQ2A+GL4Cb1zyjvs7t/ZLxo5Pfd82fNq999rx4uPcr3W3bZmSzKaeZfxeLz1iWJGuoHYRLspRyBmsT3srDurKJ/rs8ZTPaglNO3rj1vis2hqafIUnKRjuV6GnUYR97lqkzAIB3bXR7iw3LH03Gwj2SjAcNGQ/+842Pqrlx6amvr/5rfUXN9Bkuj+/a1ub1Jal4OGhZpjOXTcvM54cqiO/82jfUPiLhKZ+9whmovavq6KufHNjy8EAm0qqT/jMlW6FFEoB9RCAE9qP5x54zsr1myb07f/XtW+741h23PVJdP/eq3c1rr0hE+096exXDwmIwNptTdl+5DJujW7JWh6afKYe3/P5ET+NfKxZemXV4yrt6Gu5RPhPXEdeuIvwBAA6Iva8vv5Q03APxmaWmmdcHP/c/tu2blt0d7e9ynH7R56/ctW3VWdsaXnL6AqVnJGKDjkS0X5ZpyrC91cqlQ6uG+iqSruCk5d6aI2/3lM18rvXF/zdQOut8VR5+JR8GsJ8RCIED5NjTr1Rf53Yt/+vdXT//9//66a1PLLl3w4rHror0d3yit6NlYTqVsMuyCuvADPVPMmw2yXDI4S1Pe8pmpC3ZHrY5fev8tcds/v7005/6oX6jJV+RZl74baUHmmWrCan6qE8w2ACAg250SExf+W9mf/euzkw6odNPvPCmfumm1pZ1np72po9uXft8UIZOMPP5izp3bbJnUgmXZZkyzXxhgRoVZsLIsMvhLc+6QpOfc5fOvLf6mGseXHfb3OiUs76j+R9+ki89gQOEQAgcQBW1exZv+amZ72zesPSW0y76/INdrZvP725r+pwj13e43R2wOVx+y8pnG3yTjs27S2esi3esuzU085x8YNLinR0rfhaVLP1w6H1Ov1nSzTdKupEBBgCMCW/W3iKfy6Yk3SlZuuL620tWv/jH7zvd3kD9zCO/uGvra3Pat28IOV2+2S4jKbunPOarmNXgKZv140D94mUD2x7vsaycjvnCNklXDv0CcCAQCIGDZO7RZ8myLL340E93fuAT3/3lhlXP/inesepaTyhZWTL1PQP5dOQ2T+W8tK/qiHysdUU+nxpUPhPVpBP/hcEDAIw70+YuklSYWtrb0RROJcINa168V5dfd8tKl9tnO+qUS6cP9rZ9qn3bq/aS2e/ZWDrtlAdf+srM2OJ/+4smnXQDFUHgICEQAgfRnovbl7VrR/NAqnvtjwzDLsPuUnDyiXKFpox69Q8ZMADAuPfGYPf9e42cJLXv3Lg1Otj9TcOwybC75CmdofN+I+k372PQgIOIQAgcIlOnz2IQAABFa9K0haN+9wtJH2JQgEPAxhAAAAAAQHEiEAIAAABAkSIQAgAAAECRIhACAAAAQJEiEAIAAABAkSIQAgAAAECRIhACAAAAQJEiEAIAAABAkSIQAgAAAECRIhACAAAAQJEiEAIAAABAkSIQAgAAAECRIhACAAAAQJEiEAIAAABAkSIQAgAAAECRIhACAAAAQJEiEAIAAABAkSIQAgAAAECRIhACAAAAQJEiEAIAAABAkSIQAgAAAECRIhACAAAAQJEiEAIAAABAkSIQAgAAAECRIhACAAAAQJEiEAIAAABAkSIQAgAAAECRIhACAAAAQJEiEAIAAABAkSIQAgAAAECRIhACAAAAQJEiEAIAAABAkSIQAgAAAECRIhACAAAAQJEiEAIAAABAkSIQAgAAAECRIhACAAAAQJEiEAIAAABAkSIQAgAAAECRIhACAAAAQJEiEAIAAABAkSIQAgAAAECRIhACAAAAQJEiEAIAAABAkSIQAgAAAECRIhACAAAAQJEiEAIAAABAkSIQAgAAAECRIhACAAAAQJEiEAIAAABAkSIQAgAAAECRIhACAAAAQJEiEAIAAABAkSIQAgAAAECRIhACAAAAQJEiEAIAAABAkSIQAgAAAECRIhACAAAAQJEiEAIAAABAkSIQAsBYYEh2u0OSIcsyGQ9MWJZlSYZNsjm4BwGAMYCTMQCMAU6335w6d9HjNVPmbQuW1gyFQouBwcRhWZJhyBWql7ts1ipfzRHbGBQAOPTsDAEAHHqnz0xp0fmffaWsZtpSWVa/N1i2IBEb9OWzWVmWJcMwGKQDpL7Sq9KgSxb5+wCxJMMuh6/K9NUetSEwadHNpbPOucFbediKG2+8keEBgEOMOwwAGENaW9Zp8syjtWn1X47qbW/+xI4tKy8d6No5PR7tGyqwcNrenyxLWjS/XNPr/DJNEuH+HVxThs0pu7fc9FbM2+oqmfLTQP3iZ+Od65qD9YvlLp3BGAHAGMCdBQCMMbFor7aseVbHnvYhe8vrr8zctXXV5zp2NF7W1bplajI2yADtRwTCA8cZqJMrWL/cP+n4J9wlU2/11x4die5epuCUUxgcABhDHAwBAIwtgWClJGn75ul5ry+0LZfNfPnE8z51b9OGpRf1dTR/umPnpupUIirLyssweBQcY4RlyrA7ZXeXZL3VR7Q5vBXfKZlx5pJU37ZmuyugRE+jfFWHM04AMMZQIQSAMc6yLG1e96zmH/1ex8aVj9eH+9q/2dK47KyBntY5sXA3oXCfxpYK4X4YRUmGXMF6Ofw1rwQnn/CY3Vtx57rbTu497str5a89hiECgDGMQAgA40Tr9vVqXPmkOnc26szLvry4ceWT74/0d3yhtXldWSYVl2maPGP4DhEI923wDJtDdk9Jzlu9cLvTX/ez0LT3PNK95tet/rrjFKhfJHfJdMYJAMY47hwAYBzasWWFps1dbFu37IFZiejAv2xrWHJupL9jdnSwS4YMiWD4thAI3+Wg2exy+qvlKpm22ld12D2einmPDG57fGf5vEvkrTqMMQKAcYQ7BgAYp3o6mrVl7bM65fzP2HY1vXb4lrXPfbi/a+fV7dsbhp4xpF3FWyEQvqPRkgybnL4qy102c523csGf/bVH3+Eum90f3v6sSma8l/0NAMYhztwAMAG0bW/Qv3/4SH3jF88e27lz04d3N639YF9ny9REdIBg+A8QCN/OIA23jyjLeysXtDiDdT8OTTnl+XhXQ3OgfpHcoamMEQCMY9whAMAEkU7Htem1v+joky9zNG18aVpbS8OX2lrWXdjT1jQ9Ee1nGumbIBC+NWdwklyB2lcD9Sc86fDX3BqsXxyJti1XsP5EBgcAJgDuDgBggtmxdaVy2bTat2/QlDnHnrh13fMf6O/a9ZmOHRuqUsmYLJN2FcMIhG82KH/TPuK7JTPOfCHZt6VFsslTOk3eygWMEwBMEARCAJjAtja8oDlHnOFoWP7I5NhgzzeaNrx0VrivbU50kHYVEoHwDaMhySZXsE6OQN2rgfpFDzv9Nb9tfvTarjmX3SN/zdEcUAAwAREIAWCCa9uxQRuXP6Y7v/NvuvmRNcc3rnziwkh/x+dbm9eVF3u7CgKhRrWPKM17qw7b5grW/yI49ZT7tvzxoo4pZ31XgfpFcgUncyABwARFIASAIrJz2ypNnX280bD8kfnRwe7PNW946X3hvvbZ0cGewgWhyIJhUQdCy5RsDjl9VXKXzVjnqZh7l6964eORnS/tKJlxlrwV8zlgAKAIEAgBoMj0de/Q1nXP68RzPmXbuW3VgqaGJR/vaW/+eMeOjbWpRKSQkookGBZnICxMDXX6qy136fTV3uqFD/mqF97uKZ87GNn5okLTzmBVWgAoIg6GAACKS0X19KGtq832nRsb1778wNcvvvoH97U2z7uiffvGq3rat01OxgZpVzHRjCwWU5rzVh2+0xmo/kFo2mlLEt2NTQ53iM8aAIoUZ38AKHKWZWnDisd0xAkXOrasf35K9+7NX9217bX39XZsnxmP9E3ooFBMFUJXsF4Of80rwcknPmn3lN329amnhH/cvkqBSYs4CACgiBEIAQCSpF1Nr6m3Y7si/R2aseCkE15f/df3D/a2fq6tpaEik4rJnIDtKiZ0INy7fUSr01f5g9D0M55JdG3YYeaS8tcdJ2/FXHZ8AChyBEIAwN9o2viSZh1+qn3dKw9OTUT7v76tYclZkb6OOdHBrgkVCidmIBx6RjBYJ1dg0nL/pGPvdwUn/7Ft2Y/ap5z2LflqjmQHBwCMIBACAN5Ux65GbVzxhM754Ne0q2n1cZtWPXVxuK/9+tbmdeXpVFzWBGhXMaECoWVJNrsc3vK8t2L+ZlfJ1LuCU076wwPnzuq64PePKTD5BDl91ezYAIC9EAgBAG9pV9NqTZ19nDasfHzhYE/rtS2bln1gsKd1ZizcK0njNhhOiEA40j6iUu6y2Rs9ZTNv99cd83Ss/bWW4OQT5Smfww4MAPi7CIQAgLdlsL9NW9Y+r8VnfdS+Y8uKOS2bln26e/eWKzt3vV6fjIdVmKo4vi4r4z8QGnIGauQKTVnprz36MU/FvFu9lQsi0V1LFZx6KiuHAgDeEm0nAABvS2l5vSSpedOMvD9YsbmrdetXF5/90T/v2LLysq7dmz/evXtLXTIepl3FgbZnsZict/qI3U5f5XdD089Ykuzd3OwK1CjZs1GhaacxTgCAt4UrNgDgXbEsS5tee0qHHX++4/U1T0/u69z+9R2vrzinv3vnrFi4d1yEwvFVISxUYAvtI6pfCU4+6Qm7p+QXj1xy6sClT6xWoO44dkoAwDtGIAQA7JPdzWvUsukVpeIRLTj+3BMaVz51Qbi/4/NtzevKM6n4mG5XMS4C4d4VwZ1OX9WPQ9NPfyq66+Vdht2lQP0iecpmsyMCAN4VAiEAYL9pef0VzZh/kn3tsvunJWODN2xbv+TsSP9wuwpDY+2yM6YDoWVJNpuc/lq5QpNX+muPutddOuO+7nX3tNYce7V81UewwwEA9hmBEACwX3W1btGm157SGRd/ydjdvOao1197+p8Geluva2teX5lOxmRZY6ddxdgMhJZk2OXwVpieijkbPWWzfheoX3y3p2xW70DTUwpNOVl2dwk7GgBgvyAQAgAOmN0tazVl5jFqfO2po/o6t39ix+YVlwx075oRj/TKsg59u4oxFQgtU4bNKbu33PRWzNviKpnys0D94mfjneuaA/WL5CmdyQ4FANjvCIQAgAMqGunRlrXP6rjTrrS3vP7KzJ1bVn22c2fjP3W1bpmSjA3qULarGEuB0BmokytYv9w/6bgn3KXTb/VVHxmJtb6i4JRT2IkAAAcMbScAAAdUMFQlSdq+eXreGyjdlknH//WEcz/5p5bGly/uaW++unPXpppUPCrLGruLzxwQexaLyXqrj2hzeCu+UzLjzCWpvq3NDk+pkr2NhEEAwAFHhRAAcFBZlqXNa5/R/GPOcWxc9UR9uLftmy2Ny84e6Nk9OxbuOaih8NBUCEe3j6h5JTj5hMfs3oo7X7vp5N4TvrlG/tpj2UkAAAcNgRAAcEi0tqzTptf+or6OFp3y/usWN6588v2R/o7Ptx7EdhUHNRAOPyPoKcl5qxdud/prfxaaduojvQ2/a/VWHabApEVyl05nxwAAHFQEQgDAIbd9ywpNn7vYtm7ZA7MS0YF/2daw5JyD0a7ioARCy5Jsdjn91XKVTF3tq1r4f56KOQ8NbHlsV/mCS+WrOpwdAABwyBAIAQBjQk9HkzaveVbvueA6Y1fTa0dsWfvclf1dO69p395QnUpEZVnWfl+V9MAGQksybHL4qkxP2az13op5f/bXHXOHu2x2f3j7syqZcZYMw84HDwA4pAiEAIAxp237en3p/Ufpu79/5tjO3Zs/vHvb6g/2de6Ymoj279dgeEAC4Uj7iLK8t3JBszM46abglJOfT3Q1NAcmLZK7ZCofMABgzCAQAgDGpFQqqtdfe1pHn3K5o6lx6bS25nVfbGtZf3FPW9O0RKxf++MSdiACoTM4Sa5A3auB+sVPOgK1twYnLYpEW5crOPlEPlQAwJhDIAQAjGk7tq6UZea1u2mtpsw+9oSt61+4sL9r52c6dmysSiWjsvZh8Zn9Egj/tn3Ed0tmnPlCsm9ri83ulitYJ2/lAj5IAMCYRCAEAIwbW9Y/r7lHnuloWP7o5Nhg1zeaNiw9K9zXNic62P2uQuG+BUJLkk2uYJ0cgdpXg/WLH3b4qn+77cGPds274n75a4/mAwMAjHkEQgDAuNK2o0Eblj+mJ/73P3XDbasWNa584gOR/o4vtDavKyu0qzDf9jOG7yoQWpYMm0N2T2neW3VYkytYf3tw6in3Nz/yqfbaE7+s4KRFcoUm80EBAMYFAiEAYNzauXWVps453lj/6sPzYuGe65s3vPS+cF/77OhgT+EC9xbB8B0FwuH2Eb4quUtnrPNUzrvLV3X44+EdL+4onfleeSvn84EAAMYdAiEAYFzr696hLWuf00nnXm3buW3Vgm0NL36st73lEx07NtamEpFCkPs7wfDtBcJC+winr9pyl05f461e+KCveuHtnvK5g5EdLyg0/cz93g4DAICDxcEQAADGs4rq6UNb15jtOzc2rnj2nm9c8bn/ub+tZf4VbS0NV/W2N09OxAbeebuKkcViSvPeqsO3OwM1/x2aeuqSRE9jk90dJAQCACYErmYAgAnFsixtWP6ojjjxIsfWhhemdO56/Su7t62+oLejZUY80rdXkPtHFUJXsF4Of80rwcknPGn3lt/2mSmnhO9sX6nApMUMMgBgwiAQAgAmpJ3bXtNg724N9LRq+vwTTty85pkLBntaP9fW0lCRTsVkmXlJtkIgrPUVFqPZ0z6i1eGr/EHJ9DOeTXQ3bjezCfnrjpG3Yh4DCwCYUAiEAIAJb9vGlzT78FMd6195aHI82veNpoYlZ4X7OuZEBrq0eEG5pteFZPfXyhWoW+6fdPwDruCk37e+9L2OqWfeKF/NUQwgAGDCIhACAIpCx65GbVjxuM794Ne1q2n1cZtWPXXxYG/b9fWBiH/23MObHcGpdwannPSHpz85q+vUHz+qYP0JcvprGDgAAAAAmEh2Na2WJK1f/ujhqx/+t6NTvY0zutf/Vqn+rQwOAKCoUCEEABSlgb5WbVnznOzhBi1YfJH8U05j5VAAAAAAAAAAAAAAAAAAAAAAAAAAAAAAAAAAAAAAAAAAAAAAAAAAAAAAAAAAAAAAAAAAAAAAAAAAAAAAAAAAAAAAAAAAAAAAAAAAAAAAAAAAAAAAAAAAAAAAAAAAAAAAAAAAAAAAAAAAAAAAAAAAAAAAAAAAAAAAAAAAAAAAAAAAAAAAAAAAAAAAAAAAAAAAAAAAAAAAAAAAAAAAAAAAAAAAAAAAAAAAAAAAAAAAAAAAAAAAAAAAAAAAAAAAAAAAAAAAAAAAAAAAAAAAAAAAAAAAAAAAAAAAAAAAAAAAAAAAAAAAAAAAAAAAAAAAAAAAAAAAAAAAAAAAAAAAAAAAAAAAAAAAAAAAAAAAAAAAAAAAAAAAAAAAAAAAAAAAAAAAAAAAAAAAAAAAAAAAAAAAAAAAAAAAAAAAAAAAAAAAAAAAAAAAAAAAAAAAAAAAAAAAAAAAAAAAAAAAAAAAAAAAAAAAwJv5/ypvlM/hbYb0AAAAJXRFWHRkYXRlOmNyZWF0ZQAyMDE1LTA5LTMwVDA4OjAyOjI2KzAwOjAwwypfQQAAACV0RVh0ZGF0ZTptb2RpZnkAMjAxNS0wOS0zMFQwODowMjoyNiswMDowMLJ35/0AAAAASUVORK5CYII=;" vertex="1" parent="1">
          <mxGeometry x="-174.5" y="21.5" width="150" height="150" as="geometry" />
        </mxCell>
        <mxCell id="wrIWGmj25VYRmt1726Kr-14" value="" style="shape=image;html=1;verticalLabelPosition=bottom;verticalAlign=top;imageAspect=1;aspect=fixed;image=data:image/png,iVBORw0KGgoAAAANSUhEUgAABkAAAAZACAMAAAAW0n6VAAAAA3NCSVQICAjb4U/gAAAACXBIWXMAArQNAAK0DQEdFIm+AAAAGXRFWHRTb2Z0d2FyZQB3d3cuaW5rc2NhcGUub3Jnm+48GgAAAv1QTFRF////AAAAAAAAAAAAAAAAAAAAAAAAAAAAAAAAAAAAAAAAAAAAAAAAAAAAAAAAAAAAAAAAAAAAAAAAAAAAAAAAAAAAAAAAAAAAAAAAAAAAAAAAAAAAAAAAAAAAAAAAAAAAAAAAAAAAAAAAAAAAAAAAAAAAAAAAAAAAAAAAAAAAAAAAAAAAAAAAAAAAAAAAAAAAAAAAAAAAAAAAAAAAAAAAAAAAAAAAAAAAAAAAAAAAAAAAAAAAAAAAAAAAAAAAAAAAAAAAAAAAAAAAAAAAAAAAAAAAAAAAAAAAAAAAAAAAAAAAAAAAAAAAAAAAAAAAAAAAAAAAAAAAAAAAAAAAAAAAAAAAAAAAAAAAAAAAAAAAAAAAAAAAAAAAAAAAAAAAAAAAAAAAAAAAAAAAAAAAAAAAAAAAAAAAAAAAAAAAAAAAAAAAAAAAAAAAAAAAAAAAAAAAAAAAAAAAAAAAAAAAAAAAAAAAAAAAAAAAAAAAAAAAAAAAAAAAAAAAAAAAAAAAAAAAAAAAAAAAAAAAAAAAAAAAAAAAAAAAAAAAAAAAAAAAAAAAAAAAAAAAAAAAAAAAAAAAAAAAAAAAAAAAAAAAAAAAAAAAAAAAAAAAAAAAAAAAAAAAAAAAAAAAAAAAAAAAAAAAAAAAAAAAAAAAAAAAAAAAAAAAAAAAAAAAAAAAAAAAAAAAAAAAAAAAAAAAAAAAAAAAAAAAAAAAAAAAAAAAAAAAAAAAAAAAAAAAAAAAAAAAAAAAAAAAAAAAAAAAAAAAAAAAAAAAAAAAAAAAAAAAAAAAAAAAAAAAAAAAAAAAAAAAAAAAAAAAAAAAAAAAAAAAAAAAAAAAAAAAAAAAAAAAAAAAAAAAAAAAAAAAAAAAAAAAAAAAAAAAAAAAAAAAAAAAAAAAAAAAAAAAAAAAAAAAAAAAAAAAAAAAAAAAAAAAAAAAAAAAAAAAAAAAAAAAAAAAAAAAAAAAAAAAAAAAAAAAAAAAAAAAAAAAAAAAAAAAAAAAAAAAAAAAAAAAAAAAAAAAMtkj8AAAAP50Uk5TAAECAwQFBgcICQoLDA0ODxAREhMUFRYXGBkaGxwdHh8gISIjJCUmJygpKissLS4vMDEyMzQ1Njc4OTo7PD0+P0BBQkNERUZHSElKS0xNTk9QUVJTVFVWV1hZWltcXV5fYGFiY2RlZmdoaWprbG1ub3BxcnN0dXZ3eHl6e3x9fn+AgYKDhIWGh4iJiouMjY6PkJGSk5SVlpeYmZqbnJ2en6ChoqOkpaanqKmqq6ytrq+wsrO0tba3uLm6u7y9vr/AwcLDxMXGx8jJysvMzc7P0NHS09TV1tfY2drb3N3e3+Dh4uPk5ebn6Onq6+zt7u/w8fLz9PX29/j5+vv8/f7kabKuAABNEklEQVR42u3dd7xeVZk24PecNJKQ0DLSiwUQ6UVAQGcsgIoIKiowjkoGFaUMKqKDBZGiyCCWmQEEVEBgUEHmAwQG6VVUeu8DEUgoAUMa55z9+0Z6OO1997vbWuu6/hey137u/UTuZJ1WCwAAAAAAAAAAAAAAAAAAAAAAAAAAAAAAAAAAAAAAAAAAAAAAAAAAAAAAAAAAAAAAAAAAAAAAAAAAAAAAAAAAAAAAAAAAAAAAAAAAAAAAAAAAAAAAAAAAAAAAAAAAAAAAAAAAAAAAAAAAAAAAAAAAAAAAAAAAAAAAAAAAAAAAAAAAAAAAAAAAAAAAAAAAAAAAAAAAAAAAAAAAAAAAAAAAAAAAAAAAAAAAAAAAAAAAAAAAAAAAAAAAAAAAAAAAAAAAAAAAAAAAAAAAAAAAAAAAAAAAAAAAAAAAAAAAAAAAAAAAAAAAAAAAAAAAAAAAAKAZJh/07clOAYAOjdn9kSx7ZPcxTgKATrz35ux5N7/XWQDQtvUvyF52wfrOA4C2rPiz/uxV+n+2ojMBYFSLf+fZ7DWe/c7izgWAEY357KPZEB79rDYdgBG8/9ZsGLe+3+kAMIwNLsxGcOEGTgiAIaz0i/5sRP2/WMkpAfAaUw6Zm41q7iFTnBQArzJ2j8eytjy2x1inBcBLPnBb1rbbPuC8AHjeRhdlHbloI2cGQGvlkwayDg2ctLJzA0jc1MPmZjnMPWyqswNI2NjPz8xymvl5bTpAsra/PevC7ds7QYAkbXRx1qWLtekA6cnRnWvTAZh62LysEPO06QAJGfuFmVlhZn5Bmw6QiO66c206QKK678616QAJWvnkgawEAydr0wFiVlh3rk0HSEmh3bk2HSAZRXfn2nSAJGx8cVaBizd20gBRKak716YDxK3E7lybDhCvkrtzbTpApD54e1a52z/o3AECV013rk0HiMwqVXXnQ7Xpqzh/gEBN/e68rEbzvqtNBwhR5d25Nh0gCh+8I2uAO7TpAGGpqzvXpgMErcbuXJsOEK6au3NtOkCYGtCda9MBAtSM7lybDhCYjS/JGusSbTpAUzWqO9emA4Sicd25Nh0gBGP3nJkFYOae2nSARmlqd65NB2i0Jnfn2nSAxlrllwNZUAZ+qU0HqF8A3bk2HaB5AunOtekADRNOd65NB2iQsLpzbTpAQwTXnWvTAZogyO5cmw5Qt2C7c206QK12uCOLyB07eKMAldjkkiwyl2zirQKULoLuXJsOUL2p35uXRWne97TpAOUZu+esLFqztOkAZYmrO9emA1Qkvu5cmw5QgSi7c206QNmi7c616QBliro716YDlCb27lybDlCKTS7NEnSpNh2gO4l059p0gGItkU53PlSbvoQJAMhl7F6zsqTN2kubDpDDDndmybtTmw7QqTS7c206QJdWPWXA7nixTT9lVfMA0Kaku3NtOkBeyXfn2nSAXHTn2nSAHHTn2nSAHHTn2nSAHHTn2nSAHHTn2nSAPHbUnbfXpu9oVgBe5a268/bb9LeaF4AX6c616QA5LHG47rzTNv1wbTqA7lybDpCH7lybDpCD7lybDpCD7lybDpDDEofPtwK6NV+bDiRnnO68qDZ9nGkCUqI716YD5KA716YD5KA716YD5KA716YD5DBub915WW363tp0IGK6c206QA5vvcxHvlyXadOBGK16qu68/Db9VG06EBvduTYdIAfduTYdIA/duTYdIAfduTYdIAfduTYdIAfduTYdIIdxez/uQ16fx7XpQKg+dJePeL3u+pApBAKkO9emA+SgO9emA+SwxPd1581p07+vTQdCoTvXpgPkoTvXpgPksKnuvJlt+qZmE2i01aLqzu+M6Q6vgVNXM59AY8XVnc/ae1xctwhr04Gmiqs7f/EmkLjuYtGmA40UVXf+qr89EdffaNGmA40TV3e+6N/fjuvv1GvTgUZZLfLfpUf2/65WM7FAQ8TVnQ/ZE0TW72jTgUYYt0+E3Xn0W3IfbTpQu1i788G06QAF2vTyeLvzweJq0y/XpgP1We201H5PHtf/3zptNTMM1CKB7nwwbTpAt5L9kia5NwGKs2PC9wxGdmPkjqYZqNAml6b9d7Pj+nv3l25iooGKrHKKP88aV5t+yiqmGqjA1O/N0wHE1gHN+95Ukw2UbOyeM/0ppBfE1abP3HOs6QbK9ME70u3OB4urTb/jg+YbKM3GF6fdnQ8WV5t+8cZmHCjFyifpzgeLq00/aWVzDhRuymFzY+rOi7uNNq42fe5hU8w6UKixn39Mdz6cuNr0xz6vTQcK9IHbdOcjiatNv+0DJh4oyIa/j6kpLucW87jutf/9hqYeKES/7rwNUbXp/aYeKITuvC1R/WxfUw9YIIt050uWe1BLxtOmm3rAAnmlO6/i5+9F8zMaTT1ggZTbnQ8WSZtu6gELpOzufLAo2nRTD1ggpXfng8XQppt6wAKpoDsfLPw23dQDFkgl3flgobfpph5IfoFU1Z0PFnabbuqBxBfIXR+u89xCbtNNPZD0Aqm4Ox8s4Dbd1AMJL5AauvPBgm3TTT2Q7AKpqTsfLNA23dQDqS6Q+rrzwYJs0009kOYCqbc7H+zDd1kggAWiO88jvDbd1APpLZD5RyzZxDNc8oj5FghggejO8wirTTf1QGILpEnd+WAhtemmHkhqgdz94aaf5IfvtkAAC0R3nkcwbbqpB5JZIA3tzgcLpE039UAiC6TB3flgQbTpph5IY4FcvllYB7rZ5RYIYIHoznNpfJtu6oH4F0gQ3flgTW/TTT0Q+wIJpjsfrNltuqkH4l4gQXXngzW5TTf1QOT/D+SyzUM+180v8/9AAAukNmesGeqprnmGDgSwQOr03DHLhXimyx3znBIdsEBqNufgKaGd6JSD5/hjvIAF0gAz9w7qj/KO23umv0gIWCANce/OPaGcZs/O97oLC7BAGuSP7wrjMN/9xyCO09QD6SyQLDtv/eYf5frnBXKYph5IaYFk/Set2uyDXPWk/swCASyQRt5scuTSzT3GpY+cH85JmnogsQWSZbO/NrGZhzjxa7NDOkdTDyS3QLLs4eljmneEY6Y/HNYpmnogwQWSZbdu37QT3P7W0M7Q1ANJLpCmXbLY5EsTLRDAAnmN5lyy2OxLEy0QwAJ5rYZcstj0SxMtEMACGWzOd2q/ZHHKd+YEenimHkh5gdR+yWIIlyZaIIAFMrQaL1kM49JECwSwQIZT1yWL7/pj0Mdm6gELpJ5LFoO5NNECASyQEVR+yWJAlyZaIIAFMqJKL1kM6tJECwSwQEZR2SWLgV2aaIEAFsioKrlkMbhLEy0QwAJpQ/mXLIZ3aaIFAlggbSn3ksUQL020QAALpE3lXbIY5qWJFghggbSrpEsWQ7000QIBLJD2lXDJYriXJloggAXSiYIvWQz50kQLBLBAOnNPcZcshn1pogUCWCCdKuqSxcAvTbRAAAukc0Vcshj8pYkWCGCB5ND1JYsRXJpogQAWSC5dXbIYxaWJFghggeSU+5LFSC5NtEAACyS3XJcsRnNpogUCWCBduKXjSxa3vyX2MzH1gAXSls4uWYzp0kQLBLBAutT+JYtxXZpogQAWSLfavGQxtksTLRDAAuleG5csxndpogUCWCBFGOWSxRgvTbRAAAukGCNcstiz8z0JHYSpByyQTg13yWKklyZaIIAFUpyhLlmM9tJECwSwQAo06JLFiC9NtEAAC6RQi1yyGPWliRYIYIEU7KmXLlmc+LWnUnx+Uw9YILk9f8li9JcmWiCABVKCW7aP/9JECwSwQLBAAAsECwSwQLBAAAsECwTAAsECASwQLBDAAsECASwQLBAAC8QCAbBAsEAACwQLBLBAsEAACwQLBMACsUAALBAsEMACwQIBLBAsEMACwQIBsEAsEAALBAsEsECwQAALBAsEsECwQAAsECwQwALBAgEsECwQwALBAgEsECwQAAsECwSwQLBAAAsECwSwQLBAAAukBOf7ZjfqqEw9EMwCab3nT1ZDO/70npYFAlggi3ywena5z3oYzX279LQsEMACee0Ha/y/zLIiRjLrX8ZX+T4AglkgrdbUQ561Jobz7CFTq34fAMEskFZr+WP7rIqh9B27fB3vAyCYBdJqvfm3tsVgv31zXe8DIJgF0mptcYWFsagrtqjzfQAEs0BarR1uszRecdsOdb8PgGAWSGvM7jMsjhfM2H1M/e8DIJgF0mpN/NfZlkeWzf7Xic14HwDBLJBWa5mjFqS+PhYctUxz3geQuk0vDGaBtFqr/XIg5fUx8MvVmvU+RnThptIFUVvrzDyfhho/WBsmfMni+Rs2732MOCVnriVhEK1Vf96XBbZAWslesvin9zTzfYz0q+r7+apSBlF63Y8W5P801PjB6tk1wUsW79u1p6nvY8Rf1YIfvU7SIDpTD/5rd5+GGj9YyV2y+OKliQEukCz768FTpQ2isth+j3f/aajxg5XUJYsvX5oY5ALJssf3W0ziIBpjP/twMZ+GGj9Yy/80kUsW+366fAjvY8Rf1cOfHSt1EIWene8q7tNQ4wcrjUsWX31pYrALJMvu2rlH8iB877u+2E9DjR+s+C9ZXPTSxIAXSJZd/z7Zg8BteVnxn4YaP1hxX7L42ksTg14gWXbZlvIHAVvv7HI+DfV9sCK+ZHHwpYmBL5AsO3s9GYRAvfGUgSy2BdJqTTrg6RjXx9MHTArzfYz4qxo45Y1yCAFa4eiFZX4aavxgRXjJ4tCXJoa/QLJs4dEryCIEZqnD55b9aajxgxXZJYvDXZoYwwLJsrmHLyWPEJDJB8yu4tNQ4wdrwwvi2R8XbBj++xjxVzX7gMkyCYEYv9ejVX0aavxgvefPcayPP78njvcx4q/q0b3GyyUEoPeT91f5aajvgxXFJYsjXpoYzwLJsvs/2Sub0HQ73FL1p6GuD1YElyyOcmliTAsky27ZQTqh0d55TR2fhroWSKs19dCAL1l89tCc99aGuUCy7Jp3Sig01iYX1PVpqGuBtForhHrJYt9Pc//51lAXSJZdsImUQiO9+Td1fhrqWiChXrLYzqWJ8S2QLPvNmyUVGmeVE/qyNBdIiJcstndpYowLJOs7YRVphUb5u6Pm1/9pqG2BhHbJ4m1d1slBL5Asm3/U30ksNMaUg55pxqehtgXSGvOZYC5ZnPGZMV0+bOALJMueOWiK1EIjLPalWc35NNS1QIK5ZLGTSxOjXSBZNutLfuwt1G/M7g8169NQ1wJptaY1/5LFBUdNK+BBI1ggWfbQ7mOkF2rV87E7m/dpqGuBtFqvP6XRlywOnPL6Qh4zigWSZXd+zI+9hRpt+6dmfhrqWiDNvmSx40sTI18gWfanbWUYavK2S5r7aahrgbRaWzf0ksU/b13YI0azQLLskrfJMdRg3f9u9qehrgXSzEsWc12amMACybL/XleWoWJvOLk/s0CGMX7fhl2yOGvfQm8zj2qBZP0nv0GeoULL/cfCED4NdS2Qhl2ymPvSxDQWSJYt/I/lZBoqsuR3nw3l01DXAmnQJYtdXJqYygL5vx373SXlGiow6WtPhfRpqGuBtFprndWE/XHWWsU/WXwLJMue+tok2YaSjfvCI6F9GupaIK3WllfWvT6u3LKM54pxgWTZI18YJ99Qot5P3Bvip6GuBdJq7Xh7nevj9h3Leao4F0iW3fsJP/YWSrP9TaF+GupaIHVestj9pYmpLZAsu2l7KYdS/P1VIX8aalogtV2yWMSliektkCy76u8lHQq30XmhfxpqWiCt1rQfVn7J4oIfTivxgWJeIFl23kbSDoVa4/SBzALJreJLFou6NDHNBZINnL6GxENhVjquL45PQ10LpNpLFgu7NDHRBZJlfcetJPVQzH+BOXJePJ+GuhZIdZcsFnhpYrILJMvmHTlN8qFrU771TFyfhroWSKtn1yqeY9cKfsZFAgsky575lh97C92ZsO/M+D4NNS0QzxHYlMzcd4IvAOQ2ZvqDcX4afHgtkHY8ON2PvYWcPnJ7vJ8GH14LpB23f8R3AHLY+rq4Pw0+vBZIO67b2rcAOrTZRfF/Gnx4LZB2XLSZ7wF0YO2z0vg0+PBaIO04a23fBGjTaif2ZxaIBWKBvKz/xNV8F6ANy/5kQUqfBh9eC6QdC36yrG8DjGKJQ+ek9mmwQCyQdsw5dAnfBxjBxP2fTPHTYIFYIO14cv+JvhEwjHF7zEj102CBWCDtmLGHH3sLQ+nZ9Z4ss0AsEAtkJPdUcdkYhGa7G7PMArFALJDR3LidrwUs4u1XZJkFYoFYIO244u2+GPCyDc7NMgvEArFA2nXuBr4a8LzVT6v0561aIJ4j+AWSDZy2ui8HtFY89rkss0AsEAukM88du6KvB4lb5oh5WWaBWCAWSOfmHbGMLwgJW/wbT2eZBWKBWCD5PP2NxX1FSNT4fR7LMgvEArFA8ntsn/G+JCRozKcfyDILxIfXAunOA5/2Y29JzoduyzILxIfXAunebR/yPSEp7742yywQH14LpBjXvts3hWRsemGWWSA+vBZIcS7c1HeFJKx1ZpZZID68FkixzlzLt4XorfrzvswC8eG1QArX9/NVfV+I2ut+tCDLLBAfXgukDAt+9DrfGKI19eC/ZpkF4sNrgZTlrwdP9Z0hSovt93iWWSA+vBZImR7fbzHfGqIz9rMPZ5kF4sNrgZTt4c+O9b0hKj0735VlFogPrwVShbt29mNvicj7rs8yC8SH1wKpyvXv89UhEltelmUWiA+vBVKly7b05SEC652dZRaID68FUrWz1/P1IXBvPGUgs0B8eC2QGgyc8kZfIAK2wtELs8wC8eG1QOqx8OgVfIUI1FKHz80yC8SH1wKpz9zDl/IlIkCTD5idZRaID68FUq/ZB0z2NSIw4/d6NMssEB9eC6R+j+7lx94Skt5P3p9lFkhHzlrTAmnPmmdZIB26/5O9vkqEYodbsswC6dRz/z7NAhndtH9/LrNAOnbLDr5LBOGd12SZBZLH019dzAIZ2WJffTr1Kcnrmnf6NtF4m1yQZRZIXg/+Y48FMryef3zQlOR3wSa+TzTam3+TZRZIN657hwUynHdcZ0q685s3+0bRWKuc0JdZIF236WtYIENZ4yxT0rW+E1bxnaKR/u6o+VlmgRTQpv9kmgXyWtN+8pwpKcL8o/7Ot4rGmXLQM1lmgRRjdklterALZLGvzjYlRXnmoCm+VzTKYl+alWUWSHEe2LXHAnlJz64PmJIizfqSH3tLc4zZ/aEss0CK9Yd3WCAveMcfTEnRHtp9jO8WjdDzsTuzzAIp3m/XsEBarTV+a0rKcOfH/NhbGmDbP2WZBVKKhT+elvoCmfbjhaakJH/a1teLmr3tkiyzQMpr0/efkPICmbD/bFNSokve5gtGjdb97yyzQMpt03fpSXWB9OzygCkp2X+v6ytGTd5wcn9mgZTfpr89zQXy9j+YkvL1n/wGXzJqsNx/LMwyC6QKZ66e3gJZ/UxTUlHT9h/L+ZpRsSW/+2yWWSCVtenLpLVAlvnxQlNSmWe/u6QvGhWa9LWnsswCqbJN/8qEdBbIhK/MNiWVeuprk3zVqMi4LzySZRZIxe4voE0PYoH07HK/KancI18Y58tGBXo/cW+WWSA1uHarFBbIVteaklrc+wk/9pbSbX9TllkggbbpzV8gtXfn6S6QLLtpe983SvX3V2WZBVJjm/6jZWJeIMv8aKEpqdNVf+8bR2k2Oi/LLJCa685u2vRmL5AJX3nKlNTtvI185yjFGqcPZBZIA9r0nXtiXCA9O99vShpg4PQ1fOso3ErH9WWZBRJ2m97gBdKU7jz5BZJlfcet5HtHoaYdOS/LLJDGOONNcS2QN51hShpk3pHTfPMozJRvPZNlFkiT5GvTG7pAmtSdWyDPe+ZbfuwtxZiw78wss0Ca5qn9JsSxQCbs95QpaZ6Z+07w7aNrY6Y/mGUWSBPd9/EYFsjH7zMlzfTgdD/2li595PYss0Ca+iTXbBn6AtnyGlPSXLd/xBeQLmx9XZZZIE3+NHTWpjftdBvYnVsgi7hua19Bctrsohgjked3VQ1+nIU/XDrUBbL0D5v8E2X8v/UXXLSZLyE5rH1WjHHI9991G/1IT315QogLZMKXm/0jAfSFLzlrbV9DOrTaif0RRiHvnyxp+GO13aY36MPb1O68mwUS4Z9YfF7/iav5ItKBZX+yIMIcPHNg3j/b3vhHa7NNb8yHt7ndeXcLpNWacuAzEUZnwU+W9VWkTUscOifCDHTzt2sDeLzfvCmcBfKm3wRwoLmHJapbG14259AlfBlpw8T9n4xw/vuO7+Z+nxCecOFRS4exQJY+amEW8wJptVY6vi/CCD25/0RfR0Yxbo8ZEc7+wK/W7OpUAkn4l8c3f4GM/3Igvz/pamDW/NVAhDGasYcfe8tIena9J8K5z87fuMtzCeVB7/tY0xfIx+4L5Sy7HJmNz48xSffs2uMryXC2uzHGob/6H7o+mIAedosmL5Atrg7nJLsemn+4OsY03bid7yRDevsVMQ78zR8s4GhCeuBfv7GpC+SNvw7pHAsYmw/eHGOirni7byWDbHBujMN+3z/1thJbINmC4dv0Oj+8Sx8V1h8NL2Juev/pvhhTde4GvpcsYvXTYiz9Ht1zfDHHE9hzP/ml8U1bIOO/FNqf7Stmcsbv+WiEwRo4bXXfTF624rHPRTjlTx0wuagDCu7Z7/1osxbIR+8N7giLmp3JBzwVYbieO3ZF302et8wRMf7Fp7nfW6q4Iwrw+a/aojkLZIurAjzA4qZnqe/NjTBg845YxreT1uLfeDrC6V549PJFHlKQZzBEm17Lhzes7ryEBdJqLX/0wghD9vQ3Fvf9TNz4fR6L8T/RnvLGYo8pzGNY8IOl6l8gS/0g0GvVip2gN54SY8n42D7jfUMTNubTD0Q41dnZ6xd9UKGexJNfHF/vAhn/xWDvxSl6htY/O8asPfBpP/Y2WR+6LcaRvmzL4k8q3NNYtE2v+sMbYHde2gJptba8LMa83fYhX9IkvfvaGMf5+veXcVYhn8hVb6trgbztqpDPrYw5ev/1MWbu2nf7miYoxlG+e+ceZzXIr95QxwJ5w6/CPrVSBqln57tjzJ2vqQUSgRmfG+ushrLgyKWqXiBLHbnAR3EoYz83wwLBAmmcJ74y0VkNezgvtOlVfUzGf/EJH8XhTPzKExYIFkijzDlkCWc1knt2qm6B7HSPj+JIljhkjgWCBdKc/0bz42Wd1Wiu3LyaBbL5lT6Ko1n2xwssECyQRug/cTVn1Y7To/mXhP9RXO3EfgsEC6R+v13bWRHeR3Ht3zorLJCaXbSZsyLMj+JmFzkrLJAaXbd1JWfV53uamr5KBmvr6ywQLJCa3L5TRWf1lnN8UdNyzlsqGq2dbrdAsEBq8L/TK7zH7d3X+6im4/oKL+cYM/1/LRAskIrN+uKESo+r91MP+bCm4aFP9VY6WhO+OMsCwQKp0DMHTqn8wCZ+/Rkf1/g98/WJlY/WlAOfsUCwQCoy/wfTajmyZY/Rpkeu75hlaxmtaT+Yb4FggVSR8eNXru3Q3nK2b2zMzn5LbaO18vF9FggWSMkGfr1mrcf2rj/7zMbqz++qdbTW/PWABYIFUqbzN6773LTpkaq6Ox/CxudbIFggpbn6H5pwctr0CNXRnQ/hH662QLBASnHLDk05u9cdrU2PSt/Rr2vKbO1wiwWCBVK4+/6pt0Gnt9b/89WNx/9bq0Gj1ftP91kgWCCFenSv8Q07P2267rwk4/d61ALBAinM7AMmN+8Aez6pTY+hO/9kT/Nma/IBsy0QLJBCzD18qWYe4cQDtOmhd+cHTGzmbC11+FwLBAuka88dvUJzD1GbrjsvywpHP2eBYIF0ZeDUNzX7GLXpuvOyvOnUAQsECyS/s9dv/kFq03XnZVn/bAsECySny7cK4iS16brz0mx1uQWCBZLDDe8P5iz93fTQuvOvTwxmuN5/gwWCBdKhu3fpCek0tem689L+H+4ud1sgWCAdmPG5saGd51pueg/E2WuFNltjPzfDAsECadMT+08M8US16brz0v4j6f5PWCBYIG2Yc8gSgR6pm96b351/qjfQ4VrikDkWCBbIKBb8ZNmAD1WbrjsvzbI/WWCBYIGMoP/E1QI/Vj83vbnd+THLBj5cq53Yb4FggQznrLUjOFg/N72h3flbIhiutc+yQLBAhnTR5pEc7buv97lumuvfHclwbX6RBYIFMsgft47nbLXpuvPybP1HCwQLZBF37NQT1elO/MZffbab4q/fmBjVcPXsdIcFggXysv+dPia689Wm685LM2b6/1ogWCDPm/XFCVGe8FvO8fWu3zlviXK4JnxxlgWCBZI9c+CUaM9Ym647L82Ubz9jgZD4Apn/g2kxH3Lvpx/2Ea/Pw5/ujXm6pv1gvgVCwguk74SVYz/mSdr0+rrzSbFP18on9FkgJLpABn69ZgoHveyx2vQ6fnNy7LIpTNeavx6wQEhxgVywcSpHvbY2vfrufO1UpmvjCywQklsgV78zpcN+zw0+6VW64T0pTdc7r7ZASGqB3LJDYqetTdedl2iHWywQklkg93+yN73znvRNbXo13fk3J6U3Xb2fvN8CIYkF8uhe49M8cW267rw84/d61AIh+gUy++uT0z3ztc/1hS/XuWunO12Tvz7bAiHqBTL38KXTPnVtuu68PEsfPtcCIdoF8twxKyR/7L27adPL6s53601+vFY45jkLhCgXyMCpb3LqLW267rxUbzp1wAIhvgVyzvrO/EXL/VSbXnR3/tPlzNWL1j/HAiGyBXL5Vk78VbTpuvMSbXW5BUJEC+SG7Zz3a2ytTS9uvLY2T6+x3Q0WCJEskLt36XHcg/TuNsOnvwgzdOdD6NnlbguECBbIjD3GOuwhTfqWNr377vxbuvOhjd1jhgVC4Avkyf0nOuphadN15yWauP+TFggBL5A5hy7hoEe0zu9sgfx+t44JGtESh86xQAh2gSzrmEe19Y0WQT436s5Ht6wFQrALxCm3oXe6Nj1PtzZddy7nGCwmfWuOhdDhfxzVncs5BovnLXecNr2T7vw43bmcY7B4iTZddy7nGCyDldM22vT2uvNtzIqcY7BYlDZddy7nGCyDldPkA7XpI3fnB042JXKOwWJIyx/Xb00Mp/+45U2InGOwGNa659kUQztvXdMh5xgsRrTNTZbFYDfpzuUcg8Woev/5LxbGov7yz7pzOcdg0Q5tuu5czjFY5LT88dr0l7rz43Xnco7BohPadN25nGOwyGlbbXp207bmQM4xWHQu+TZddy7nGCzymvzthNv0Od/Wncs5Bov8km3TdedyjsGiW+uen+L+OF93LucYLLq37c2prY+bdedyjsGiEL27J9Wm/2V33bmcY7AoSkJtuu5czjFYBqtYK5yQRJvef8IK3rWcY7AMVsHWS6BNP38971nOMVgGqwTvjbxNv/m93rGcY7AMVjnG7P5IvOvjkd3HeMNyjsEyWKWZfNCzca6PZw/Sncs5BstglSvKNl13LucYLINVhfUuiG1/XKA7l3MMlsGqRlxtuu5czjFYBqs6Yz4TTZv+yGd053KOwTJYVVo8jjb92YMW9y7lHINlsCq2ws+Cb9P7f6Y7l3MMlsGqw/qBt+kXrO8dyjkGy2DV5H23hLs+bnmf9yfnGCyDVZ9g23TduZxjsAxW3Rb/ToBt+rPf0Z3LOQbLYNVvxdDa9P6freityTkGy2A1wvr/E9L++B/duZxjsAxWc4TTpuvO5RyDZbCaZcxnHw1hfTz6Wd25nGOwDFbTBNCm687lHINlsJppxZ83uk3v/7nuXM4xWAarqTa4sLn748INvB85x2AZrAZ7/63NXB+3vt+7kXMMlsFqtka26bpzOcdgGawQLH5ww9r0Zw/Wncs5BstghaFRbbruXM4xWAYrJM1p03Xnco7BMliBaUabrjuXcwyWwQrPmM/V3qY/+jnduZxjsAxWiBY/eG6d62Ou7lzOMVgGK1gr/aK2Nr3/Fys5fznHYBmsgG3w+3r2x+9153KOwTJYoduuhjb91u2cu5xjsAxW+Cpv03Xnco7BMlixmHJIhW363EOmOHE5x2AZrGisdOJANetj4ETduZxjsAxWXDaspE3//YZOWs4xWAYrOtvdVvYbv013LucYLIMVpTF7PFbm+35sD925nGOwDFasSmzTdedyjsEyWHErqU3Xncs5BstgxW/Di4p/1RfpzuUcg2WwUvCBgtv02z7gTOUcg2Ww0jC2yDb9sT3GOlE5x2AZrGRMObSgNn3uobpzOcdgGay0rHxSAW36wEkrO0k5x2AZrORs1HWbftFGTlHOnbLBMlhJ+sDt3bzf23Xnci7nBstgJWvs53O36Y99Xncu53JusAxWyqYclqtNn3uY7lzO5dxgGazU5WjTdedyLucGy2DxNxtd3NmLvVh3LudybrAMFi/YvoM2/fbtnZecy7nBMli8ZOwXZrb3Umd+QXcu53JusAwWrzb1sHmjv9J5h011UnIu5wbLYPEaK588Sps+cLLuXM7lHIPFUDYesU2/eGMnJOdyjsFiGB+8Y7i3eccHnY6cyzkGi+GN3XPINn3mnrpzOZdzDBYjm/rdQW36vO/qzuVczjFYjG6VXy7Spg/8chVnIudyjsGiLZtc8sprvGQT5yHnco7Bom073PnCS7xzB2ch53KOwaITY/ealWWz9tKdy7mcY7Do1BLf+94STkHO5RyDBXIu5xgsQM4xWICcY7AMFsg5BstggZzLOQYL5FzOMViAnGOwADnHYBkskHMMlsECOZdzDBbIuZxjsAA5x2ABco7BMlgg507ZYBkskHM5x2ABco7BAuQcgwXIOQbLYIGcy7nBMlgg53KOwQLkHIMFyDkGC5BzDJbBAjmXc4NlsEDO5RyDBcg5BguQcwyWUwY5x2AZLJBzOcdggZzLOQYLkHMMFiDnGCyDBXKOwTJYIOdyjsECOZdzDBYg5xgsQM4xWAYL5ByDZbBAzuUcgwVyLucYLEDOMViAnGOwDBbIOQbLYIGcyzkGC+RczjFYgJxjsAA5x2AZLJBzDJbBAjmXcwwWIOcYLEDOMVgjG3v88WO9GSguHxYIqSyQ/edm2dz9vRooLB8WCGkskB1mvvA/mrmDlwMF5cMCIYUFss5tr/zPblvH64FC8mGBEP8CWfrCgVf/7wYuXNoLggLyYYEQ+wIZe1zfa/+Xfcdp06H7fFggRL5A9ps71P927n7eEXSbDwuEqBfI9o8N979+bHtvidR1mw8LhIgXyDq3jvS/v1WbTtK6z4cFQrQLZOn/GRj5HzDwP9p0klVEPiwQIl0gvcf2jf6P6Du217siRcXkwwIhzgXy5bnt/UPmftnLIj0F5cMCIcYFst2j7f9jHt3O6yItheXDAiG+BfKWWzv7B936Fi+MdBSYDwuE2BbI0hcMdPpPGrhAm04iCs2HBUJcC6StblCbTqIKzocFQlQL5Itz8/7T5n7RWyN2RefDAiGiBdJJN6hNJzXF58MCIZoF0mk3qE0nJWXkwwIhkgWSoxvUppOMcvJhgRDFAsnZDWrTSUJZ+bBAiGGBfHlucf9Yfzed2JSWDwuE8BdId92gNp24lZgPC4TQF0j33aA2nXiVmg8LhLAXyKh3UudsC930TgxKzocFQsgLpLBuUJtOhErPhwVCwAukyG5Qm05sys+HBUKwC2S7x8r+NzymTSdYVeTDAiHYBVIFbTphKqM7r4d3aYGES5tOgErqzi0QLBBtOnErsTu3QLBAtOlErNzu3ALBAtGmE6nyu3MLBAtEm06E4unOLRALJCbadBovpu7cArFA4tJ33FgvluYae1xfjLnzYi0QbTqULLLu3AKxQOLz2PbeLU20/WOxZs67tUBiatPX8XZpmnVujTdx3q4Fok2H0kTZnVsgFkiktOk0SKTduQVigURLm05TxNqdWyAWSMS06TRBvN25BWKBRE2bTt1i7s4tEAskbtp0ahV3d26BWCCx06ZTm9i7cwvEAonf3P28a+qw39xUMuZdWyDadChQAt25BWKBpEGbTrWS6M4tEAskEQMXatOpzNIXDmQWCBaINh06lEx3boFYIAnRplOFdLpzC8QCScpMbTol235mgsHy2i0QbTp0K63u3AKxQFKjTac0qXXnFogFkh5tOqVIrzu3QCyQFGnTKV6C3bkFYoGkSZtOsZLszi0QCyRV2nSKk2h3boFYIMkauHCaGaAI01Ltzi0QCyRhfcdr0+na2OP7ko+SKbBAtOnQuZS7cwvEAkmcNp1upN2dWyAWSPJu06aT0zq3yY8FYoFo06FjunMLxAJBm04OunMLxAJBm04eunMLxALhlTZ9BxNBu3bQnVsgFgjadDqnO7dAsEC06eSgO7dAsEC06eSgO7dAsECGbdP3NxgMb3/duQWCBaJNp3O6cwsEC0SbTg66cwsEC6SNNv332nReY9rvdecWCBaINp2O6c4tECwQbTp56M4tECwQbTo56M4tECwQbTo56M4tECwQbTo56M4tECwQbTo56M4tECwQbTp56M4tECwQbTo56M4tEIa1nrFvv01fz7wklw/defvkIzW6QW068iEf5DD2BN1gp236Cdp0+UA+0A1q05EP+SAP3aA2HfmQD3JY73aDnt/t2kL5QD5SpRvUFiIf8kEOukFtIfIhH+ShG9QWIh/yQQ66QW0h8iEf5KAb1BYiH/JBDrpBbSHyIR/koBvUFiIf8kEeX9UNltUWftV0yQfyoRtEWygfyAe6QW0h8iEfdNsNXqQbLL8tvEhbKB/Ih24QbaF8IB+0Wl+dZ3SrMk9bKB/IRzx2nGVsqzRrRzMnH8iHbhBtoXwgH7pBtIXIh3ygG9QWIh/ygW5QW4h8yAe6QbSF8oF86AbRFsoH8pFqN2g4m0FbKB/IR1jd4M90g81pC3+mLZQP5EM3iLZQPpAP3SDaQvlAPli0G7zDODbRHdpC+UA+dIPVGYjqLwlrC+VDPuRDN1iVm9/85pu1hciHfKAb7NAj7/3bM733EW0h8iEf6AY78Oy+Lz3Xvs9qC5EP+UA32Kbnju595dF6j35OW4h8yAe6wXa6wfOWXPTxljxPW4h8yAe6wVHd9ObBj/jmm7SFyId8ULh/jbAbHCyytvBfza18yId86AaL7Qb3Gf5J99EWIh/yQXE2iKsb/M/ekR629z/jags3ML/yIR/yUZvXXRx1NzhYZG3hxa8zw/IhH/KhGyynG9QWIh/ygW4wZzeoLUQ+5IOCfTiqbnDOPp08+z5zomoLP2ya5UM+5EM3WE43qC1EPuQD3eCQ3eC5S3Z+BEueqy1EPuSDjrvBX/RH1Q2uke8Y1oiqLez/hbZQPuRDPkp3QKLdYPRt4QFmWz7kQz50gyV1g9pC5EM+yN8N3pl0Nxh9W3intlA+5EM+SuoGL0m+G4y+LbxEWygf8iEfusGSukFtIfIhH6TdDW5T5Nlsoy2UD/mQD4az0+NRdYN7F30+e0fVFj6+k4mXD/mQj4JsGFc3+O+9xR9R77/H1RZuaOrlQz7koxC6wfTaQlMvH/IhHwKyqBvXKO+Y1rhRQORDPuSDSANSbDcYdVto6uVDPuRDQMrsBiNuC029fMiHfAhIqd1gvG2hqZcP+ZAPAXmxGzxnyapOa8lzBgREPuRDPoglIGV2g3G2haZePuRDPgTk//xlm6pPbJu/CIh8yId8EHxAqugG42sLTb18yId8JB+QirrB6NpCUy8f8iEfiQdk4Jyp9R3b1JDbQlMvH/IhH2kHpNpuMKq20NTLh3zIR8oBqb4bjKgtNPXyIR/ykW5A5uzZjMPbc46AyId8yIeAhNQN/qS3KafX+5PnBEQ+5EM+BEQ3mEpbaOrlQz7kI8mA3LBG005wjRsERD7kQz4ERDeYRFto6uVDPuQjuYA0pRsMvS009fIhH/KRWEAa1A0G3haaevmQD/lIKiAN6waDbgtNvXzIh3ykFJAbVm/+Ua5+g4DIh3zIh4A0zIytwzjMrWcIiHzIh3wIiG4wlyDaQlMvH/IhH2kEpNHd4GAhtIWmXj7kQz5SCMjA2VNDO9GpZw8IiHzIh3wIiG4wj6a3haZePuRDPqIPSCjd4GDNbgtNvXzIh3xEHpCQusHBmtwWmnr5kA/5iDsgA8etEPK5rnDcgIDIh3zIh4DU5NlDp4Z6qlMPfdb/RZcP+ZAPAanR4/uOD/FMx+/7uJJQPuRDPgSkZvf/Y09oJ9rzj/f7Y4ryIR/yISAN8OfA/qjJ1n9u/JGaevmQD/lIIyBZdsGG4RznhhcEcKCmXj7kQz5SCUg2cMrrwzjM158SxJXVpl4+5EM+kglIli344bTmH+W0Hy4I4zRNvXzIh3wkFJAse/qASc0+yEkHPB3KWZp6+ZAP+UgqIFk24zNjmnuMYz4zI5yTNPXyIR/ykVhAsuz2HZt6ijveHtI5mnr5kA/5SC4gWXbllk08wy2vDOsUTb18yId8JBiQLDtrraad4FpnhXaGpl4+5EM+kgxI1vfTRl0it8JP+zIBkQ/5kA8BCUODLpFr9qVwAiIf8iEfAvJaDblErumXwgmIfMiHfAjIYPftWvslcj273hfo4Zl6+ZAP+Ug5IPVfIhfApXACIh/yIR8CMrQ6L5EL4lI4AZEP+ZAPARlGbZfIBXIpnIDIh3zIh4AMq5ZL5IK5FE5A5EM+5ENARlD5JXIBXQonIPIhH/IhICOq9BK5oC6FExD5kA/5EJBRVHeJXFiXwgmIfMiHfAjIqKq5RC60S+EERD7kQz4EpA3lXyIX3qVwAiIf8iEfAtKOki+RC/FSOAGRD/mQDwFpT4mXyIV5KZyAyId8yIeAtGtWOZfIjd93VlTHZOrlQz7kQ0AGK+ESuXAvhRMQ+ZAP+RCQThR9iVzAl8IJiHzIh3wISGeKvEQu6EvhBEQ+5EM+BKRDhV0iF/ilcAIiH/IhHwLSsUIukQv+UjgBkQ/5kA8ByaHrS+QiuBROQORDPuRDQHLp6hK5KC6FExD5kA/5EJCc8l8iF8elcAIiH/IhHwKSW75L5GK5FE5A5EM+5ENAutD5JXLxXAonIPIhH/IhIN3o8BK5mC6FExD5kA/5EJDudHCJXFyXwgmIfMiHfAhIt9q8RC62S+EERD7kQz4EpHttXCIX36VwAiIf8iEfAlKE0S6Ri/BSOAGRD/mQDwEpxkiXyEV5KZyAyId8yIeAFGTYS+QivRROQORDPuRDQAoz5CVy0V4KJyDyIR/yISAFGnSJXMSXwgmIfMiHfAhIoRa5RC7qS+EERD7kQz4EpGC3vXyJ3I63pfj8pl4+5EM+BCS3K56/RG7LK9J8elMvH/IhHwLShbPWiv9SOAGRD/mQDwEpQ19fJiDIh3zIh4AgIPKBfAgIAiIfyIeAICDygXwICAIiH8gHAiIgyAfyISAIiHwgHwKCgMgH8iEgCIh8IB8CgoDIB/KBgCAg8oF8CAgCIh/Ih4AgIPKBfAgIAiIfyIeAICCYFvlAQBAQ+UA+BAQBkQ/kQ0AQEPlAPgQEAZEP5ENAEBDkQz4QEAREPpAPAUFA5AP5EBAERD6QDwFBQOQD+RAQBAT5kA8EBAGRD+RDQBAQ+UA+BAQBkQ/kQ0AQEPlAPgQEAUE+kA8BQUDkA/kQEAREPpCPtANyj5ls1FGZevmQD/kIJiDj9nrM6Lfjsb3GCYh8IB8CssgLmXLQHOM/mjkHTanqfSAf8iEfwQSk1Vru6OdEYCTPHb1cle8D+ZAP+QgmIK3WGr+RguH9Zo2q3wfyIR/yEUxAWq3NLhWEoV26WR3vA/mQD/kIJiCt1gduEYbBbvlAXe8D+ZAP+QgmIK3e3R4SiEU9tFtvS0DkQz7kQ0BGfyGLffUpoXjFU19drN73gXzIh3wEE5BWa+l/my8YL5j/b0vX/z6QD/mQj2AC0mqtcmK/cGRZ/4mrNON9IB/yIR/BBKTVWu938vG79ZrzPpAP+ZCPYALSar3zurTjcd07m/U+kA/5kI9gAtLq+XjCl8jd8/GeloDIh3zIh4DkfSHj9pqZZjxm7jWuie8D+ZAP+QgmIK3WlO8keIncnO9Maer7QD7kw9QHE5AEL5F78VI4AZEP+ZAPAen6haR1idxLl8IJiHzIh3wISAEvZPNkLpG7dPMQ3gfyIR8EE5BULpF79aVwAiIf8iEfAlLMC+mdHv0lcg9N720JiHzIh3wISPEvZGLcl8g99dWJYb0P5EM+COiFRHyJ3OBL4QREPuRDPgSkyBey6klRXiLXf9KqYb4P5EM+COiFrB/hJXK/Wz/c9yEf8iEfBPRC3hXZJXLXvSvs9yEf8iEfhPNCorpEbthL4QREPuRDPgSkhBcSzSVyI1wKJyDyIR/yISClvJAoLpEb8VI4AZEP+ZAPASnphQR/idwol8IJiHzIh3wISGkvZI0zQs7HGWvE9j7kQz7kg4BeyOaXhRqPyzaP8X3Ih3zIBwG9kO2DvETulu1jfR/yIR/yQTgvZEx4l8g9NH1MS0DkQz7kQ0DqfyGBXSLX7qVwAiIf8iEfAlL+C1n6yGAukZt/5NLxvw/5kA/5IKAXEsglcp1cCicg8iEf8iEg1byQEC6R6+hSOAGRD/mQDwGp6oW864/Njscf35XW+5AP+ZAPwnkhjb5EruNL4QREPuRDPgSkwhcybu+GXiI3c+9xKb4P+ZAP+RCQgF5IIy+Ry3UpnIDIh3zIh4BU/EKWO6Zhl8g9d8xyKb8P+ZAP+RCQgF7Imo26RO6MNVN/H/IhH/IhIAG9kOZcIpf/UjgBkQ/5kA8BqeWFNOMSuW4uhRMQ+ZAP+RCQel7ImOkP1x2Ph7u6FE5A5EM+5ENA6nohE782u854zP7aRO9DPuRDPgQk0BdS4yVy3V8KJyDyIR/yISB1vpCaLpEr4lI4AZEP+ZAPAan3hax/XvX5OG9970M+5EM+iOCFVH2JXEGXwgmIfMiHfAhI7S+kZ+d7q4vHvTv3eB/yIR/yQTQvpLJL5Aq8FE5A5EM+5ENAGvFCpnyniuco8lI4AZEP+ZAPAWnIC/EcAuJ9eA75EBDPISDy4TnkQ0AMloDIh7nyHAJisDyHfJgrz4HB8hyYK88hH16I5xAQ78NzyIeAeA4BkQ/PIR8CYrAERD7MlecQEIPlOeTDXHkODJbnEBBz5TnkwwvxHALifXgO+RAQzyEg8uE55ENADJbnkA9z5TkExGB5DvkwV54Dg+U5BMRceQ758EI8h4DIh+eQDwHxHAIiH55DPgTEYHkO+TBXnkNADJbnwFx5DgyW5xAQ78NzyIcX4jkERD48h3wIiOcQEPkwV/IhIAbLc8iHufIcAmKwPAfmynNgsDyHgHgfnkM+vBDPISDy4TnkQ0A8h4DIh7mSDwExWJ5DPsyV5xAQg+U5MFeeQz4MlucQEO/Dc8iHF+I5BEQ+PId8CIjnEBD5MFeeQ0AMlueQD3PlOTBYngNz5Tnkw2B5DgHxPjyHfAiI5xAQ+fAc8iEgBktA5MNceQ4BMVieQz7MlefAYHkOzJXnkI/Gv5CrVzZY7Vn5agGRD/mQDwF5tf5fLSYgo1vsV/2ZgMiHfMiHgCxqwXcFZDTfXVDRyzD18iEf8hFSQLJs9qcEZCSfml3ZqzD18iEf8hFWQLLs/i0EZDhb3F/hizD18iEf8hFaQLLsmpUFZCgrX1PpazD18iEf8hFeQLL+X00SkNeaVFE3KCDyIR/yEXJAymsLwx2syrpBAZEP+ZCPsANSVlsY6mBV2A0KiHzIh3yEHpBy2sIwB6vSblBA5EM+5CP8gJTRFoY4WBV3gwIiH/IhHzEEJOv/9aTUAzLp1/2ZgMiHfMiHgNTeFgY3WNV3gwIiH/IhH5EEpOC2MLDBqqMbFBD5kA/5iCYgWfbAFmkGZIsHaj12Uy8f8iEf4QekwLYwoMGqqxsUEPmQD/mIKiDZQEFtYTCDNenXA5mAyId8DJePfvkQkA4s/F5KAfnewvpP3NTLh3zIRyQBKaYtDGOwau0GBUQ+5EM+4gtIlj2wVQoB2eqBZpy2qZcP+ZCPiAKSZdeuHHtAVr62KWdt6uVDPuQjqoB02xY2fbAa0J0LiHzIh3xEGpAu28KGD1YTukEBkQ/5kI9oA5Jls3eLMyC7zW7UMZt6+ZAP+YgvIF20hQ0erKZ0gwIiH/IhH1EHJHdb2NjBak43KCDyIR/yEXlAsoEzJsUTkElnDGQCIh/yIR8C0uS2sJmD1ahuUEDkQz7kI/6AZNnTu8UQkN2ebubpmnr5kA/5iDggWfbgVqEHZKsHm3q2pl4+5EM+og5Ill27asgBWfXa5p6sqZcP+ZCPyAPSWVvYrMFqZDcoIPIhH/KRTECybOH3wwzI9xc2+lhNvXzIh3zEH5AO2sIGDVZTu0EBkQ/5kI+kAtJ2W9iYwWpuNygg8iEf8pFYQLLsD6uGE5BV/xDAgZp6+ZAP+UglIG21hY0YrGZ3gwIiH/IhH+kFpJ22sAmD1fBuUEDkQz7kI8WAZNnT05sekOlPh3KWpl4+5EM+kgrIaG1h3YMVQDcoIPIhH/KRakBGbgvrHawgukEBkQ/5kI90A5INnDmpiQGZdOZAJiDyIR/yISCBtoU1DlYo3aCAyId8yEfSARm2LaxtsMLpBgVEPuRDPhIPSJY9+I7mBOQdDwZ4gKZePuRDPlINyJBtYS2DFVY3KCDyIR/yISBDtYU1DFZo3aCAyId8yIeAPN8WHlF3QI5YGOrZmXr5kA/5SDogr20Lqx6sALtBAZEP+ZAPAXnJq9vCagcryG5QQORDPuRDQF5x3ap1BGTV68I+NVMvH/IhHwLyqrawusEKthsUEPmQD/kQkEW82BZWNljhdoMCIh/yIR8C8hrPt4UVDVbI3aCAyId8yIeADPLgO6oJSNjdoIDIh3zIh4AM4bpo/iUCIh/yIR8CgoDIB/IhIAiIfCAfCAimXj6Qj0IctsDApGXBYaZePpCPYix2er+hSUf/6YuZeflAPgqz4tXmJhVXr2je5QP5KNTm9xmdFNy3uVmXD+SjcJ94yvjE7qlPmHP5QD5KcYi2MGoLDjHj8oF8lNYW/pe2MFr9/6UblA/kQ1tI53SD8oF8lG4zbWGE7tvMZMsH8qEtpGO6QflAPipzsLYwIgsONtHygXxoC+mYblA+kI/K28KrzFYMrtINygfyUUNbeK/xCt29ukH5QD7qseuTRixkT+5qhuUD+dAWohuUD+QjtLbwNG1hmN3gabpB+UA+6ra8tjDEbnB5kysfyIe2EN2gfCAf2kJ0g/KBfGgL0Q0iH/KBtlA3iHzIB6W2hVeav6a7UjcoH8iHthDdoHwgH9pCdIPygXzQah003yg20fyDzKZ8IB/aQnSD8oF8aAvRDcoH8oG2UDeIfMgH2kLdIPIhH2gLdYPIB/KhLUQ3KB/Ih7YQ3aB8yId8MJK33mNM63LPW82ffCAfQdtFW1hPN7iL2ZMP5ENbiG5QPpCPVNvCU7WF1XaDp+oG5QP50BaiG5QP5ENbiG4Q+ZAPtIW6QeRDPtAW6gaRD/mg8cZrC8vtBsebMflAPrSF6AblA/lAW6gbRD7kA22hbhD5kA+0hbpB5EM+0BbqBpEP5CMZy19hsotxhW5QPpCP1GgLdYPIh3yQk7ZQN4h8yAc5fVtb2E03+G0TJB/IR7q0hbpB5EM+yElbqBtEPuSDnLSFukHkQz7ISVuoG0Q+5IOctIW6QeRDPshHW6gbRD7kg5y0hbpB5EM+yElbqBtEPuSDnLSFukHkQz7ISVuoG0Q+5IN8xv9SWzhUN/hL3SDyIR+MRluoG0Q+5IOctIW6QeRDPsjp49rCV7rBj5sH5EM+6IC2UDeIfMgH+WgLdYPIh3yQk7ZQN4h8yAc5pd0W6gaRD/mgCx9/ItV4PKEbRD7kg+6k2RbqBpEP+aB7CbaFukHkQz4oxrKXp5WPy5f1zpEP+aAgGyfUFt6zsfeNfMgHBUqlLdQNIh/yQeEOTKAtnH+g94x8yAfFi74t1A0iH/JBWeJuC6vpBpdY0xxVb80l5EN3Tu3ibQur6QbH7jWr7xhBrPo3Psf0zdprrHzozqldnG1hRd3gjnf+7V/2129MMkfVmfSNv/7t1O/cUT5059Qvvrawom7wrZe+9C98+NO95qgavZ9++KVTv/St8qE7p3aRtYUVdYOrnjLwqn/p9e82R1V49/WvOvSBU1aVD905tYupLayoOz/8tb8vPWdtc1S2tc957e+lD9em686p38Z3xxGPuyvpBsftNWvwv7rvWNEs9zN+bN/gU5+11zj5aFo+SFAMbWGl3flg2vQSvdidD6ZN153TBKG3hVV155cN/0vQppfkVd35YJdp03Xn1G/8yQG3hf0nV9Odnzow4i/jhveYo+K954YRD33g1FXloxn5IGnhtoV1deeDnatNL9ja547+u2ttuu6cBgizLayoO997Vju/mL5jlzNHxVluqO58iDZ9b2267pz6hdcW1tydD9Gmf1ObXpBJ3/xru6euTded0wRhtYUN6M6HaNN306YXoHe3hzs5dW267pwGCKgtbEh3rk0vwyjduTZdd04zhdIWVtSdfz/P7zm16d1pozsf4vfb39em686pXwhtYVXd+eP5fnl9P9Wm57bcT/vynfrj2nTdOQ3w0Ya3hU98tJJj+NBd+X+J2vScOujOB7vrQ/JRXT5gOE1uCyvqBje9rLtf5gxteud6d5vR3alftql86M6pXWPbwoq6wdU67s6HaNO3Nked2fqGrg994NTV5ANqt+xlTczHZQ3uzrXp3cnVndfXpiecD2hD89rCirrzfR4v6hesTW9b7u58iDZ9n3HyAbVrVlsYQHc+RJv+LW16GyZ9669FnnqSbbrunMb5ZmPawvnfrOSBNy38z/lr00fVdXc+xN+D2FQ+oHYNaQur6s5PGyjhF3+jNn1EW99YwqEPnLaafEDtmtAWVtMNLvn9sn4/+bt1zNFw1vldWb8n//6S8gG1q7stDK4716a3rcDuPNk2XXdOw9XZFlbUDX74rnIfY442fbBJ35pT7qnf9WH5gPrV1RYG250P0aZP16Yvonf6jPJPPfI2XXdOGGppC4PuzrXpIyulO0+rTdedE47q28KKuvMjqvvdozb9JaV150P8Lv2IJeUDarfxXVXG467wu/Mh2vTjtOn/Z7nj+qo89ara9AjzAQWqri2sqjuv/E/QaNPL786H+JNKH5YPqF81bWFF3eBmtfx8ucTb9Eq68yHa9M3kA2o3/qTS28L+k6Lqzodo07dJd362ubGmQ6+qTY8mH1CKstvC+Lrzwc5LtE1f57waDz2SNl13TuA2LLEtvGvDKp5g3L88ntWq77jl05ub5avtzodo0/9lnHxA7cpqC6Ptzodo0w+cnNbMTD5wTv2nHnibrjsnEmW0hVV151dkjfCXlNr03ul/acapX7GZfEDtCm8LK+oGX/9fWWPclEybvs1NzTn1/3q9fEDtim0LU+jOh2jT101hUtY9r1GHHmSbrjsnOsW1hVV15436KaTP/77y+Ojb9OWP72/aqT8RWpuuOydKHy3kTzM9Xk03+JG7swaKvE1vRHc+RJv+EfmA+nXfFibWnQ/Rpv9ztG167z//pamnHkybrjsnZl22hQl25+m06U3qzgNt03XnxG7ZS/Pn49JquvN/W5A1W4xtesO688EW/NuS8gG1y9sWVtSd7/tE1njRtekN7M6HaNP3HScfULudcrSFj+9UyS+tmd35EG36tyNq0yd/e04Yp15Rm97gfEATfGNeZ/GY941KflmbX5EFI5o2vcHd+RBt+uYp5wMaoqO2sKru/PQsKDdtG8MkbHtTWKd++utTzQc0SPt/97aav1e7VOO788HC/7npFf688+La9KVSzAc0THs/F7qan+c8PoTufLDAb3qv/c72vG36+NTyAQ00+k3WFd1JvdM9WaAC/rvpDf175+24Z6e08gHNNPLfva3o79VufmUWsEB/bnpNP++8KFdunk4+oLHGnzxsW9h/ciX/peANp2eBC/Hnptf2886La9PfkEY+oNGWvXzofFxeTXd+5IIsfKH93PR1zovg0BccuVT8+YDG23iIv713t+68E/0htenLH9cfx6lX1abXlg8Iwsdf8x1/4uOV/Gvfd08WjWDa9IC78yHa9PfFnA8IxYGvagvnH1jRv3TajxfG8y0L4+emN+bnnRdi4Y+nxZwPCMb4X7743zX6f1lhN7jGbyP6nAVw0/s2N8V03r9dI/Z8QDCWf/4mqisq/o/5b/9DTJ+0Zt/0vu55MZ31H96eQj4gGG+95563Vv4v7dnlgYi+ag2+6T2IO9vb9sAuPWnkAxjRhP1nR/Rla2ibHlV3ns3ef4LcAM+LrE1v3k3vQd3Z3qDuHAjB6tr0EkXWna8uL8AitOll0Z0DsdOml0J3DqRAm1443TmQCm16oXTnQEpWPzOqNr3Wn5u+bVTd+Zm6c2A02vRi6M6B9GjTC6A7B9IUWZv+7crb9Mnf1p0DqVpGm55fbN35MvIAdESbnpfuHEheXG36+RW16euerzsH0KZ3THcO8AJtekd05wCviKxN373ENr13d905wKtp09ujOwcYRJs+Ot05wFAia9NPKLxNX/4E3TnA0CZ8RZs+rMi686/ozoFiadOHoTsHGE1cbfrNBbXp296sOwcYVWRt+nrdn8h6unOAtvTscn9UbfoK3R3HClF15/frzoFSadNfpjsH6ExsbfqYfMcwRncO0LHI2vT35jmD9+rOAfJIvU3XnQPklXSbrjsH6EZcbfqzB7Xdpk8+6FndOUBX4mrTH2mvTR+z+yO6c4Cupdem684BCvL2a2P6oF4wSpu+3gUxPe21unOgVgm16bpzgGIl0qbrzgGKF1mb/pkh2vQxn9GdA5Qh9jZddw5QmpjbdN05QJkia9N/9nKbvsLPdOcA5YqtTV/8bw+1uO4coALRtem6c4CqRNam684BqhNXm647B6hOXG267hygQnG16bpzgArF1abrzgEqFFebrjsHqJA2XXcOkI82XXcOkJM2XXcOkJM2XXcOkJM2XXcOkJM2XXcOkI82XXcOkJM2XXcOkNMyP9KmV9Od/0h3DsRGm647B8hJm647B8hHm647B8hJm647B8hJm647B8hJm647B8hpK216sd35VmYKSIU2XXcOkJM2XXcOkJM2XXcOkJM2XXcOkJM2XXcOkE/Pztr0vN35zrpzIG0TvvKUZdC5p3TnANp03TlAXtp03TlATtp03TlAPtp03TlATtp03TlATtp03TlATtp03TlATtp03TlAPtp03TlATtp03TlATtp03TlATtp03TlATtp03TlAPtp03TlATsm36bpzgLySbtN15wDdSLdN150DdCnNNl13DtC9BNt03TlAMRJr03XnAMVJqE3XnQMUK5U2XXcOULgU2nTdOUAZom/TdecAZYm6TdedA5Qp2jZddw5QttXPiHF/nKE7ByhffG267hygGpG16bpzgOpE1KbrzgGqFUmbrjsHqF4MbbruHKAWobfpunOAugTdpuvOAeoUbJuuOweoW5Btuu4coAnCa9N15wANEVabrjsHaI6A2nTdOUCzTNgviDb9qf105wBNE0CbrjsHaKamt+m6c4DGanKbrjsHaLLGtum6c4Cma2SbrjsHCEHj2nTdOUAomtWm684BAtKcNl13DhCWhrTpunOA8DSgTdedA4Sp5jZddw4QrjrbdN05QNDqatN15wChq6VN150DxKDyNl13DhCLStt03TlATN5UWZt+xpucNkBUqmnTdecA8amgTdedA8Sp5DZddw4QrxLbdN05QNzKatN15wDR2+oa3TkAeRTepuvOAVJRaJuuOwdISWFtuu4cIDXFtOm6c4AEdd+mX6M7B0hSl2267hwgXV206bpzgLTlbNN15wDkadN15wC0Om/TdecAvKCjNl13DsAr2m7TdecALKqtNl13DsBgo7fpunMAhjRym647B2A4I7TpunMARjJMm647B2A0y/xwUJu+8Ie6cwBG99o2XXcOQJte3abrzgFo38ttuu4cgM4836brzgHo3DI/1J0DAAAAAAAAAAAAAAAAAAAAAAAAAAAAAAAAAAAAAAAAAAAAAAAAAAAAAAAAAAAAAAAAAAAAAAAAAAAAAAAAAAAAAAAAAAAAAAAAAAAAAAAAAAAAAAAAAAAAAAAAAAAAAAAAAAAAAAAAAAAAAAAAAAAAAAAAAAAAAAAAAAAAAAAAAAAAAAAAAAAAAAAAAAAAAAAAAAAAAAAAAAAAAAAAAAAAAAAAAAAAAAAAAAAAAAAAAAAAAAAAAAAAAAAAAAAAAAAAAAAAAAAAAAAAAAAAAAAAAAAAAAAAAAAAAAAAAAAAAAAAAAAAAAAAAAAAo/j/yhki7cR0SyQAAAAASUVORK5CYII=;" vertex="1" parent="1">
          <mxGeometry x="1386" y="25" width="150" height="150" as="geometry" />
        </mxCell>
        <mxCell id="wrIWGmj25VYRmt1726Kr-15" value="&lt;span style=&quot;font-size: 36px;&quot;&gt;Module&lt;/span&gt;" style="rounded=0;whiteSpace=wrap;html=1;fillColor=none;strokeColor=none;" vertex="1" parent="1">
          <mxGeometry x="1401" y="185" width="120" height="60" as="geometry" />
        </mxCell>
        <mxCell id="wrIWGmj25VYRmt1726Kr-16" value="&lt;span style=&quot;font-size: 36px;&quot;&gt;Redis&lt;/span&gt;" style="rounded=0;whiteSpace=wrap;html=1;fillColor=none;strokeColor=none;" vertex="1" parent="1">
          <mxGeometry x="881" y="177.79" width="120" height="60" as="geometry" />
        </mxCell>
        <mxCell id="wrIWGmj25VYRmt1726Kr-17" value="&lt;font style=&quot;font-size: 24px;&quot;&gt;&lt;b&gt;204코드 + CORS 관련 헤더&lt;/b&gt;&lt;/font&gt;" style="rounded=0;whiteSpace=wrap;html=1;fillColor=none;strokeColor=none;" vertex="1" parent="1">
          <mxGeometry x="-506" y="359" width="299" height="53" as="geometry" />
        </mxCell>
        <mxCell id="wrIWGmj25VYRmt1726Kr-18" value="" style="endArrow=classic;html=1;rounded=0;" edge="1" parent="1">
          <mxGeometry width="50" height="50" relative="1" as="geometry">
            <mxPoint x="-99.5" y="412" as="sourcePoint" />
            <mxPoint x="-618.5" y="412" as="targetPoint" />
          </mxGeometry>
        </mxCell>
        <mxCell id="wrIWGmj25VYRmt1726Kr-19" value="&lt;b style=&quot;border-color: var(--border-color); font-size: 24px;&quot;&gt;http://whichcafe.com 요청 제한 규칙 확인&lt;/b&gt;" style="rounded=0;whiteSpace=wrap;html=1;fillColor=none;strokeColor=none;" vertex="1" parent="1">
          <mxGeometry x="-582.5" y="484" width="452" height="53" as="geometry" />
        </mxCell>
        <mxCell id="wrIWGmj25VYRmt1726Kr-20" value="" style="endArrow=classic;html=1;rounded=0;" edge="1" parent="1">
          <mxGeometry width="50" height="50" relative="1" as="geometry">
            <mxPoint x="-618.5" y="537" as="sourcePoint" />
            <mxPoint x="-99.5" y="537" as="targetPoint" />
          </mxGeometry>
        </mxCell>
        <mxCell id="wrIWGmj25VYRmt1726Kr-21" value="&lt;b style=&quot;border-color: var(--border-color); font-size: 24px;&quot;&gt;요청 초과 시 거부&lt;/b&gt;" style="rounded=0;whiteSpace=wrap;html=1;fillColor=none;strokeColor=none;" vertex="1" parent="1">
          <mxGeometry x="-583" y="593" width="452" height="53" as="geometry" />
        </mxCell>
        <mxCell id="wrIWGmj25VYRmt1726Kr-22" value="" style="endArrow=classic;html=1;rounded=0;" edge="1" parent="1">
          <mxGeometry width="50" height="50" relative="1" as="geometry">
            <mxPoint x="-100" y="646" as="sourcePoint" />
            <mxPoint x="-619" y="646" as="targetPoint" />
          </mxGeometry>
        </mxCell>
        <mxCell id="wrIWGmj25VYRmt1726Kr-23" value="" style="endArrow=none;html=1;rounded=0;" edge="1" parent="1">
          <mxGeometry width="50" height="50" relative="1" as="geometry">
            <mxPoint x="1459.75" y="1304.29" as="sourcePoint" />
            <mxPoint x="1460.423366093366" y="237.28999999999976" as="targetPoint" />
          </mxGeometry>
        </mxCell>
        <mxCell id="wrIWGmj25VYRmt1726Kr-24" value="" style="endArrow=classic;html=1;rounded=0;" edge="1" parent="1">
          <mxGeometry width="50" height="50" relative="1" as="geometry">
            <mxPoint x="-100" y="718" as="sourcePoint" />
            <mxPoint x="420" y="718" as="targetPoint" />
          </mxGeometry>
        </mxCell>
        <mxCell id="wrIWGmj25VYRmt1726Kr-25" value="&lt;font style=&quot;font-size: 24px;&quot;&gt;&lt;b&gt;데이터가 캐싱되어 있을 시, 데이터 반환&lt;/b&gt;&lt;/font&gt;" style="rounded=0;whiteSpace=wrap;html=1;fillColor=none;strokeColor=none;" vertex="1" parent="1">
          <mxGeometry x="456" y="755" width="452" height="53" as="geometry" />
        </mxCell>
        <mxCell id="wrIWGmj25VYRmt1726Kr-26" value="" style="endArrow=classic;html=1;rounded=0;" edge="1" parent="1">
          <mxGeometry width="50" height="50" relative="1" as="geometry">
            <mxPoint x="939" y="808" as="sourcePoint" />
            <mxPoint x="420" y="808" as="targetPoint" />
          </mxGeometry>
        </mxCell>
        <mxCell id="wrIWGmj25VYRmt1726Kr-27" value="&lt;font style=&quot;font-size: 24px;&quot;&gt;&lt;b&gt;데이터가 캐싱되어 있을 시, 데이터 반환&lt;/b&gt;&lt;/font&gt;" style="rounded=0;whiteSpace=wrap;html=1;fillColor=none;strokeColor=none;" vertex="1" parent="1">
          <mxGeometry x="974" y="877" width="452" height="53" as="geometry" />
        </mxCell>
        <mxCell id="wrIWGmj25VYRmt1726Kr-28" value="" style="endArrow=classic;html=1;rounded=0;" edge="1" parent="1">
          <mxGeometry width="50" height="50" relative="1" as="geometry">
            <mxPoint x="1459" y="930" as="sourcePoint" />
            <mxPoint x="940" y="930" as="targetPoint" />
          </mxGeometry>
        </mxCell>
        <mxCell id="wrIWGmj25VYRmt1726Kr-29" value="" style="endArrow=classic;html=1;rounded=0;" edge="1" parent="1">
          <mxGeometry width="50" height="50" relative="1" as="geometry">
            <mxPoint x="938" y="983" as="sourcePoint" />
            <mxPoint x="419" y="983" as="targetPoint" />
          </mxGeometry>
        </mxCell>
        <mxCell id="wrIWGmj25VYRmt1726Kr-30" value="" style="endArrow=classic;html=1;rounded=0;" edge="1" parent="1">
          <mxGeometry width="50" height="50" relative="1" as="geometry">
            <mxPoint x="420" y="1034" as="sourcePoint" />
            <mxPoint x="-99" y="1034" as="targetPoint" />
          </mxGeometry>
        </mxCell>
        <mxCell id="wrIWGmj25VYRmt1726Kr-31" value="" style="endArrow=classic;html=1;rounded=0;" edge="1" parent="1">
          <mxGeometry width="50" height="50" relative="1" as="geometry">
            <mxPoint x="-100" y="1087" as="sourcePoint" />
            <mxPoint x="-618" y="1087" as="targetPoint" />
          </mxGeometry>
        </mxCell>
      </root>
    </mxGraphModel>
  </diagram>
</mxfile>
